<svg version="1.1" xmlns="http://www.w3.org/2000/svg" viewBox="0 0 4820 2220" width="4820" height="2220">
  <!-- svg-source:excalidraw -->
  
  <defs>
    <style class="style-fonts">
      @font-face {
        font-family: "Virgil";
        src: url("https://excalidraw.com/Virgil.woff2");
      }
      @font-face {
        font-family: "Cascadia";
        src: url("https://excalidraw.com/Cascadia.woff2");
      }
      @font-face {
        font-family: "Assistant";
        src: url("https://excalidraw.com/Assistant-Regular.woff2");
      }
    </style>
    
  </defs>
  <rect x="0" y="0" width="4820" height="2220" fill="#FFF"></rect><g stroke-linecap="round" transform="translate(10 10) rotate(0 625 215)"><path d="M32 0 C272.79 1.09, 515.64 -0.14, 1218 0 M32 0 C276.77 -3.31, 521.2 -3.3, 1218 0 M1218 0 C1240.58 -1.3, 1251.53 9.96, 1250 32 M1218 0 C1237.29 1.5, 1249.84 10.46, 1250 32 M1250 32 C1250.3 116.79, 1250.75 200.59, 1250 398 M1250 32 C1250.98 137.89, 1250.36 245.2, 1250 398 M1250 398 C1250.5 417.69, 1240.61 428.54, 1218 430 M1250 398 C1251 417.31, 1238.32 429.29, 1218 430 M1218 430 C761.09 432.26, 304.64 430.95, 32 430 M1218 430 C935.82 429.64, 653.51 429.64, 32 430 M32 430 C11.45 429, -0.73 419.94, 0 398 M32 430 C12.58 432.13, 1.34 417.56, 0 398 M0 398 C-1.15 268.55, -1.48 142.16, 0 32 M0 398 C0.51 306.83, 0.33 214.84, 0 32 M0 32 C-0.59 11.96, 12.47 0.08, 32 0 M0 32 C0.64 9.49, 8.72 0.49, 32 0" stroke="#000000" stroke-width="1" fill="none"></path></g><g transform="translate(60 50) rotate(0 202.1484375 18.75)"><text x="0" y="0" font-family="Cascadia, Segoe UI Emoji" font-size="30px" fill="#000000" text-anchor="start" style="white-space: pre;" direction="ltr" dominant-baseline="text-before-edge">Functional Requirements</text></g><g stroke-linecap="round" transform="translate(10 490) rotate(0 625 160)"><path d="M32 0 C373.52 -2.54, 713.42 -2.03, 1218 0 M32 0 C373.81 2.19, 715.28 2.07, 1218 0 M1218 0 C1237.73 0.17, 1251.81 11.73, 1250 32 M1218 0 C1238.06 1.49, 1251.86 9.45, 1250 32 M1250 32 C1250.24 83.6, 1251.18 137.27, 1250 288 M1250 32 C1248.84 112.35, 1247.81 191.93, 1250 288 M1250 288 C1248.55 308.97, 1238.84 319.37, 1218 320 M1250 288 C1248.05 309.43, 1239.39 318.84, 1218 320 M1218 320 C747.09 317.7, 277.03 318.22, 32 320 M1218 320 C772.78 317.43, 327.5 317.93, 32 320 M32 320 C9.12 319.23, -1.49 307.89, 0 288 M32 320 C10.14 321.88, 1.25 309.91, 0 288 M0 288 C-0.72 201.52, 1.55 115.94, 0 32 M0 288 C1.62 223.46, 0.69 160.41, 0 32 M0 32 C-1.44 8.71, 8.69 -0.99, 32 0 M0 32 C1.12 8.58, 11.5 0.17, 32 0" stroke="#000000" stroke-width="1" fill="none"></path></g><g transform="translate(60 530) rotate(0 237.3046875 18.75)"><text x="0" y="0" font-family="Cascadia, Segoe UI Emoji" font-size="30px" fill="#000000" text-anchor="start" style="white-space: pre;" direction="ltr" dominant-baseline="text-before-edge">Non-Functional Requirements</text></g><g stroke-linecap="round" transform="translate(10 860) rotate(0 625 200)"><path d="M32 0 C487 -1.25, 943.24 -2.68, 1218 0 M32 0 C356.68 -0.15, 681.87 0.05, 1218 0 M1218 0 C1237.83 1.28, 1249.96 9.08, 1250 32 M1218 0 C1237.43 0.96, 1249.25 9.99, 1250 32 M1250 32 C1251.2 155.99, 1249.15 279.72, 1250 368 M1250 32 C1249.74 158.64, 1249.41 284.68, 1250 368 M1250 368 C1250.76 388.98, 1239.79 401.38, 1218 400 M1250 368 C1248.33 389.24, 1240.9 400.03, 1218 400 M1218 400 C901.02 398.22, 583.47 398.25, 32 400 M1218 400 C938.85 397.56, 660.54 397.45, 32 400 M32 400 C11.4 401.24, 1.34 391.27, 0 368 M32 400 C10.6 401.91, -0.78 389.62, 0 368 M0 368 C-1.59 271.03, -2.85 173.34, 0 32 M0 368 C0 264.45, 0.27 161.28, 0 32 M0 32 C-1.86 11.78, 12.13 0.29, 32 0 M0 32 C0.52 8.92, 10.84 2.09, 32 0" stroke="#000000" stroke-width="1" fill="none"></path></g><g transform="translate(60 910) rotate(0 114.2578125 18.75)"><text x="0" y="0" font-family="Cascadia, Segoe UI Emoji" font-size="30px" fill="#000000" text-anchor="start" style="white-space: pre;" direction="ltr" dominant-baseline="text-before-edge">Core Entities</text></g><g stroke-linecap="round" transform="translate(10 1310) rotate(0 625 450)"><path d="M32 0 C381.78 -0.11, 732.8 0.2, 1218 0 M32 0 C495.32 1.74, 958.21 1.73, 1218 0 M1218 0 C1239.66 0.26, 1248.33 12.54, 1250 32 M1218 0 C1238.67 0.55, 1250.69 9.89, 1250 32 M1250 32 C1247.7 357.29, 1248.58 682.34, 1250 868 M1250 32 C1247.06 240.26, 1247.3 448.13, 1250 868 M1250 868 C1249.4 888.49, 1240.42 900.12, 1218 900 M1250 868 C1249.37 887.1, 1239.47 901.11, 1218 900 M1218 900 C925.8 899.13, 633.1 899.3, 32 900 M1218 900 C814.13 896.96, 409.9 896.74, 32 900 M32 900 C12.49 901.83, 0.58 891.1, 0 868 M32 900 C10.08 899.9, 0.66 890.76, 0 868 M0 868 C-1.96 646.09, -2.48 422.53, 0 32 M0 868 C-1.51 671.82, -1.67 475.66, 0 32 M0 32 C1.23 12.47, 12.08 -0.24, 32 0 M0 32 C0.41 12.01, 10.93 0.23, 32 0" stroke="#000000" stroke-width="1" fill="none"></path></g><g transform="translate(60 1360) rotate(0 87.890625 18.75)"><text x="0" y="0" font-family="Cascadia, Segoe UI Emoji" font-size="30px" fill="#000000" text-anchor="start" style="white-space: pre;" direction="ltr" dominant-baseline="text-before-edge">API Routes</text></g><g stroke-linecap="round" transform="translate(1310 10) rotate(0 1750 1100)"><path d="M32 0 C1308.41 -10.95, 2585.12 -9.82, 3468 0 M32 0 C941.16 9.23, 1850.29 8.55, 3468 0 M3468 0 C3489.1 0.94, 3498.1 9.08, 3500 32 M3468 0 C3488.94 0.32, 3501.6 9.46, 3500 32 M3500 32 C3508.77 725.21, 3508.38 1418.24, 3500 2168 M3500 32 C3493.62 750.63, 3493.47 1469.4, 3500 2168 M3500 2168 C3498.17 2190.82, 3487.8 2199.97, 3468 2200 M3500 2168 C3500.04 2189.78, 3488.92 2198.96, 3468 2200 M3468 2200 C2562.16 2192.68, 1657.62 2192.73, 32 2200 M3468 2200 C2314.16 2197.92, 1160.49 2198.31, 32 2200 M32 2200 C12.25 2200.1, 0.34 2190.68, 0 2168 M32 2200 C8.65 2200.94, 0.27 2188.71, 0 2168 M0 2168 C1.72 1592.78, 2.82 1015.87, 0 32 M0 2168 C-2.99 1691.5, -2.88 1214.62, 0 32 M0 32 C-0.66 10.33, 9.39 -0.72, 32 0 M0 32 C0.51 12.58, 10.56 -1.02, 32 0" stroke="#000000" stroke-width="1" fill="none"></path></g><g transform="translate(1360 60) rotate(0 149.4140625 18.75)"><text x="0" y="0" font-family="Cascadia, Segoe UI Emoji" font-size="30px" fill="#000000" text-anchor="start" style="white-space: pre;" direction="ltr" dominant-baseline="text-before-edge">High-Level Design</text></g><g stroke-linecap="round" transform="translate(1451.6868288026599 699.8547976349125) rotate(0 112.1636683411939 52.23308084516384)"><path d="M26.12 0 C66.49 0.08, 108.94 -1.28, 198.21 0 M26.12 0 C83.08 -1.41, 141.02 0.05, 198.21 0 M198.21 0 C215.68 -0.06, 222.73 7.95, 224.33 26.12 M198.21 0 C214.45 1.35, 225.8 9.25, 224.33 26.12 M224.33 26.12 C225.12 46.65, 224.16 64.22, 224.33 78.35 M224.33 26.12 C225.3 37.94, 225.16 51.54, 224.33 78.35 M224.33 78.35 C223.61 96.18, 217.31 103.38, 198.21 104.47 M224.33 78.35 C224.86 96.7, 216.02 102.73, 198.21 104.47 M198.21 104.47 C155.02 105.54, 111.65 103.96, 26.12 104.47 M198.21 104.47 C162.13 106.9, 123.66 106.11, 26.12 104.47 M26.12 104.47 C8.74 106.13, -0.46 96.22, 0 78.35 M26.12 104.47 C9.82 104.05, 1.19 94, 0 78.35 M0 78.35 C0.42 57.5, -0.06 39.09, 0 26.12 M0 78.35 C-0.21 66.56, 0.01 54.05, 0 26.12 M0 26.12 C-0.79 10.36, 10.37 0.92, 26.12 0 M0 26.12 C1.43 8.15, 10.33 0.97, 26.12 0" stroke="#1e1e1e" stroke-width="2" fill="none"></path></g><g transform="translate(1530.2956047432604 706.5588493781647) rotate(0 35.881980895996094 17.5)"><text x="0" y="0" font-family="Virgil, Segoe UI Emoji" font-size="28px" fill="#1e1e1e" text-anchor="start" style="white-space: pre;" direction="ltr" dominant-baseline="text-before-edge">client</text></g><g stroke-linecap="round" transform="translate(1967.8516933522683 742.7369027272091) rotate(0 48.706726473418485 214.78867903851778)"><path d="M24.35 0 C39.58 -1, 54.1 -0.42, 73.06 0 M24.35 0 C34.72 -0.32, 44.23 -0.66, 73.06 0 M73.06 0 C88.27 1.18, 98.69 8.59, 97.41 24.35 M73.06 0 C91.05 -0.27, 99.04 9.09, 97.41 24.35 M97.41 24.35 C96.54 156.31, 97.36 286.72, 97.41 405.22 M97.41 24.35 C98.03 117.57, 98.75 210.22, 97.41 405.22 M97.41 405.22 C97.88 422.28, 89.64 428.07, 73.06 429.58 M97.41 405.22 C96.3 421.41, 89.27 429.73, 73.06 429.58 M73.06 429.58 C54.07 429.82, 40.34 430.93, 24.35 429.58 M73.06 429.58 C54.26 430.45, 35.2 429.84, 24.35 429.58 M24.35 429.58 C9.09 429.22, 1.03 419.93, 0 405.22 M24.35 429.58 C10.07 429.11, -1.28 421.82, 0 405.22 M0 405.22 C-0.71 304.09, 0.81 204.19, 0 24.35 M0 405.22 C0.74 294.29, 1.48 182.65, 0 24.35 M0 24.35 C1.24 7.64, 9.53 0.85, 24.35 0 M0 24.35 C-1 7.47, 9.91 0.25, 24.35 0" stroke="#1e1e1e" stroke-width="2" fill="none"></path></g><g transform="translate(1967.8516933522683 910.8813929742548) rotate(0 89.41796875 17.5)"><text x="0" y="0" font-family="Virgil, Segoe UI Emoji" font-size="28px" fill="#1e1e1e" text-anchor="start" style="white-space: pre;" direction="ltr" dominant-baseline="text-before-edge">API gateway</text></g><g stroke-linecap="round" transform="translate(2202.1052501947847 800.432147572998) rotate(0 166.58294016868422 38.85804846326437)"><path d="M19.43 0 C86.77 1.15, 157.59 0.87, 313.74 0 M19.43 0 C106.43 1.26, 194.67 1, 313.74 0 M313.74 0 C328.22 -0.23, 334.58 7.33, 333.17 19.43 M313.74 0 C327.69 -0.12, 331.78 5.03, 333.17 19.43 M333.17 19.43 C332.08 35.32, 334.54 49.03, 333.17 58.29 M333.17 19.43 C333.73 32.3, 333.67 43.61, 333.17 58.29 M333.17 58.29 C332.2 71.2, 326.67 77.85, 313.74 77.72 M333.17 58.29 C334.42 71.34, 326.13 75.74, 313.74 77.72 M313.74 77.72 C221.47 77.98, 126.76 79.35, 19.43 77.72 M313.74 77.72 C201.35 78.08, 88.63 77.65, 19.43 77.72 M19.43 77.72 C8.17 77.31, -1.11 71.55, 0 58.29 M19.43 77.72 C5.62 77.52, 1.09 69.5, 0 58.29 M0 58.29 C-0.35 49.05, -1.95 40.75, 0 19.43 M0 58.29 C0.3 43.17, 0.38 28.96, 0 19.43 M0 19.43 C-0.87 5.91, 8.03 0.22, 19.43 0 M0 19.43 C-1.33 8.51, 7.48 -0.48, 19.43 0" stroke="#1e1e1e" stroke-width="2" fill="none"></path></g><g transform="translate(2255.1181720079094 825.6274602741996) rotate(0 113.17594909667969 17.5)"><text x="0" y="0" font-family="Virgil, Segoe UI Emoji" font-size="28px" fill="#1e1e1e" text-anchor="start" style="white-space: pre;" direction="ltr" dominant-baseline="text-before-edge">Donation service</text></g><g stroke-linecap="round" transform="translate(2334.1306216993685 1184.3957934617956) rotate(0 170.32980043809016 33.53577888333734)"><path d="M16.77 0 C115.61 -1.22, 214 -0.81, 323.89 0 M16.77 0 C127.54 -0.61, 237.72 -0.22, 323.89 0 M323.89 0 C335.94 -0.11, 339.45 4.33, 340.66 16.77 M323.89 0 C337.14 0.13, 341.82 4.31, 340.66 16.77 M340.66 16.77 C341.3 29.74, 339.8 39.8, 340.66 50.3 M340.66 16.77 C340.23 28.18, 340.71 39.7, 340.66 50.3 M340.66 50.3 C341.75 61.57, 334.58 65.35, 323.89 67.07 M340.66 50.3 C341.07 63.58, 336.77 69.06, 323.89 67.07 M323.89 67.07 C260.87 66.77, 195.77 67.8, 16.77 67.07 M323.89 67.07 C237.89 65.23, 150.27 65.49, 16.77 67.07 M16.77 67.07 C4.85 66.9, 0.95 59.97, 0 50.3 M16.77 67.07 C3.65 68.25, -1.51 61.31, 0 50.3 M0 50.3 C1.95 43.35, 1.21 34.3, 0 16.77 M0 50.3 C-0.67 40.77, 0.54 31.9, 0 16.77 M0 16.77 C-1.15 7.36, 6.47 -0.42, 16.77 0 M0 16.77 C2.3 7.05, 7.64 2.16, 16.77 0" stroke="#1e1e1e" stroke-width="2" fill="none"></path></g><g transform="translate(2368.598865635455 1209.2315017947333) rotate(0 135.7439422607422 17.5)"><text x="0" y="0" font-family="Virgil, Segoe UI Emoji" font-size="28px" fill="#1e1e1e" text-anchor="start" style="white-space: pre;" direction="ltr" dominant-baseline="text-before-edge">Transaction service</text></g><g stroke-linecap="round"><g transform="translate(1679.0285644140954 780.5315879344075) rotate(0 143.42697009716517 11.36201965976693)"><path d="M-0.61 0.71 C47.48 4.62, 239.56 19.36, 287.62 23.01 M1.26 0.03 C49.35 3.6, 239.37 17.07, 287.08 21.03" stroke="#1e1e1e" stroke-width="2" fill="none"></path></g><g transform="translate(1679.0285644140954 780.5315879344075) rotate(0 143.42697009716517 11.36201965976693)"><path d="M263 27.78 C269.5 27.69, 274.1 26.46, 287.08 21.03 M263 27.78 C270.33 25.68, 276.24 23.15, 287.08 21.03" stroke="#1e1e1e" stroke-width="2" fill="none"></path></g><g transform="translate(1679.0285644140954 780.5315879344075) rotate(0 143.42697009716517 11.36201965976693)"><path d="M264.3 10.73 C270.45 14.39, 274.76 16.91, 287.08 21.03 M264.3 10.73 C271.38 13.55, 276.91 15.95, 287.08 21.03" stroke="#1e1e1e" stroke-width="2" fill="none"></path></g></g><mask></mask><g stroke-linecap="round"><g transform="translate(2066.2651462991053 836.7313016200221) rotate(0 66.0141343662217 -0.4818445229577719)"><path d="M0.77 0.28 C23.03 -0.02, 110.93 -0.98, 132.94 -1.1 M-0.29 -0.61 C21.95 -0.78, 110.34 0.68, 132.48 0.36" stroke="#1e1e1e" stroke-width="2" fill="none"></path></g><g transform="translate(2066.2651462991053 836.7313016200221) rotate(0 66.0141343662217 -0.4818445229577719)"><path d="M108.96 8.84 C115.24 8.11, 120.38 5.89, 132.48 0.36 M108.96 8.84 C116.37 5.32, 125.93 3.1, 132.48 0.36" stroke="#1e1e1e" stroke-width="2" fill="none"></path></g><g transform="translate(2066.2651462991053 836.7313016200221) rotate(0 66.0141343662217 -0.4818445229577719)"><path d="M109.01 -8.26 C115.37 -4.74, 120.51 -2.7, 132.48 0.36 M109.01 -8.26 C116.48 -5.92, 126.02 -2.29, 132.48 0.36" stroke="#1e1e1e" stroke-width="2" fill="none"></path></g></g><mask></mask><g stroke-linecap="round"><g transform="translate(2066.2651462991053 1085.8108468311902) rotate(0 132.3357958485442 50.12150998215316)"><path d="M0.92 -0.14 C45.04 16.61, 221.48 84.03, 265.52 100.75 M-0.06 -1.26 C43.91 15.1, 220.89 81.78, 265.02 98.9" stroke="#1e1e1e" stroke-width="2" fill="none"></path></g><g transform="translate(2066.2651462991053 1085.8108468311902) rotate(0 132.3357958485442 50.12150998215316)"><path d="M240.02 98.51 C248.89 99.88, 259.07 99.47, 265.02 98.9 M240.02 98.51 C248.29 98.84, 255.26 98.34, 265.02 98.9" stroke="#1e1e1e" stroke-width="2" fill="none"></path></g><g transform="translate(2066.2651462991053 1085.8108468311902) rotate(0 132.3357958485442 50.12150998215316)"><path d="M246.12 82.54 C252.8 89.76, 260.76 95.17, 265.02 98.9 M246.12 82.54 C252.49 87.53, 257.66 91.74, 265.02 98.9" stroke="#1e1e1e" stroke-width="2" fill="none"></path></g></g><mask></mask><g stroke-linecap="round"><g transform="translate(1561.3454732703558 815.6970605950305) rotate(0 201.36416055375196 121.1190372652286)"><path d="M0.85 0.51 C67.91 40.89, 336.39 202.01, 403.25 242.17 M-0.16 -0.27 C66.7 40.33, 335.13 203.23, 402.58 243.68" stroke="#1e1e1e" stroke-width="2" fill="none"></path></g><g transform="translate(1561.3454732703558 815.6970605950305) rotate(0 201.36416055375196 121.1190372652286)"><path d="M378.05 238.86 C388.12 241.37, 396.4 241.11, 402.58 243.68 M378.05 238.86 C384.41 239.43, 390.08 241.8, 402.58 243.68" stroke="#1e1e1e" stroke-width="2" fill="none"></path></g><g transform="translate(1561.3454732703558 815.6970605950305) rotate(0 201.36416055375196 121.1190372652286)"><path d="M386.89 224.22 C393.62 232.3, 398.57 237.55, 402.58 243.68 M386.89 224.22 C391.28 228.26, 394.86 234.11, 402.58 243.68" stroke="#1e1e1e" stroke-width="2" fill="none"></path></g></g><mask></mask><g stroke-linecap="round" transform="translate(1507.9262257628707 752.0406096431925) rotate(0 71.13103326518649 22.5)"><path d="M11.25 0 C55.56 -1.73, 98.82 1.28, 131.01 0 M11.25 0 C48.21 1.34, 84.07 0.87, 131.01 0 M131.01 0 C140.2 -1.08, 142.73 4.57, 142.26 11.25 M131.01 0 C138.91 -1.73, 141.15 3.7, 142.26 11.25 M142.26 11.25 C142.37 17.49, 140.56 25.06, 142.26 33.75 M142.26 11.25 C141.52 20.13, 142.44 29.68, 142.26 33.75 M142.26 33.75 C141.8 41.71, 139.48 44.64, 131.01 45 M142.26 33.75 C143.45 39.49, 140.46 44.53, 131.01 45 M131.01 45 C101.58 45.5, 70.98 42.87, 11.25 45 M131.01 45 C88.5 44.03, 46.45 45.74, 11.25 45 M11.25 45 C5.41 45.92, 1.24 40.77, 0 33.75 M11.25 45 C5.38 45.97, -1 40.6, 0 33.75 M0 33.75 C1.75 26.12, -0.44 18.74, 0 11.25 M0 33.75 C0.7 25.1, -1.04 17.59, 0 11.25 M0 11.25 C-0.89 2.38, 3.9 -1.15, 11.25 0 M0 11.25 C-1.84 5.87, 4.38 -0.84, 11.25 0" stroke="#1e1e1e" stroke-width="2" fill="none"></path></g><g transform="translate(1532.745258753399 757.0406096431925) rotate(0 46.3120002746582 17.5)"><text x="46.3120002746582" y="0" font-family="Virgil, Segoe UI Emoji" font-size="28px" fill="#1e1e1e" text-anchor="middle" style="white-space: pre;" direction="ltr" dominant-baseline="text-before-edge">Iframe</text></g><g stroke-linecap="round" transform="translate(2390.101382746522 557.8789911205855) rotate(0 66.71282200946666 63.44474743602166)"><path d="M83.98 1.63 C93.86 3.13, 104.18 10.52, 111.64 17.21 C119.11 23.9, 125.17 32.64, 128.77 41.75 C132.38 50.87, 134.65 62.25, 133.27 71.87 C131.89 81.5, 126.52 91.5, 120.49 99.51 C114.47 107.51, 106.18 115.24, 97.12 119.9 C88.06 124.55, 76.46 127.57, 66.13 127.43 C55.81 127.3, 44.44 123.8, 35.18 119.09 C25.92 114.38, 16.23 107.14, 10.58 99.16 C4.94 91.18, 2.18 81.17, 1.32 71.22 C0.46 61.27, 1.81 48.74, 5.43 39.46 C9.05 30.19, 15.24 21.9, 23.04 15.57 C30.83 9.23, 40.7 3.2, 52.21 1.47 C63.71 -0.26, 84.27 3.73, 92.09 5.16 C99.91 6.6, 99.7 9.02, 99.11 10.06 M59.39 0.2 C69.32 -1.91, 82.8 -0.38, 92.28 3.43 C101.75 7.24, 109.8 15.41, 116.22 23.07 C122.64 30.72, 128.41 40.1, 130.8 49.34 C133.18 58.58, 133.12 68.78, 130.52 78.5 C127.92 88.22, 121.88 100.1, 115.2 107.66 C108.51 115.23, 99.89 120.84, 90.41 123.88 C80.93 126.92, 68.59 127.29, 58.33 125.91 C48.07 124.53, 37.48 121.34, 28.83 115.59 C20.17 109.84, 11.01 100.29, 6.4 91.42 C1.79 82.55, 1.02 71.92, 1.18 62.39 C1.34 52.85, 2.49 42.91, 7.38 34.21 C12.28 25.52, 21.53 15.72, 30.54 10.23 C39.55 4.74, 56.3 2.49, 61.44 1.28 C66.59 0.08, 61.33 2.22, 61.42 3" stroke="#1e1e1e" stroke-width="2" fill="none"></path></g><g transform="translate(2420.8571155242753 603.9615274139285) rotate(0 35.784000396728516 17.5)"><text x="35.784000396728516" y="0" font-family="Virgil, Segoe UI Emoji" font-size="28px" fill="#1e1e1e" text-anchor="middle" style="white-space: pre;" direction="ltr" dominant-baseline="text-before-edge">Redis</text></g><g stroke-linecap="round" transform="translate(2715.6884734302066 498.7408446921779) rotate(0 140.32014365734722 132.30193586767075)"><path d="M114.64 2.37 C128.47 -2.23, 146.79 -0.36, 161.77 1.67 C176.75 3.7, 191.13 7.95, 204.52 14.54 C217.91 21.14, 231.53 30.69, 242.12 41.26 C252.71 51.82, 261.72 64.93, 268.04 77.92 C274.36 90.9, 278.7 104.99, 280.02 119.18 C281.34 133.37, 279.35 148.96, 275.98 163.06 C272.62 177.15, 267.66 191.83, 259.83 203.75 C252 215.68, 240.98 225.74, 229 234.58 C217.01 243.43, 202.21 251.84, 187.92 256.8 C173.62 261.76, 158.39 264.07, 143.23 264.36 C128.07 264.65, 111.56 262.87, 96.96 258.54 C82.35 254.22, 67.89 246.98, 55.6 238.42 C43.31 229.85, 31.73 219.19, 23.23 207.14 C14.73 195.09, 8.41 180.15, 4.62 166.12 C0.82 152.09, -0.57 137.07, 0.48 122.96 C1.53 108.84, 5.17 94.7, 10.91 81.43 C16.65 68.15, 24.71 54.17, 34.93 43.3 C45.15 32.44, 56.21 23.48, 72.23 16.23 C88.25 8.99, 118.74 2.16, 131.07 -0.15 C143.4 -2.45, 145.92 0, 146.22 2.41 M173.29 4.1 C187.58 5.15, 201.33 12.26, 214.21 19.79 C227.1 27.32, 241.08 37.85, 250.6 49.27 C260.11 60.7, 266.19 74.97, 271.3 88.35 C276.41 101.73, 280.6 115.27, 281.27 129.52 C281.95 143.78, 279.91 159.96, 275.36 173.88 C270.81 187.79, 263.11 201.83, 253.98 213.01 C244.85 224.2, 233.58 233.12, 220.59 240.99 C207.6 248.86, 191.02 256.51, 176.03 260.23 C161.05 263.95, 145.6 264.41, 130.67 263.3 C115.74 262.19, 100.57 258.67, 86.47 253.57 C72.36 248.46, 57.33 242.12, 46.02 232.67 C34.71 223.22, 25.89 209.45, 18.59 196.88 C11.28 184.3, 4.98 171.44, 2.19 157.22 C-0.6 142.99, -0.28 125.99, 1.84 111.53 C3.95 97.07, 7.92 83.15, 14.89 70.44 C21.86 57.72, 32.62 45, 43.64 35.25 C54.66 25.49, 67.21 17.61, 81.01 11.92 C94.82 6.23, 111.3 2.54, 126.47 1.1 C141.64 -0.35, 164.42 2.29, 172.01 3.23 C179.6 4.17, 172.62 4.52, 171.99 6.74" stroke="#1e1e1e" stroke-width="2" fill="none"></path></g><g transform="translate(2787.369292702795 613.4911845437109) rotate(0 68.41799926757812 17.5)"><text x="68.41799926757812" y="0" font-family="Virgil, Segoe UI Emoji" font-size="28px" fill="#1e1e1e" text-anchor="middle" style="white-space: pre;" direction="ltr" dominant-baseline="text-before-edge">Postgress</text></g><g stroke-linecap="round"><g transform="translate(2479.7686757731967 799.1815300623775) rotate(0 128.22482801251203 -53.98622113816725)"><path d="M1.01 -0.65 C43.87 -18.61, 214.12 -89.44, 256.73 -107.48 M0.09 1.62 C42.85 -16.72, 213.27 -91.07, 255.93 -109.35" stroke="#1e1e1e" stroke-width="2" fill="none"></path></g><g transform="translate(2479.7686757731967 799.1815300623775) rotate(0 128.22482801251203 -53.98622113816725)"><path d="M237.76 -92.17 C241.44 -96.39, 248.13 -101.05, 255.93 -109.35 M237.76 -92.17 C241.92 -95.96, 246.55 -99.84, 255.93 -109.35" stroke="#1e1e1e" stroke-width="2" fill="none"></path></g><g transform="translate(2479.7686757731967 799.1815300623775) rotate(0 128.22482801251203 -53.98622113816725)"><path d="M230.97 -107.86 C236.47 -108, 244.96 -108.51, 255.93 -109.35 M230.97 -107.86 C236.57 -108.12, 242.73 -108.48, 255.93 -109.35" stroke="#1e1e1e" stroke-width="2" fill="none"></path></g></g><mask></mask><g stroke-linecap="round"><g transform="translate(2664.2362866617896 1182.2804886523263) rotate(0 42.49973943093664 -231.9555448135991)"><path d="M0.28 0.49 C14.31 -76.87, 71.18 -387.41, 85.21 -464.82 M-1.03 -0.3 C12.77 -77.48, 70.3 -386.7, 84.37 -463.75" stroke="#1e1e1e" stroke-width="2" fill="none"></path></g><g transform="translate(2664.2362866617896 1182.2804886523263) rotate(0 42.49973943093664 -231.9555448135991)"><path d="M88.51 -439.1 C87.87 -448.22, 83.95 -459.01, 84.37 -463.75 M88.51 -439.1 C87.83 -446.4, 85.8 -454.65, 84.37 -463.75" stroke="#1e1e1e" stroke-width="2" fill="none"></path></g><g transform="translate(2664.2362866617896 1182.2804886523263) rotate(0 42.49973943093664 -231.9555448135991)"><path d="M71.7 -442.2 C77.5 -450.17, 80.05 -459.77, 84.37 -463.75 M71.7 -442.2 C76.02 -448.59, 79 -455.91, 84.37 -463.75" stroke="#1e1e1e" stroke-width="2" fill="none"></path></g></g><mask></mask><g stroke-linecap="round"><g transform="translate(2349.2811013233654 799.432147572998) rotate(0 33.67190570162711 -61.81010148801647)"><path d="M0.21 -0.9 C11.29 -21.59, 55.58 -103.21, 66.76 -123.64 M-1.15 1.23 C10.31 -19.29, 57.89 -101.55, 69.17 -122.12" stroke="#1e1e1e" stroke-width="2" fill="none"></path></g><g transform="translate(2349.2811013233654 799.432147572998) rotate(0 33.67190570162711 -61.81010148801647)"><path d="M65.05 -97.46 C64.78 -106.4, 67.58 -113.43, 69.17 -122.12 M65.05 -97.46 C65.94 -105.89, 67.63 -111.68, 69.17 -122.12" stroke="#1e1e1e" stroke-width="2" fill="none"></path></g><g transform="translate(2349.2811013233654 799.432147572998) rotate(0 33.67190570162711 -61.81010148801647)"><path d="M50.17 -105.88 C54.74 -112.13, 62.35 -116.43, 69.17 -122.12 M50.17 -105.88 C55.67 -111.73, 61.92 -114.94, 69.17 -122.12" stroke="#1e1e1e" stroke-width="2" fill="none"></path></g></g><mask></mask><g transform="translate(2895.9397810487094 48.31130991066004) rotate(0 127.9599380493164 192.5)"><text x="0" y="0" font-family="Virgil, Segoe UI Emoji" font-size="28px" fill="#1e1e1e" text-anchor="start" style="white-space: pre;" direction="ltr" dominant-baseline="text-before-edge">DonationIntent</text><text x="0" y="35" font-family="Virgil, Segoe UI Emoji" font-size="28px" fill="#1e1e1e" text-anchor="start" style="white-space: pre;" direction="ltr" dominant-baseline="text-before-edge">- id</text><text x="0" y="70" font-family="Virgil, Segoe UI Emoji" font-size="28px" fill="#1e1e1e" text-anchor="start" style="white-space: pre;" direction="ltr" dominant-baseline="text-before-edge">- userId</text><text x="0" y="105" font-family="Virgil, Segoe UI Emoji" font-size="28px" fill="#1e1e1e" text-anchor="start" style="white-space: pre;" direction="ltr" dominant-baseline="text-before-edge">- charityId</text><text x="0" y="140" font-family="Virgil, Segoe UI Emoji" font-size="28px" fill="#1e1e1e" text-anchor="start" style="white-space: pre;" direction="ltr" dominant-baseline="text-before-edge">- amount</text><text x="0" y="175" font-family="Virgil, Segoe UI Emoji" font-size="28px" fill="#1e1e1e" text-anchor="start" style="white-space: pre;" direction="ltr" dominant-baseline="text-before-edge">- currency</text><text x="0" y="210" font-family="Virgil, Segoe UI Emoji" font-size="28px" fill="#1e1e1e" text-anchor="start" style="white-space: pre;" direction="ltr" dominant-baseline="text-before-edge">- isAnonymous</text><text x="0" y="245" font-family="Virgil, Segoe UI Emoji" font-size="28px" fill="#1e1e1e" text-anchor="start" style="white-space: pre;" direction="ltr" dominant-baseline="text-before-edge">- status</text><text x="0" y="280" font-family="Virgil, Segoe UI Emoji" font-size="28px" fill="#1e1e1e" text-anchor="start" style="white-space: pre;" direction="ltr" dominant-baseline="text-before-edge">- updatedAt</text><text x="0" y="315" font-family="Virgil, Segoe UI Emoji" font-size="28px" fill="#1e1e1e" text-anchor="start" style="white-space: pre;" direction="ltr" dominant-baseline="text-before-edge"></text><text x="0" y="350" font-family="Virgil, Segoe UI Emoji" font-size="28px" fill="#1e1e1e" text-anchor="start" style="white-space: pre;" direction="ltr" dominant-baseline="text-before-edge">shard by charityId</text></g><g transform="translate(2299.0985736607204 63.44518041004835) rotate(0 48.52397155761719 87.5)"><text x="0" y="0" font-family="Virgil, Segoe UI Emoji" font-size="28px" fill="#1e1e1e" text-anchor="start" style="white-space: pre;" direction="ltr" dominant-baseline="text-before-edge">User</text><text x="0" y="35" font-family="Virgil, Segoe UI Emoji" font-size="28px" fill="#1e1e1e" text-anchor="start" style="white-space: pre;" direction="ltr" dominant-baseline="text-before-edge">- id</text><text x="0" y="70" font-family="Virgil, Segoe UI Emoji" font-size="28px" fill="#1e1e1e" text-anchor="start" style="white-space: pre;" direction="ltr" dominant-baseline="text-before-edge">- phone</text><text x="0" y="105" font-family="Virgil, Segoe UI Emoji" font-size="28px" fill="#1e1e1e" text-anchor="start" style="white-space: pre;" direction="ltr" dominant-baseline="text-before-edge">- email</text><text x="0" y="140" font-family="Virgil, Segoe UI Emoji" font-size="28px" fill="#1e1e1e" text-anchor="start" style="white-space: pre;" direction="ltr" dominant-baseline="text-before-edge">- ...</text></g><g transform="translate(2530.848597926408 78.43043475457466) rotate(0 147.67193603515625 157.5)"><text x="0" y="0" font-family="Virgil, Segoe UI Emoji" font-size="28px" fill="#1e1e1e" text-anchor="start" style="white-space: pre;" direction="ltr" dominant-baseline="text-before-edge">Transactions</text><text x="0" y="35" font-family="Virgil, Segoe UI Emoji" font-size="28px" fill="#1e1e1e" text-anchor="start" style="white-space: pre;" direction="ltr" dominant-baseline="text-before-edge">- id</text><text x="0" y="70" font-family="Virgil, Segoe UI Emoji" font-size="28px" fill="#1e1e1e" text-anchor="start" style="white-space: pre;" direction="ltr" dominant-baseline="text-before-edge">- donationIntentId</text><text x="0" y="105" font-family="Virgil, Segoe UI Emoji" font-size="28px" fill="#1e1e1e" text-anchor="start" style="white-space: pre;" direction="ltr" dominant-baseline="text-before-edge">- status:</text><text x="0" y="140" font-family="Virgil, Segoe UI Emoji" font-size="28px" fill="#1e1e1e" text-anchor="start" style="white-space: pre;" direction="ltr" dominant-baseline="text-before-edge">success, fail, timeout</text><text x="0" y="175" font-family="Virgil, Segoe UI Emoji" font-size="28px" fill="#1e1e1e" text-anchor="start" style="white-space: pre;" direction="ltr" dominant-baseline="text-before-edge">- ...</text><text x="0" y="210" font-family="Virgil, Segoe UI Emoji" font-size="28px" fill="#1e1e1e" text-anchor="start" style="white-space: pre;" direction="ltr" dominant-baseline="text-before-edge"></text><text x="0" y="245" font-family="Virgil, Segoe UI Emoji" font-size="28px" fill="#1e1e1e" text-anchor="start" style="white-space: pre;" direction="ltr" dominant-baseline="text-before-edge">Co-locate w/</text><text x="0" y="280" font-family="Virgil, Segoe UI Emoji" font-size="28px" fill="#1e1e1e" text-anchor="start" style="white-space: pre;" direction="ltr" dominant-baseline="text-before-edge">DonationIntentId</text></g><g transform="translate(2075.101229517903 600.889439511347) rotate(0 158.409912109375 35)"><text x="0" y="0" font-family="Virgil, Segoe UI Emoji" font-size="28px" fill="#1e1e1e" text-anchor="start" style="white-space: pre;" direction="ltr" dominant-baseline="text-before-edge">Store idempotency keys</text><text x="0" y="35" font-family="Virgil, Segoe UI Emoji" font-size="28px" fill="#1e1e1e" text-anchor="start" style="white-space: pre;" direction="ltr" dominant-baseline="text-before-edge">with TTL</text></g><g stroke-linecap="round"><g transform="translate(2423.945966908989 1250.2863941056492) rotate(0 14.410806619950563 95.44816443869911)"><path d="M0.21 1.09 C5.21 33.25, 25.12 160.28, 29.71 191.93 M-1.13 0.62 C3.81 32.56, 24.02 158.4, 29.22 190.35" stroke="#1e1e1e" stroke-width="2" fill="none"></path></g><g transform="translate(2423.945966908989 1250.2863941056492) rotate(0 14.410806619950563 95.44816443869911)"><path d="M17.04 168.52 C22.03 175.99, 25.29 178.72, 29.22 190.35 M17.04 168.52 C20.56 175.37, 25.02 181.68, 29.22 190.35" stroke="#1e1e1e" stroke-width="2" fill="none"></path></g><g transform="translate(2423.945966908989 1250.2863941056492) rotate(0 14.410806619950563 95.44816443869911)"><path d="M33.92 165.8 C34.24 174.05, 32.85 177.52, 29.22 190.35 M33.92 165.8 C32.25 173.62, 31.52 180.77, 29.22 190.35" stroke="#1e1e1e" stroke-width="2" fill="none"></path></g></g><mask></mask><g stroke-linecap="round" transform="translate(2357.453771206082 1435.6601491808153) rotate(0 105.32141704937771 75.83315153838703)"><path d="M132.5 19 C150.99 28.88, 165.83 42.81, 184.14 57 M132.5 19 C152.68 33.26, 172.5 47.23, 184.14 57 M184.14 57 C212.34 75.59, 209.53 76.31, 184.14 95 M184.14 57 C209.79 75.8, 211.73 74.26, 184.14 95 M184.14 95 C173.06 101.92, 160.33 110.11, 132.5 132.67 M184.14 95 C165.31 109.42, 145.63 124.5, 132.5 132.67 M132.5 132.67 C105.13 151.1, 107.56 151.88, 79.5 132.67 M132.5 132.67 C104.67 153.7, 107.01 151.19, 79.5 132.67 M79.5 132.67 C59.95 119.88, 35.94 101.34, 26.5 95 M79.5 132.67 C62.77 119.67, 44.92 109.1, 26.5 95 M26.5 95 C0.55 75.27, -0.24 76.95, 26.5 57 M26.5 95 C0.5 73.81, -1.23 74.35, 26.5 57 M26.5 57 C43.37 45.58, 61.07 32.77, 79.5 19 M26.5 57 C40.92 46.1, 56.54 35.74, 79.5 19 M79.5 19 C105.02 1.66, 107.88 1.64, 132.5 19 M79.5 19 C108.25 -2.02, 106.98 1.1, 132.5 19" stroke="#1e1e1e" stroke-width="2" fill="none"></path></g><g transform="translate(2422.5464789373136 1494.0767249500088) rotate(0 40.06800079345703 17.5)"><text x="40.06800079345703" y="0" font-family="Virgil, Segoe UI Emoji" font-size="28px" fill="#1e1e1e" text-anchor="middle" style="white-space: pre;" direction="ltr" dominant-baseline="text-before-edge">Stripe</text></g><g mask="url(#mask-5EyIqE_Ie2JWlA3I4-1zd)" stroke-linecap="round"><g transform="translate(2884.0873981415907 763.3571504257411) rotate(0 35.88514473150394 82.95746270764107)"><path d="M-0.27 0.27 C11.78 27.72, 60.24 138.25, 72.35 165.7 M1.78 -0.63 C13.73 27.53, 60.01 139.38, 71.71 167.12" stroke="#1e1e1e" stroke-width="2" fill="none"></path></g><g transform="translate(2884.0873981415907 763.3571504257411) rotate(0 35.88514473150394 82.95746270764107)"><path d="M54.77 148.74 C60.49 155.29, 64.78 160.9, 71.71 167.12 M54.77 148.74 C58.15 153.04, 62.12 156.9, 71.71 167.12" stroke="#1e1e1e" stroke-width="2" fill="none"></path></g><g transform="translate(2884.0873981415907 763.3571504257411) rotate(0 35.88514473150394 82.95746270764107)"><path d="M70.55 142.15 C71.56 150.65, 71.1 158.25, 71.71 167.12 M70.55 142.15 C70.47 147.89, 70.91 153.23, 71.71 167.12" stroke="#1e1e1e" stroke-width="2" fill="none"></path></g></g><mask id="mask-5EyIqE_Ie2JWlA3I4-1zd"><rect x="0" y="0" fill="#fff" width="3055.8576876045986" height="1029.2720758410233"></rect><rect x="2891.020543208788" y="828.8146131333822" fill="#000" width="57.90399932861328" height="35" opacity="1"></rect></mask><g transform="translate(2891.020543208788 828.8146131333822) rotate(0 29.1047876462344 17.789640969289394)"><text x="28.95199966430664" y="0" font-family="Virgil, Segoe UI Emoji" font-size="28px" fill="#1e1e1e" text-anchor="middle" style="white-space: pre;" direction="ltr" dominant-baseline="text-before-edge">CDC</text></g><g stroke-linecap="round" transform="translate(2851.5781918523253 930.2720758410233) rotate(0 195.0726510457771 32.06308306678591)"><path d="M16.03 0 C139.8 -0.1, 265.27 -1.89, 374.11 0 M16.03 0 C129.38 -0.29, 241.59 0.52, 374.11 0 M374.11 0 C383.49 -0.15, 389.29 3.59, 390.15 16.03 M374.11 0 C383.89 1.9, 392.06 6.4, 390.15 16.03 M390.15 16.03 C390.91 26.77, 389.5 40.81, 390.15 48.09 M390.15 16.03 C390.4 25.79, 390.96 36.6, 390.15 48.09 M390.15 48.09 C391.93 60.66, 386.6 63.19, 374.11 64.13 M390.15 48.09 C388.21 59.25, 383.78 62.55, 374.11 64.13 M374.11 64.13 C265.24 62.65, 153.56 62.15, 16.03 64.13 M374.11 64.13 C249.37 61.5, 125.41 61.36, 16.03 64.13 M16.03 64.13 C4.6 63.82, 0.45 59.34, 0 48.09 M16.03 64.13 C5.01 63.77, 0.61 59.86, 0 48.09 M0 48.09 C1.15 39.28, 1.61 34.3, 0 16.03 M0 48.09 C0.11 36.32, 0.27 23.06, 0 16.03 M0 16.03 C-0.8 5.55, 7.09 -1.03, 16.03 0 M0 16.03 C-1.35 3.97, 5.84 -0.04, 16.03 0" stroke="#1e1e1e" stroke-width="2" fill="none"></path></g><g transform="translate(2966.06327087784 949.9065748905355) rotate(0 114.22594451904297 70)"><text x="0" y="0" font-family="Virgil, Segoe UI Emoji" font-size="28px" fill="#1e1e1e" text-anchor="start" style="white-space: pre;" direction="ltr" dominant-baseline="text-before-edge">Kafka</text><text x="0" y="35" font-family="Virgil, Segoe UI Emoji" font-size="28px" fill="#1e1e1e" text-anchor="start" style="white-space: pre;" direction="ltr" dominant-baseline="text-before-edge"></text><text x="0" y="70" font-family="Virgil, Segoe UI Emoji" font-size="28px" fill="#1e1e1e" text-anchor="start" style="white-space: pre;" direction="ltr" dominant-baseline="text-before-edge">Event stream</text><text x="0" y="105" font-family="Virgil, Segoe UI Emoji" font-size="28px" fill="#1e1e1e" text-anchor="start" style="white-space: pre;" direction="ltr" dominant-baseline="text-before-edge">for transactions</text></g><g stroke-linecap="round" transform="translate(3696.9114131083497 1714.4219584361508) rotate(0 200.21246426582843 31.680596869758574)"><path d="M15.84 0 C157.96 0.81, 299.58 1.86, 384.58 0 M15.84 0 C98.13 -1.22, 180.96 -1.71, 384.58 0 M384.58 0 C394.36 1.66, 402.09 6.2, 400.42 15.84 M384.58 0 C396.57 -0.55, 402.05 6.25, 400.42 15.84 M400.42 15.84 C400.55 22.81, 402.11 32.97, 400.42 47.52 M400.42 15.84 C401.63 25.62, 401.64 33.05, 400.42 47.52 M400.42 47.52 C398.75 58.49, 394.25 61.99, 384.58 63.36 M400.42 47.52 C400.59 56.76, 393.3 65.48, 384.58 63.36 M384.58 63.36 C264.46 63.36, 141.98 62.43, 15.84 63.36 M384.58 63.36 C300.17 61.13, 216.35 61.4, 15.84 63.36 M15.84 63.36 C4.99 63.05, 0.53 59.02, 0 47.52 M15.84 63.36 C4 63.71, -0.01 59.46, 0 47.52 M0 47.52 C1.38 41.52, -2.02 32.47, 0 15.84 M0 47.52 C-0.59 36.6, 0.69 24.95, 0 15.84 M0 15.84 C-1.17 4.09, 5.71 -0.04, 15.84 0 M0 15.84 C1.47 3.64, 7.08 2.21, 15.84 0" stroke="#1e1e1e" stroke-width="2" fill="none"></path></g><g transform="translate(3745.836097127374 1730.4116335693423) rotate(0 139.7199249267578 17.500000000000114)"><text x="0" y="0" font-family="Virgil, Segoe UI Emoji" font-size="28px" fill="#1e1e1e" text-anchor="start" style="white-space: pre;" direction="ltr" dominant-baseline="text-before-edge">Reconciliation worker</text></g><g stroke-linecap="round" transform="translate(3406.090121283296 215.1853648510288) rotate(0 162.95320509368298 26.78449691367939)"><path d="M13.39 0 C90.91 -2.28, 171.42 -2, 312.51 0 M13.39 0 C100.61 2.53, 189.02 2.26, 312.51 0 M312.51 0 C322.68 -0.48, 327.32 5.31, 325.91 13.39 M312.51 0 C320.44 -0.65, 327.7 4.71, 325.91 13.39 M325.91 13.39 C325.73 21.88, 327.42 28.16, 325.91 40.18 M325.91 13.39 C325.31 24.14, 325.7 33.8, 325.91 40.18 M325.91 40.18 C326.05 47.96, 319.84 55.41, 312.51 53.57 M325.91 40.18 C326.54 48.26, 321.17 54.66, 312.51 53.57 M312.51 53.57 C215.2 52.66, 118.61 51.85, 13.39 53.57 M312.51 53.57 C227.31 54.07, 142.52 54.52, 13.39 53.57 M13.39 53.57 C3.35 53.87, -0.01 50.3, 0 40.18 M13.39 53.57 C3.34 55.48, 2.16 50.99, 0 40.18 M0 40.18 C1.2 30.69, -0.83 18.07, 0 13.39 M0 40.18 C-0.82 31.27, -0.02 23.54, 0 13.39 M0 13.39 C1.28 3.04, 6.03 1.92, 13.39 0 M0 13.39 C-0.32 4.1, 5.76 -0.92, 13.39 0" stroke="#1e1e1e" stroke-width="2" fill="none"></path></g><g transform="translate(3473.852834059315 232.35260514089612) rotate(0 128.3099365234375 17.5)"><text x="0" y="0" font-family="Virgil, Segoe UI Emoji" font-size="28px" fill="#1e1e1e" text-anchor="start" style="white-space: pre;" direction="ltr" dominant-baseline="text-before-edge">Aggregation worker</text></g><g transform="translate(2285.470191147979 263.2748124317462) rotate(0 97.55196380615234 105)"><text x="0" y="0" font-family="Virgil, Segoe UI Emoji" font-size="28px" fill="#1e1e1e" text-anchor="start" style="white-space: pre;" direction="ltr" dominant-baseline="text-before-edge">Charity</text><text x="0" y="35" font-family="Virgil, Segoe UI Emoji" font-size="28px" fill="#1e1e1e" text-anchor="start" style="white-space: pre;" direction="ltr" dominant-baseline="text-before-edge">- id</text><text x="0" y="70" font-family="Virgil, Segoe UI Emoji" font-size="28px" fill="#1e1e1e" text-anchor="start" style="white-space: pre;" direction="ltr" dominant-baseline="text-before-edge">- phone</text><text x="0" y="105" font-family="Virgil, Segoe UI Emoji" font-size="28px" fill="#1e1e1e" text-anchor="start" style="white-space: pre;" direction="ltr" dominant-baseline="text-before-edge">- email</text><text x="0" y="140" font-family="Virgil, Segoe UI Emoji" font-size="28px" fill="#1e1e1e" text-anchor="start" style="white-space: pre;" direction="ltr" dominant-baseline="text-before-edge">- totalAmount</text><text x="0" y="175" font-family="Virgil, Segoe UI Emoji" font-size="28px" fill="#1e1e1e" text-anchor="start" style="white-space: pre;" direction="ltr" dominant-baseline="text-before-edge">- ...</text></g><g transform="translate(3375.1285914227797 79.55662194009722) rotate(0 517.3698120117185 35)"><text x="0" y="0" font-family="Virgil, Segoe UI Emoji" font-size="28px" fill="#1e1e1e" text-anchor="start" style="white-space: pre;" direction="ltr" dominant-baseline="text-before-edge">Accumulate aggregates for charity.</text><text x="0" y="35" font-family="Virgil, Segoe UI Emoji" font-size="28px" fill="#1e1e1e" text-anchor="start" style="white-space: pre;" direction="ltr" dominant-baseline="text-before-edge">This means the worker will need to acquire a lock before updating the row</text></g><g stroke-linecap="round"><g transform="translate(3694.6610403826157 1706.7400398837035) rotate(0 -569.6384721371103 -88.6529856080756)"><path d="M1 0.55 C-188.68 -29.21, -948.63 -148.04, -1138.53 -177.59 M0.06 -0.21 C-189.66 -29.88, -949.29 -146.43, -1139.09 -176.21" stroke="#1e1e1e" stroke-width="2" fill="none"></path></g><g transform="translate(3694.6610403826157 1706.7400398837035) rotate(0 -569.6384721371103 -88.6529856080756)"><path d="M-1114.56 -181.06 C-1120 -178.35, -1127.79 -176.91, -1139.09 -176.21 M-1114.56 -181.06 C-1122.2 -179.36, -1131.95 -176.92, -1139.09 -176.21" stroke="#1e1e1e" stroke-width="2" fill="none"></path></g><g transform="translate(3694.6610403826157 1706.7400398837035) rotate(0 -569.6384721371103 -88.6529856080756)"><path d="M-1117.18 -164.16 C-1122.07 -165.88, -1129.18 -168.84, -1139.09 -176.21 M-1117.18 -164.16 C-1123.85 -168.24, -1132.7 -171.59, -1139.09 -176.21" stroke="#1e1e1e" stroke-width="2" fill="none"></path></g></g><mask></mask><g stroke-linecap="round" transform="translate(3385.094632447223 654.5593352007586) rotate(0 153.8842041570399 26.099036975259537)"><path d="M13.05 0 C120.62 -0.26, 229.57 -2, 294.72 0 M13.05 0 C89.15 0.44, 166.46 -0.39, 294.72 0 M294.72 0 C305.41 1.27, 309.55 6.23, 307.77 13.05 M294.72 0 C305.49 -1.08, 305.84 4.82, 307.77 13.05 M307.77 13.05 C306.44 18.11, 309.43 26.93, 307.77 39.15 M307.77 13.05 C307.96 18.97, 307.2 26.09, 307.77 39.15 M307.77 39.15 C308.12 45.98, 302.68 51.89, 294.72 52.2 M307.77 39.15 C308.29 48.49, 303.08 51.84, 294.72 52.2 M294.72 52.2 C203 51, 111.72 50.25, 13.05 52.2 M294.72 52.2 C187.61 53.29, 79.33 54.33, 13.05 52.2 M13.05 52.2 C5.51 51.13, -0.8 48.05, 0 39.15 M13.05 52.2 C6.36 51.01, -1.35 46.48, 0 39.15 M0 39.15 C-1.42 32.32, 1.92 22.08, 0 13.05 M0 39.15 C-0.68 32.08, -0.79 24.59, 0 13.05 M0 13.05 C-0.68 2.9, 5.9 1.1, 13.05 0 M0 13.05 C1.07 4.97, 4.9 -1.91, 13.05 0" stroke="#1e1e1e" stroke-width="2" fill="none"></path></g><g transform="translate(3402.59893702585 664.5103872322113) rotate(0 136.6539306640625 17.5)"><text x="0" y="0" font-family="Virgil, Segoe UI Emoji" font-size="28px" fill="#1e1e1e" text-anchor="start" style="white-space: pre;" direction="ltr" dominant-baseline="text-before-edge">Notifications worker</text></g><g mask="url(#mask-1OxS7smMDvAFUsAN6vKkU)" stroke-linecap="round"><g transform="translate(3532.107879550943 724.3596115563068) rotate(0 -1008.6234098678337 489.96089492071326)"><path d="M-0.52 -0.34 C-136.92 162.92, -481.31 964.16, -817.55 980.05 C-1153.79 995.94, -1818.08 242.73, -2017.94 95 M1.4 -1.56 C-135.15 161.87, -481.26 965.86, -818.01 981.66 C-1154.75 997.45, -1819.37 241.05, -2019.07 93.22" stroke="#1e1e1e" stroke-width="2" fill="none"></path></g><g transform="translate(3532.107879550943 724.3596115563068) rotate(0 -1008.6234098678337 489.96089492071326)"><path d="M-1995.97 102.78 C-2005.14 100.69, -2012.92 94.44, -2019.07 93.22 M-1995.97 102.78 C-2003.99 99.65, -2013.07 96.24, -2019.07 93.22" stroke="#1e1e1e" stroke-width="2" fill="none"></path></g><g transform="translate(3532.107879550943 724.3596115563068) rotate(0 -1008.6234098678337 489.96089492071326)"><path d="M-2007.52 115.39 C-2012.46 108.68, -2015.96 97.74, -2019.07 93.22 M-2007.52 115.39 C-2011.11 107.39, -2015.7 99.07, -2019.07 93.22" stroke="#1e1e1e" stroke-width="2" fill="none"></path></g></g><mask id="mask-1OxS7smMDvAFUsAN6vKkU"><rect x="0" y="0" fill="#fff" width="5649.35469928661" height="1804.2814013977334"></rect><rect x="2615.5112469762553" y="1686.7814013977331" fill="#000" width="196.22398376464844" height="35" opacity="1"></rect></mask><g transform="translate(2615.511246976255 1686.7814013977334) rotate(0 -92.23485630960624 -472.2529626327347)"><text x="98.11199188232422" y="0" font-family="Virgil, Segoe UI Emoji" font-size="28px" fill="#1e1e1e" text-anchor="middle" style="white-space: pre;" direction="ltr" dominant-baseline="text-before-edge">notify success</text></g><g stroke-linecap="round"><g transform="translate(3430.8813295670293 717.7134827992857) rotate(0 -89.98832994544364 128.37585455123678)"><path d="M-0.69 1.06 C-30.76 43.79, -149.77 213.76, -179.45 256.5 M1.15 0.58 C-29.11 43.48, -150.11 215.41, -180.12 257.91" stroke="#1e1e1e" stroke-width="2" fill="none"></path></g><g transform="translate(3430.8813295670293 717.7134827992857) rotate(0 -89.98832994544364 128.37585455123678)"><path d="M-173.58 233.78 C-174.25 243.73, -178.92 253.97, -180.12 257.91 M-173.58 233.78 C-174.84 242.15, -178.96 251.59, -180.12 257.91" stroke="#1e1e1e" stroke-width="2" fill="none"></path></g><g transform="translate(3430.8813295670293 717.7134827992857) rotate(0 -89.98832994544364 128.37585455123678)"><path d="M-159.6 243.63 C-165.57 249.78, -175.51 256.3, -180.12 257.91 M-159.6 243.63 C-166.04 248.55, -175.24 254.41, -180.12 257.91" stroke="#1e1e1e" stroke-width="2" fill="none"></path></g></g><mask></mask><g stroke-linecap="round"><g transform="translate(3627.851412473909 280.96780535890184) rotate(0 -286.9428807855593 320.6565389598268)"><path d="M0.53 -0.25 C-94.81 106.58, -477.13 534.96, -572.69 642.08 M-0.66 -1.43 C-95.98 105.59, -477.61 533.34, -573.01 640.36" stroke="#1e1e1e" stroke-width="2" fill="none"></path></g><g transform="translate(3627.851412473909 280.96780535890184) rotate(0 -286.9428807855593 320.6565389598268)"><path d="M-563.75 617.13 C-566.21 624.8, -566.76 630.22, -573.01 640.36 M-563.75 617.13 C-568.03 626.44, -571.28 634.69, -573.01 640.36" stroke="#1e1e1e" stroke-width="2" fill="none"></path></g><g transform="translate(3627.851412473909 280.96780535890184) rotate(0 -286.9428807855593 320.6565389598268)"><path d="M-550.99 628.51 C-556.64 633.48, -560.28 636.14, -573.01 640.36 M-550.99 628.51 C-560.39 633.28, -568.67 637.05, -573.01 640.36" stroke="#1e1e1e" stroke-width="2" fill="none"></path></g></g><mask></mask><g stroke-linecap="round"><g transform="translate(3866.8868730680424 1709.3435416532134) rotate(0 -357.55693572328573 -356.85166972624324)"><path d="M1.2 0.76 C-23.11 -102.65, -26.1 -501.54, -145.31 -620.72 C-264.51 -739.89, -618.9 -698.81, -714.03 -714.27 M0.37 0.12 C-24.05 -103.58, -26.59 -503.35, -145.69 -622.25 C-264.79 -741.14, -619.11 -698.25, -714.23 -713.24" stroke="#1e1e1e" stroke-width="2" fill="none"></path></g><g transform="translate(3866.8868730680424 1709.3435416532134) rotate(0 -357.55693572328573 -356.85166972624324)"><path d="M-690.52 -721.16 C-697.42 -716.42, -704.97 -713.68, -714.23 -713.24 M-690.52 -721.16 C-697.03 -719.8, -702.52 -717.68, -714.23 -713.24" stroke="#1e1e1e" stroke-width="2" fill="none"></path></g><g transform="translate(3866.8868730680424 1709.3435416532134) rotate(0 -357.55693572328573 -356.85166972624324)"><path d="M-690.98 -704.07 C-697.68 -705.21, -705.07 -708.35, -714.23 -713.24 M-690.98 -704.07 C-697.23 -707.03, -702.6 -709.24, -714.23 -713.24" stroke="#1e1e1e" stroke-width="2" fill="none"></path></g></g><mask></mask><g transform="translate(2914.1844947734717 1119.3839832619863) rotate(0 374.93377685546875 157.5)"><text x="0" y="0" font-family="Virgil, Segoe UI Emoji" font-size="28px" fill="#1e1e1e" text-anchor="start" style="white-space: pre;" direction="ltr" dominant-baseline="text-before-edge">Partition messages by charityId to enable batching</text><text x="0" y="35" font-family="Virgil, Segoe UI Emoji" font-size="28px" fill="#1e1e1e" text-anchor="start" style="white-space: pre;" direction="ltr" dominant-baseline="text-before-edge">and preserve order for per-charity processing.</text><text x="0" y="70" font-family="Virgil, Segoe UI Emoji" font-size="28px" fill="#1e1e1e" text-anchor="start" style="white-space: pre;" direction="ltr" dominant-baseline="text-before-edge"></text><text x="0" y="105" font-family="Virgil, Segoe UI Emoji" font-size="28px" fill="#1e1e1e" text-anchor="start" style="white-space: pre;" direction="ltr" dominant-baseline="text-before-edge">Avoid donationIntentId as a key, it's high-cardinality</text><text x="0" y="140" font-family="Virgil, Segoe UI Emoji" font-size="28px" fill="#1e1e1e" text-anchor="start" style="white-space: pre;" direction="ltr" dominant-baseline="text-before-edge">and limits batching efficiency or implement a custom</text><text x="0" y="175" font-family="Virgil, Segoe UI Emoji" font-size="28px" fill="#1e1e1e" text-anchor="start" style="white-space: pre;" direction="ltr" dominant-baseline="text-before-edge">partitioner to spread load for popular charities.</text><text x="0" y="210" font-family="Virgil, Segoe UI Emoji" font-size="28px" fill="#1e1e1e" text-anchor="start" style="white-space: pre;" direction="ltr" dominant-baseline="text-before-edge"></text><text x="0" y="245" font-family="Virgil, Segoe UI Emoji" font-size="28px" fill="#1e1e1e" text-anchor="start" style="white-space: pre;" direction="ltr" dominant-baseline="text-before-edge">If charityId becomes a hot key, we will use a</text><text x="0" y="280" font-family="Virgil, Segoe UI Emoji" font-size="28px" fill="#1e1e1e" text-anchor="start" style="white-space: pre;" direction="ltr" dominant-baseline="text-before-edge">composite key like `${charityId}:${donationIntentId}`</text></g><g transform="translate(1378.9884102081257 882.6279373759476) rotate(0 260.4278869628906 105)"><text x="0" y="0" font-family="Virgil, Segoe UI Emoji" font-size="28px" fill="#1e1e1e" text-anchor="start" style="white-space: pre;" direction="ltr" dominant-baseline="text-before-edge">Perform request signature</text><text x="0" y="35" font-family="Virgil, Segoe UI Emoji" font-size="28px" fill="#1e1e1e" text-anchor="start" style="white-space: pre;" direction="ltr" dominant-baseline="text-before-edge">with timestamp, nonce, hmac+sha256</text><text x="0" y="70" font-family="Virgil, Segoe UI Emoji" font-size="28px" fill="#1e1e1e" text-anchor="start" style="white-space: pre;" direction="ltr" dominant-baseline="text-before-edge">encryption algorithm</text><text x="0" y="105" font-family="Virgil, Segoe UI Emoji" font-size="28px" fill="#1e1e1e" text-anchor="start" style="white-space: pre;" direction="ltr" dominant-baseline="text-before-edge"></text><text x="0" y="140" font-family="Virgil, Segoe UI Emoji" font-size="28px" fill="#1e1e1e" text-anchor="start" style="white-space: pre;" direction="ltr" dominant-baseline="text-before-edge">The none and timestamp will serve as</text><text x="0" y="175" font-family="Virgil, Segoe UI Emoji" font-size="28px" fill="#1e1e1e" text-anchor="start" style="white-space: pre;" direction="ltr" dominant-baseline="text-before-edge">idempotency keys</text></g><g transform="translate(3774.7759192739 1377.3939055792587) rotate(0 448.94967651367165 150)"><text x="0" y="0" font-family="Virgil, Segoe UI Emoji" font-size="20px" fill="#1e1e1e" text-anchor="start" style="white-space: pre;" direction="ltr" dominant-baseline="text-before-edge">Retry for failed / timeout transactions</text><text x="0" y="25" font-family="Virgil, Segoe UI Emoji" font-size="20px" fill="#1e1e1e" text-anchor="start" style="white-space: pre;" direction="ltr" dominant-baseline="text-before-edge">Build alarms or move to DLQ for repeated failures</text><text x="0" y="50" font-family="Virgil, Segoe UI Emoji" font-size="20px" fill="#1e1e1e" text-anchor="start" style="white-space: pre;" direction="ltr" dominant-baseline="text-before-edge"></text><text x="0" y="75" font-family="Virgil, Segoe UI Emoji" font-size="20px" fill="#1e1e1e" text-anchor="start" style="white-space: pre;" direction="ltr" dominant-baseline="text-before-edge"></text><text x="0" y="100" font-family="Virgil, Segoe UI Emoji" font-size="20px" fill="#1e1e1e" text-anchor="start" style="white-space: pre;" direction="ltr" dominant-baseline="text-before-edge">Reconciliation Worker Behavior:</text><text x="0" y="125" font-family="Virgil, Segoe UI Emoji" font-size="20px" fill="#1e1e1e" text-anchor="start" style="white-space: pre;" direction="ltr" dominant-baseline="text-before-edge">Periodically scans for:</text><text x="0" y="150" font-family="Virgil, Segoe UI Emoji" font-size="20px" fill="#1e1e1e" text-anchor="start" style="white-space: pre;" direction="ltr" dominant-baseline="text-before-edge">status = INITIATED or PENDING older than X minutes (e.g., 15 mins)</text><text x="0" y="175" font-family="Virgil, Segoe UI Emoji" font-size="20px" fill="#1e1e1e" text-anchor="start" style="white-space: pre;" direction="ltr" dominant-baseline="text-before-edge">Re-checks with Stripe:</text><text x="0" y="200" font-family="Virgil, Segoe UI Emoji" font-size="20px" fill="#1e1e1e" text-anchor="start" style="white-space: pre;" direction="ltr" dominant-baseline="text-before-edge">If still pending, logs and reschedules</text><text x="0" y="225" font-family="Virgil, Segoe UI Emoji" font-size="20px" fill="#1e1e1e" text-anchor="start" style="white-space: pre;" direction="ltr" dominant-baseline="text-before-edge">If failed, updates Transaction.status and emits donation.failed</text><text x="0" y="250" font-family="Virgil, Segoe UI Emoji" font-size="20px" fill="#1e1e1e" text-anchor="start" style="white-space: pre;" direction="ltr" dominant-baseline="text-before-edge">If retriable error (e.g., network timeout), retries max 3 times with exponential backoff</text><text x="0" y="275" font-family="Virgil, Segoe UI Emoji" font-size="20px" fill="#1e1e1e" text-anchor="start" style="white-space: pre;" direction="ltr" dominant-baseline="text-before-edge">If Stripe failure was due to idempotency race or ambiguity, flags for human/manual review</text></g><g stroke-linecap="round" transform="translate(4168.641099063283 760.2555638767315) rotate(0 89.46432287443804 81.5)"><path d="M93.66 0.33 C105.26 -0.41, 117.63 3.34, 128.45 8.19 C139.27 13.04, 150.88 21.03, 158.57 29.43 C166.25 37.84, 171.42 48.01, 174.55 58.63 C177.68 69.25, 179.03 82.18, 177.32 93.15 C175.62 104.12, 170.67 115.06, 164.32 124.43 C157.97 133.8, 149.08 143.17, 139.21 149.37 C129.35 155.57, 117.08 159.73, 105.13 161.64 C93.18 163.55, 79.25 163.57, 67.52 160.81 C55.79 158.05, 44.23 151.95, 34.74 145.08 C25.24 138.22, 16.21 129.39, 10.55 119.64 C4.9 109.89, 1.52 97.43, 0.81 86.56 C0.09 75.69, 2.07 64.57, 6.28 54.44 C10.48 44.31, 17.88 33.79, 26.03 25.77 C34.19 17.74, 43.47 10.47, 55.21 6.31 C66.95 2.15, 89.24 1.56, 96.45 0.8 C103.67 0.03, 98.65 0.3, 98.48 1.7 M66.91 2.68 C78.01 -1.23, 92.59 -2.03, 104.7 -0.03 C116.82 1.98, 129.65 8.54, 139.61 14.73 C149.56 20.92, 157.92 28.15, 164.44 37.09 C170.96 46.04, 176.96 57.36, 178.72 68.41 C180.48 79.46, 178.48 92.54, 175 103.37 C171.52 114.2, 165.46 125.11, 157.85 133.41 C150.23 141.71, 139.79 148.09, 129.31 153.15 C118.84 158.2, 106.93 162.94, 95.02 163.73 C83.11 164.52, 69.28 162.24, 57.83 157.9 C46.39 153.56, 35.1 145.56, 26.36 137.7 C17.62 129.84, 9.53 120.84, 5.41 110.73 C1.29 100.63, 1.12 88.39, 1.63 77.07 C2.13 65.75, 3.14 52.56, 8.45 42.81 C13.76 33.05, 23.84 25.21, 33.51 18.53 C43.18 11.85, 60.78 5.04, 66.46 2.75 C72.15 0.47, 67.29 3.61, 67.6 4.82" stroke="#1e1e1e" stroke-width="2" fill="none"></path></g><g transform="translate(4205.046592223249 789.1263612100279) rotate(0 53.29800033569336 52.5)"><text x="53.29800033569336" y="0" font-family="Virgil, Segoe UI Emoji" font-size="28px" fill="#1e1e1e" text-anchor="middle" style="white-space: pre;" direction="ltr" dominant-baseline="text-before-edge">S3 for </text><text x="53.29800033569336" y="35" font-family="Virgil, Segoe UI Emoji" font-size="28px" fill="#1e1e1e" text-anchor="middle" style="white-space: pre;" direction="ltr" dominant-baseline="text-before-edge">cold </text><text x="53.29800033569336" y="70" font-family="Virgil, Segoe UI Emoji" font-size="28px" fill="#1e1e1e" text-anchor="middle" style="white-space: pre;" direction="ltr" dominant-baseline="text-before-edge">storage</text></g><g stroke-linecap="round" transform="translate(3364.519191060431 854.8481997115462) rotate(0 169.891859289693 32.75853927715525)"><path d="M16.38 0 C112.06 2.17, 204.56 1.61, 323.4 0 M16.38 0 C122.66 1.59, 229.84 1.44, 323.4 0 M323.4 0 C333.58 -0.31, 340.24 6.02, 339.78 16.38 M323.4 0 C333.99 -0.36, 340.39 6.54, 339.78 16.38 M339.78 16.38 C341.03 23.41, 341.49 34.27, 339.78 49.14 M339.78 16.38 C340.53 29.38, 340.68 40.88, 339.78 49.14 M339.78 49.14 C338.98 60.26, 336.07 64.48, 323.4 65.52 M339.78 49.14 C338.44 58.68, 334.82 65.47, 323.4 65.52 M323.4 65.52 C213.02 67.05, 99.64 68.07, 16.38 65.52 M323.4 65.52 C243.07 66.5, 163.42 65.77, 16.38 65.52 M16.38 65.52 C7.01 66.62, 0.93 60.6, 0 49.14 M16.38 65.52 C6.01 63.6, -0.66 60.47, 0 49.14 M0 49.14 C-1.97 36.22, 0.69 22.82, 0 16.38 M0 49.14 C-0.52 38.81, 0.41 28.86, 0 16.38 M0 16.38 C-1.65 4.06, 3.56 1.32, 16.38 0 M0 16.38 C-1.07 5.32, 6 -1.11, 16.38 0" stroke="#1e1e1e" stroke-width="2" fill="none"></path></g><g transform="translate(3418.0133222637037 874.1693907788951) rotate(0 119.74195098876953 17.5)"><text x="0" y="0" font-family="Virgil, Segoe UI Emoji" font-size="28px" fill="#1e1e1e" text-anchor="start" style="white-space: pre;" direction="ltr" dominant-baseline="text-before-edge">Cold storage sink</text></g><g stroke-linecap="round"><g transform="translate(3360.829940632619 860.1267762481516) rotate(0 -179.19125874171164 -100.85837752754674)"><path d="M-0.14 0.57 C-59.88 -33.17, -298.31 -169, -358.12 -202.86 M-1.68 -0.18 C-61.58 -33.77, -299.19 -168.34, -358.93 -201.92" stroke="#1e1e1e" stroke-width="2" fill="none"></path></g><g transform="translate(3360.829940632619 860.1267762481516) rotate(0 -179.19125874171164 -100.85837752754674)"><path d="M-334.27 -197.82 C-341.38 -198.76, -352.31 -201.6, -358.93 -201.92 M-334.27 -197.82 C-340.28 -199.14, -345.31 -199.65, -358.93 -201.92" stroke="#1e1e1e" stroke-width="2" fill="none"></path></g><g transform="translate(3360.829940632619 860.1267762481516) rotate(0 -179.19125874171164 -100.85837752754674)"><path d="M-342.68 -182.93 C-346.98 -188.73, -355.16 -196.45, -358.93 -201.92 M-342.68 -182.93 C-346.79 -187.57, -349.91 -191.48, -358.93 -201.92" stroke="#1e1e1e" stroke-width="2" fill="none"></path></g></g><mask></mask><g stroke-linecap="round"><g transform="translate(3718.280093740259 869.5576646177797) rotate(0 226.55849099516672 -15.608478334920278)"><path d="M0.26 -1.14 C75.7 -6.59, 376.97 -26.88, 452.48 -32.08 M-1.06 0.87 C74.79 -4.49, 379.23 -25.58, 454.85 -30.99" stroke="#1e1e1e" stroke-width="2" fill="none"></path></g><g transform="translate(3718.280093740259 869.5576646177797) rotate(0 226.55849099516672 -15.608478334920278)"><path d="M432.02 -20.82 C436.64 -24.86, 443.7 -26.38, 454.85 -30.99 M432.02 -20.82 C437 -22.6, 441.34 -25.14, 454.85 -30.99" stroke="#1e1e1e" stroke-width="2" fill="none"></path></g><g transform="translate(3718.280093740259 869.5576646177797) rotate(0 226.55849099516672 -15.608478334920278)"><path d="M430.82 -37.87 C435.87 -37.01, 443.27 -33.61, 454.85 -30.99 M430.82 -37.87 C435.98 -36.14, 440.57 -35.15, 454.85 -30.99" stroke="#1e1e1e" stroke-width="2" fill="none"></path></g></g><mask></mask><g transform="translate(4231.665268635479 942.9321688457906) rotate(0 155.53993225097656 35)"><text x="0" y="0" font-family="Virgil, Segoe UI Emoji" font-size="28px" fill="#1e1e1e" text-anchor="start" style="white-space: pre;" direction="ltr" dominant-baseline="text-before-edge">For older transactions</text><text x="0" y="35" font-family="Virgil, Segoe UI Emoji" font-size="28px" fill="#1e1e1e" text-anchor="start" style="white-space: pre;" direction="ltr" dominant-baseline="text-before-edge">and donationIntents</text></g><g transform="translate(3753.5783573765043 129.74073424390292) rotate(0 512.2318115234373 245)"><text x="0" y="0" font-family="Virgil, Segoe UI Emoji" font-size="28px" fill="#1e1e1e" text-anchor="start" style="white-space: pre;" direction="ltr" dominant-baseline="text-before-edge">Optimistic lock acquistion</text><text x="0" y="35" font-family="Virgil, Segoe UI Emoji" font-size="28px" fill="#1e1e1e" text-anchor="start" style="white-space: pre;" direction="ltr" dominant-baseline="text-before-edge">We use optimistic locking via a version column on the Charity row</text><text x="0" y="70" font-family="Virgil, Segoe UI Emoji" font-size="28px" fill="#1e1e1e" text-anchor="start" style="white-space: pre;" direction="ltr" dominant-baseline="text-before-edge">(or totalAmount record).</text><text x="0" y="105" font-family="Virgil, Segoe UI Emoji" font-size="28px" fill="#1e1e1e" text-anchor="start" style="white-space: pre;" direction="ltr" dominant-baseline="text-before-edge"></text><text x="0" y="140" font-family="Virgil, Segoe UI Emoji" font-size="28px" fill="#1e1e1e" text-anchor="start" style="white-space: pre;" direction="ltr" dominant-baseline="text-before-edge">Here’s how it works:</text><text x="0" y="175" font-family="Virgil, Segoe UI Emoji" font-size="28px" fill="#1e1e1e" text-anchor="start" style="white-space: pre;" direction="ltr" dominant-baseline="text-before-edge">1) Aggregation worker reads the current totalAmount and version (e.g., v1)</text><text x="0" y="210" font-family="Virgil, Segoe UI Emoji" font-size="28px" fill="#1e1e1e" text-anchor="start" style="white-space: pre;" direction="ltr" dominant-baseline="text-before-edge">2) Computes the new total</text><text x="0" y="245" font-family="Virgil, Segoe UI Emoji" font-size="28px" fill="#1e1e1e" text-anchor="start" style="white-space: pre;" direction="ltr" dominant-baseline="text-before-edge">3) Attempts UPDATE ... WHERE id = $id AND version = v1</text><text x="0" y="280" font-family="Virgil, Segoe UI Emoji" font-size="28px" fill="#1e1e1e" text-anchor="start" style="white-space: pre;" direction="ltr" dominant-baseline="text-before-edge">4) If 0 rows affected, someone else already updated → retry</text><text x="0" y="315" font-family="Virgil, Segoe UI Emoji" font-size="28px" fill="#1e1e1e" text-anchor="start" style="white-space: pre;" direction="ltr" dominant-baseline="text-before-edge"></text><text x="0" y="350" font-family="Virgil, Segoe UI Emoji" font-size="28px" fill="#1e1e1e" text-anchor="start" style="white-space: pre;" direction="ltr" dominant-baseline="text-before-edge">Why we prefer optimistic over pessimistic:</text><text x="0" y="385" font-family="Virgil, Segoe UI Emoji" font-size="28px" fill="#1e1e1e" text-anchor="start" style="white-space: pre;" direction="ltr" dominant-baseline="text-before-edge">1) Lower risk of deadlocks</text><text x="0" y="420" font-family="Virgil, Segoe UI Emoji" font-size="28px" fill="#1e1e1e" text-anchor="start" style="white-space: pre;" direction="ltr" dominant-baseline="text-before-edge">2) More scalable under low-to-moderate contention</text><text x="0" y="455" font-family="Virgil, Segoe UI Emoji" font-size="28px" fill="#1e1e1e" text-anchor="start" style="white-space: pre;" direction="ltr" dominant-baseline="text-before-edge">3) Avoids holding locks for the entire update duration</text></g><g stroke-linecap="round"><g transform="translate(2488.548504526953 1438.8491699194772) rotate(0 -14.064875806512646 -96.88186805546104)"><path d="M-0.45 -0.19 C-5.12 -32.24, -23.21 -161.14, -27.86 -193.43 M1.52 -1.33 C-3.31 -33.66, -23.55 -163.48, -28.66 -195.38" stroke="#1e1e1e" stroke-width="2" fill="none"></path></g><g transform="translate(2488.548504526953 1438.8491699194772) rotate(0 -14.064875806512646 -96.88186805546104)"><path d="M-16.56 -173.5 C-20.51 -180.04, -23.48 -187.73, -28.66 -195.38 M-16.56 -173.5 C-20.61 -179.51, -23.51 -185.29, -28.66 -195.38" stroke="#1e1e1e" stroke-width="2" fill="none"></path></g><g transform="translate(2488.548504526953 1438.8491699194772) rotate(0 -14.064875806512646 -96.88186805546104)"><path d="M-33.45 -170.84 C-32.01 -178.16, -29.62 -186.7, -28.66 -195.38 M-33.45 -170.84 C-32.71 -177.69, -30.8 -184.22, -28.66 -195.38" stroke="#1e1e1e" stroke-width="2" fill="none"></path></g></g><mask></mask><g transform="translate(2493.875043556172 1272.7332636702026) rotate(0 148.83392333984375 52.5)"><text x="0" y="0" font-family="Virgil, Segoe UI Emoji" font-size="28px" fill="#1e1e1e" text-anchor="start" style="white-space: pre;" direction="ltr" dominant-baseline="text-before-edge">Webhook validation:</text><text x="0" y="35" font-family="Virgil, Segoe UI Emoji" font-size="28px" fill="#1e1e1e" text-anchor="start" style="white-space: pre;" direction="ltr" dominant-baseline="text-before-edge">- signature validation</text><text x="0" y="70" font-family="Virgil, Segoe UI Emoji" font-size="28px" fill="#1e1e1e" text-anchor="start" style="white-space: pre;" direction="ltr" dominant-baseline="text-before-edge">- Event parsing</text></g><g transform="translate(2971.2120487940556 1878.7751817278681) rotate(0 902.1177368164062 157.5)"><text x="0" y="0" font-family="Virgil, Segoe UI Emoji" font-size="28px" fill="#1e1e1e" text-anchor="start" style="white-space: pre;" direction="ltr" dominant-baseline="text-before-edge">What Happens if two donations come in the same second?</text><text x="0" y="35" font-family="Virgil, Segoe UI Emoji" font-size="28px" fill="#1e1e1e" text-anchor="start" style="white-space: pre;" direction="ltr" dominant-baseline="text-before-edge">This is exactly where conflict handling kicks in.</text><text x="0" y="70" font-family="Virgil, Segoe UI Emoji" font-size="28px" fill="#1e1e1e" text-anchor="start" style="white-space: pre;" direction="ltr" dominant-baseline="text-before-edge">- With optimistic locking in aggregation worker, one update will succeed, and the other will retry with the new version.</text><text x="0" y="105" font-family="Virgil, Segoe UI Emoji" font-size="28px" fill="#1e1e1e" text-anchor="start" style="white-space: pre;" direction="ltr" dominant-baseline="text-before-edge">- Kafka ensures per-charity message ordering within a partition if partitioned by charityId, which helps serialize those updates.</text><text x="0" y="140" font-family="Virgil, Segoe UI Emoji" font-size="28px" fill="#1e1e1e" text-anchor="start" style="white-space: pre;" direction="ltr" dominant-baseline="text-before-edge">- To further reduce collision probability, we batch updates — the Aggregation Worker can prefetch and group all Kafka messages</text><text x="0" y="175" font-family="Virgil, Segoe UI Emoji" font-size="28px" fill="#1e1e1e" text-anchor="start" style="white-space: pre;" direction="ltr" dominant-baseline="text-before-edge">per charity every 1–2 seconds before updating.</text><text x="0" y="210" font-family="Virgil, Segoe UI Emoji" font-size="28px" fill="#1e1e1e" text-anchor="start" style="white-space: pre;" direction="ltr" dominant-baseline="text-before-edge"></text><text x="0" y="245" font-family="Virgil, Segoe UI Emoji" font-size="28px" fill="#1e1e1e" text-anchor="start" style="white-space: pre;" direction="ltr" dominant-baseline="text-before-edge">If the system evolves for even larger scale, we can look into CRDTs to avoid conflicts here.</text><text x="0" y="280" font-family="Virgil, Segoe UI Emoji" font-size="28px" fill="#1e1e1e" text-anchor="start" style="white-space: pre;" direction="ltr" dominant-baseline="text-before-edge">That will help gain latency and availability on a global level, but lose some consistency. </text></g><g transform="translate(1357.8064856018389 127.11151915265248) rotate(0 401.2957458496095 30)"><text x="0" y="0" font-family="Virgil, Segoe UI Emoji" font-size="16px" fill="#1e1e1e" text-anchor="start" style="white-space: pre;" direction="ltr" dominant-baseline="text-before-edge">The system is designed around event-driven, idempotent donation intents</text><text x="0" y="20" font-family="Virgil, Segoe UI Emoji" font-size="16px" fill="#1e1e1e" text-anchor="start" style="white-space: pre;" direction="ltr" dominant-baseline="text-before-edge">that flow through Kafka to asynchronous workers, enabling reliable, scalable,</text><text x="0" y="40" font-family="Virgil, Segoe UI Emoji" font-size="16px" fill="#1e1e1e" text-anchor="start" style="white-space: pre;" direction="ltr" dominant-baseline="text-before-edge">and eventually consistent updates to donation aggregates without blocking the user or payment flow</text></g><g transform="translate(1337.424652317083 1438.0790855729533) rotate(0 748.7896728515626 385)"><text x="0" y="0" font-family="Virgil, Segoe UI Emoji" font-size="28px" fill="#1e1e1e" text-anchor="start" style="white-space: pre;" direction="ltr" dominant-baseline="text-before-edge">Failed payments handling</text><text x="0" y="35" font-family="Virgil, Segoe UI Emoji" font-size="28px" fill="#1e1e1e" text-anchor="start" style="white-space: pre;" direction="ltr" dominant-baseline="text-before-edge">1) Immediate failures (sync - card declined, insufficient funds etc)</text><text x="0" y="70" font-family="Virgil, Segoe UI Emoji" font-size="28px" fill="#1e1e1e" text-anchor="start" style="white-space: pre;" direction="ltr" dominant-baseline="text-before-edge">- Stripe API returns an error immediately on transaction creation</text><text x="0" y="105" font-family="Virgil, Segoe UI Emoji" font-size="28px" fill="#1e1e1e" text-anchor="start" style="white-space: pre;" direction="ltr" dominant-baseline="text-before-edge">- Transaction Service:</text><text x="0" y="140" font-family="Virgil, Segoe UI Emoji" font-size="28px" fill="#1e1e1e" text-anchor="start" style="white-space: pre;" direction="ltr" dominant-baseline="text-before-edge">    Logs failure with status = FAILED</text><text x="0" y="175" font-family="Virgil, Segoe UI Emoji" font-size="28px" fill="#1e1e1e" text-anchor="start" style="white-space: pre;" direction="ltr" dominant-baseline="text-before-edge">    Publishes transaction.failed event to Kafka</text><text x="0" y="210" font-family="Virgil, Segoe UI Emoji" font-size="28px" fill="#1e1e1e" text-anchor="start" style="white-space: pre;" direction="ltr" dominant-baseline="text-before-edge">- Kafka: donation.failed → triggers:</text><text x="0" y="245" font-family="Virgil, Segoe UI Emoji" font-size="28px" fill="#1e1e1e" text-anchor="start" style="white-space: pre;" direction="ltr" dominant-baseline="text-before-edge">    Notification Worker: informs donor of failure</text><text x="0" y="280" font-family="Virgil, Segoe UI Emoji" font-size="28px" fill="#1e1e1e" text-anchor="start" style="white-space: pre;" direction="ltr" dominant-baseline="text-before-edge">    Reconciliation Worker: optionally retries payment or flags for support</text><text x="0" y="315" font-family="Virgil, Segoe UI Emoji" font-size="28px" fill="#1e1e1e" text-anchor="start" style="white-space: pre;" direction="ltr" dominant-baseline="text-before-edge"></text><text x="0" y="350" font-family="Virgil, Segoe UI Emoji" font-size="28px" fill="#1e1e1e" text-anchor="start" style="white-space: pre;" direction="ltr" dominant-baseline="text-before-edge">2) Delayed failures (async failures - web hook based, 3DS auth timeout, fraud detection, expired payment)</text><text x="0" y="385" font-family="Virgil, Segoe UI Emoji" font-size="28px" fill="#1e1e1e" text-anchor="start" style="white-space: pre;" direction="ltr" dominant-baseline="text-before-edge">- Stripe sends a webhook with failed status (e.g., payment_intent.payment_failed)</text><text x="0" y="420" font-family="Virgil, Segoe UI Emoji" font-size="28px" fill="#1e1e1e" text-anchor="start" style="white-space: pre;" direction="ltr" dominant-baseline="text-before-edge">- Webhook Listener/Transaction Service:</text><text x="0" y="455" font-family="Virgil, Segoe UI Emoji" font-size="28px" fill="#1e1e1e" text-anchor="start" style="white-space: pre;" direction="ltr" dominant-baseline="text-before-edge">        Validates signature</text><text x="0" y="490" font-family="Virgil, Segoe UI Emoji" font-size="28px" fill="#1e1e1e" text-anchor="start" style="white-space: pre;" direction="ltr" dominant-baseline="text-before-edge">        Parses the event</text><text x="0" y="525" font-family="Virgil, Segoe UI Emoji" font-size="28px" fill="#1e1e1e" text-anchor="start" style="white-space: pre;" direction="ltr" dominant-baseline="text-before-edge">        Looks up donationIntentId via metadata</text><text x="0" y="560" font-family="Virgil, Segoe UI Emoji" font-size="28px" fill="#1e1e1e" text-anchor="start" style="white-space: pre;" direction="ltr" dominant-baseline="text-before-edge">        Updates Transaction.status = FAILED</text><text x="0" y="595" font-family="Virgil, Segoe UI Emoji" font-size="28px" fill="#1e1e1e" text-anchor="start" style="white-space: pre;" direction="ltr" dominant-baseline="text-before-edge">        Publishes donation.failed to Kafka</text><text x="0" y="630" font-family="Virgil, Segoe UI Emoji" font-size="28px" fill="#1e1e1e" text-anchor="start" style="white-space: pre;" direction="ltr" dominant-baseline="text-before-edge">- Same downstream consumers kick in:</text><text x="0" y="665" font-family="Virgil, Segoe UI Emoji" font-size="28px" fill="#1e1e1e" text-anchor="start" style="white-space: pre;" direction="ltr" dominant-baseline="text-before-edge">        Notification worker alerts the user</text><text x="0" y="700" font-family="Virgil, Segoe UI Emoji" font-size="28px" fill="#1e1e1e" text-anchor="start" style="white-space: pre;" direction="ltr" dominant-baseline="text-before-edge">        Reconciliation worker schedules retry (if safe)</text><text x="0" y="735" font-family="Virgil, Segoe UI Emoji" font-size="28px" fill="#1e1e1e" text-anchor="start" style="white-space: pre;" direction="ltr" dominant-baseline="text-before-edge">        Aggregation worker ignores this event (no amount added)</text></g><g transform="translate(78.25491219465664 109.79149771131341) rotate(0 541.28173828125 70.00000000000003)"><text x="0" y="0" font-family="Virgil, Segoe UI Emoji" font-size="28px" fill="#1e1e1e" text-anchor="start" style="white-space: pre;" direction="ltr" dominant-baseline="text-before-edge">Users can donate to a listed charity via a secure payment flow</text><text x="0" y="35" font-family="Virgil, Segoe UI Emoji" font-size="28px" fill="#1e1e1e" text-anchor="start" style="white-space: pre;" direction="ltr" dominant-baseline="text-before-edge">Users can view a list of charities and filter by category or keyword</text><text x="0" y="70" font-family="Virgil, Segoe UI Emoji" font-size="28px" fill="#1e1e1e" text-anchor="start" style="white-space: pre;" direction="ltr" dominant-baseline="text-before-edge">Users can view their own donation history (optional anonymous flow supported)</text><text x="0" y="105" font-family="Virgil, Segoe UI Emoji" font-size="28px" fill="#1e1e1e" text-anchor="start" style="white-space: pre;" direction="ltr" dominant-baseline="text-before-edge">System tracks and displays total donations per charity</text></g><g transform="translate(72.82153250707216 594.3454609997887) rotate(0 472.7195739746094 50)"><text x="0" y="0" font-family="Virgil, Segoe UI Emoji" font-size="20px" fill="#1e1e1e" text-anchor="start" style="white-space: pre;" direction="ltr" dominant-baseline="text-before-edge">Security: All payment flows are PCI-compliant; no sensitive card data is stored</text><text x="0" y="25" font-family="Virgil, Segoe UI Emoji" font-size="20px" fill="#1e1e1e" text-anchor="start" style="white-space: pre;" direction="ltr" dominant-baseline="text-before-edge">Reliability: System handles retries, webhooks, and failures using idempotency and reconciliation</text><text x="0" y="50" font-family="Virgil, Segoe UI Emoji" font-size="20px" fill="#1e1e1e" text-anchor="start" style="white-space: pre;" direction="ltr" dominant-baseline="text-before-edge">Performance: Supports 10–20 transactions per second with fast response times</text><text x="0" y="75" font-family="Virgil, Segoe UI Emoji" font-size="20px" fill="#1e1e1e" text-anchor="start" style="white-space: pre;" direction="ltr" dominant-baseline="text-before-edge">Availability &gt; Consistency: Donations should not fail even if aggregates are eventually updated</text></g><g transform="translate(81.60324923583624 925.4383282472425) rotate(0 543.2977294921875 140)"><text x="0" y="0" font-family="Virgil, Segoe UI Emoji" font-size="28px" fill="#1e1e1e" text-anchor="start" style="white-space: pre;" direction="ltr" dominant-baseline="text-before-edge">User</text><text x="0" y="35" font-family="Virgil, Segoe UI Emoji" font-size="28px" fill="#1e1e1e" text-anchor="start" style="white-space: pre;" direction="ltr" dominant-baseline="text-before-edge">Charity</text><text x="0" y="70" font-family="Virgil, Segoe UI Emoji" font-size="28px" fill="#1e1e1e" text-anchor="start" style="white-space: pre;" direction="ltr" dominant-baseline="text-before-edge">DonationIntent</text><text x="0" y="105" font-family="Virgil, Segoe UI Emoji" font-size="28px" fill="#1e1e1e" text-anchor="start" style="white-space: pre;" direction="ltr" dominant-baseline="text-before-edge">Transaction</text><text x="0" y="140" font-family="Virgil, Segoe UI Emoji" font-size="28px" fill="#1e1e1e" text-anchor="start" style="white-space: pre;" direction="ltr" dominant-baseline="text-before-edge"></text><text x="0" y="175" font-family="Virgil, Segoe UI Emoji" font-size="28px" fill="#1e1e1e" text-anchor="start" style="white-space: pre;" direction="ltr" dominant-baseline="text-before-edge"></text><text x="0" y="210" font-family="Virgil, Segoe UI Emoji" font-size="28px" fill="#1e1e1e" text-anchor="start" style="white-space: pre;" direction="ltr" dominant-baseline="text-before-edge">Do we need to account for any donation campaigns with start and end times?</text><text x="0" y="245" font-family="Virgil, Segoe UI Emoji" font-size="28px" fill="#1e1e1e" text-anchor="start" style="white-space: pre;" direction="ltr" dominant-baseline="text-before-edge">We could even store web hook events as a separate core entity if needed</text></g><g transform="translate(73.61109150380632 1408.8892359778372) rotate(0 423.7897033691406 312.5000000000001)"><text x="0" y="0" font-family="Virgil, Segoe UI Emoji" font-size="20px" fill="#1e1e1e" text-anchor="start" style="white-space: pre;" direction="ltr" dominant-baseline="text-before-edge">// donation APIs</text><text x="0" y="25" font-family="Virgil, Segoe UI Emoji" font-size="20px" fill="#1e1e1e" text-anchor="start" style="white-space: pre;" direction="ltr" dominant-baseline="text-before-edge">POST /donation {</text><text x="0" y="50" font-family="Virgil, Segoe UI Emoji" font-size="20px" fill="#1e1e1e" text-anchor="start" style="white-space: pre;" direction="ltr" dominant-baseline="text-before-edge">  donationAmount,</text><text x="0" y="75" font-family="Virgil, Segoe UI Emoji" font-size="20px" fill="#1e1e1e" text-anchor="start" style="white-space: pre;" direction="ltr" dominant-baseline="text-before-edge">  currency,</text><text x="0" y="100" font-family="Virgil, Segoe UI Emoji" font-size="20px" fill="#1e1e1e" text-anchor="start" style="white-space: pre;" direction="ltr" dominant-baseline="text-before-edge">  charityId</text><text x="0" y="125" font-family="Virgil, Segoe UI Emoji" font-size="20px" fill="#1e1e1e" text-anchor="start" style="white-space: pre;" direction="ltr" dominant-baseline="text-before-edge">}</text><text x="0" y="150" font-family="Virgil, Segoe UI Emoji" font-size="20px" fill="#1e1e1e" text-anchor="start" style="white-space: pre;" direction="ltr" dominant-baseline="text-before-edge">Headers:</text><text x="0" y="175" font-family="Virgil, Segoe UI Emoji" font-size="20px" fill="#1e1e1e" text-anchor="start" style="white-space: pre;" direction="ltr" dominant-baseline="text-before-edge">Authorization: Bearer &lt;JWT&gt;</text><text x="0" y="200" font-family="Virgil, Segoe UI Emoji" font-size="20px" fill="#1e1e1e" text-anchor="start" style="white-space: pre;" direction="ltr" dominant-baseline="text-before-edge">Idempotency-Key: &lt;UUID&gt;</text><text x="0" y="225" font-family="Virgil, Segoe UI Emoji" font-size="20px" fill="#1e1e1e" text-anchor="start" style="white-space: pre;" direction="ltr" dominant-baseline="text-before-edge">--------&gt; 200, donationId, status</text><text x="0" y="250" font-family="Virgil, Segoe UI Emoji" font-size="20px" fill="#1e1e1e" text-anchor="start" style="white-space: pre;" direction="ltr" dominant-baseline="text-before-edge"></text><text x="0" y="275" font-family="Virgil, Segoe UI Emoji" font-size="20px" fill="#1e1e1e" text-anchor="start" style="white-space: pre;" direction="ltr" dominant-baseline="text-before-edge">GET /donations/donationId ----&gt; 200, donations[]</text><text x="0" y="300" font-family="Virgil, Segoe UI Emoji" font-size="20px" fill="#1e1e1e" text-anchor="start" style="white-space: pre;" direction="ltr" dominant-baseline="text-before-edge">GET /users/me/donation ---&gt; 200, donations[] --- we can expand this to reflect for</text><text x="0" y="325" font-family="Virgil, Segoe UI Emoji" font-size="20px" fill="#1e1e1e" text-anchor="start" style="white-space: pre;" direction="ltr" dominant-baseline="text-before-edge">more users than just "me" if we are building an admin tool</text><text x="0" y="350" font-family="Virgil, Segoe UI Emoji" font-size="20px" fill="#1e1e1e" text-anchor="start" style="white-space: pre;" direction="ltr" dominant-baseline="text-before-edge"></text><text x="0" y="375" font-family="Virgil, Segoe UI Emoji" font-size="20px" fill="#1e1e1e" text-anchor="start" style="white-space: pre;" direction="ltr" dominant-baseline="text-before-edge"></text><text x="0" y="400" font-family="Virgil, Segoe UI Emoji" font-size="20px" fill="#1e1e1e" text-anchor="start" style="white-space: pre;" direction="ltr" dominant-baseline="text-before-edge">// charities API</text><text x="0" y="425" font-family="Virgil, Segoe UI Emoji" font-size="20px" fill="#1e1e1e" text-anchor="start" style="white-space: pre;" direction="ltr" dominant-baseline="text-before-edge">GET /charities/charityId </text><text x="0" y="450" font-family="Virgil, Segoe UI Emoji" font-size="20px" fill="#1e1e1e" text-anchor="start" style="white-space: pre;" direction="ltr" dominant-baseline="text-before-edge"></text><text x="0" y="475" font-family="Virgil, Segoe UI Emoji" font-size="20px" fill="#1e1e1e" text-anchor="start" style="white-space: pre;" direction="ltr" dominant-baseline="text-before-edge">// transactions and web hook APIs</text><text x="0" y="500" font-family="Virgil, Segoe UI Emoji" font-size="20px" fill="#1e1e1e" text-anchor="start" style="white-space: pre;" direction="ltr" dominant-baseline="text-before-edge">POST /transactions  ----&gt; internal API</text><text x="0" y="525" font-family="Virgil, Segoe UI Emoji" font-size="20px" fill="#1e1e1e" text-anchor="start" style="white-space: pre;" direction="ltr" dominant-baseline="text-before-edge">POST /webhook/stripe</text><text x="0" y="550" font-family="Virgil, Segoe UI Emoji" font-size="20px" fill="#1e1e1e" text-anchor="start" style="white-space: pre;" direction="ltr" dominant-baseline="text-before-edge">Headers:</text><text x="0" y="575" font-family="Virgil, Segoe UI Emoji" font-size="20px" fill="#1e1e1e" text-anchor="start" style="white-space: pre;" direction="ltr" dominant-baseline="text-before-edge">Stripe-Signature: HMAC header</text><text x="0" y="600" font-family="Virgil, Segoe UI Emoji" font-size="20px" fill="#1e1e1e" text-anchor="start" style="white-space: pre;" direction="ltr" dominant-baseline="text-before-edge"></text></g><g stroke-linecap="round"><g transform="translate(3420.418204340202 284.6890740275894) rotate(0 -209.5330145644757 140.47367728109282)"><path d="M-1.03 1.06 C-70.62 47.83, -349.09 233.51, -418.74 280.28 M0.64 0.57 C-68.98 47.52, -349.47 234.95, -419.51 281.47" stroke="#1e1e1e" stroke-width="2" fill="none"></path></g><g transform="translate(3420.418204340202 284.6890740275894) rotate(0 -209.5330145644757 140.47367728109282)"><path d="M-404.71 261.32 C-405.99 265.81, -411.85 269.54, -419.51 281.47 M-404.71 261.32 C-410.26 268.73, -416.17 276.16, -419.51 281.47" stroke="#1e1e1e" stroke-width="2" fill="none"></path></g><g transform="translate(3420.418204340202 284.6890740275894) rotate(0 -209.5330145644757 140.47367728109282)"><path d="M-395.22 275.55 C-398.38 277.09, -406.14 277.95, -419.51 281.47 M-395.22 275.55 C-404.21 277.84, -413.54 280.14, -419.51 281.47" stroke="#1e1e1e" stroke-width="2" fill="none"></path></g></g><mask></mask><g stroke-linecap="round" transform="translate(2550.428990429761 954.0574674500417) rotate(0 66.71282200946666 63.44474743602166)"><path d="M47.9 2.91 C57.2 -0.59, 70.34 -1.64, 80.64 0.39 C90.94 2.43, 101.6 8.7, 109.7 15.1 C117.8 21.5, 125.18 29.69, 129.25 38.81 C133.31 47.93, 135.17 59.94, 134.09 69.81 C133 79.69, 128.44 89.93, 122.72 98.07 C117 106.2, 108.64 113.8, 99.78 118.63 C90.92 123.46, 80.03 126.76, 69.56 127.05 C59.1 127.34, 46.57 124.65, 36.99 120.36 C27.41 116.08, 18.17 109.05, 12.08 101.34 C5.99 93.63, 1.77 83.83, 0.45 74.09 C-0.88 64.35, 0.69 52.47, 4.13 42.89 C7.57 33.3, 12.54 23.46, 21.08 16.57 C29.63 9.68, 48.79 4.14, 55.4 1.54 C62.02 -1.06, 60.84 0.1, 60.8 0.97 M68.05 -1.07 C78.1 -1.46, 90.57 4.23, 99.58 9.3 C108.6 14.38, 116.52 21.21, 122.14 29.38 C127.75 37.54, 132.15 48.47, 133.27 58.27 C134.39 68.08, 132.82 79.23, 128.86 88.22 C124.9 97.21, 117.64 105.95, 109.52 112.22 C101.39 118.5, 90.26 123.61, 80.12 125.86 C69.97 128.11, 58.42 128.32, 48.65 125.74 C38.89 123.16, 28.86 117.43, 21.55 110.38 C14.23 103.33, 8.5 92.99, 4.78 83.42 C1.06 73.85, -1.9 62.29, -0.76 52.97 C0.38 43.65, 5.48 35.42, 11.62 27.51 C17.76 19.59, 26.4 9.89, 36.05 5.46 C45.71 1.03, 64.36 1.81, 69.57 0.94 C74.78 0.07, 67.59 -0.56, 67.3 0.22" stroke="#1e1e1e" stroke-width="2" fill="none"></path></g><g transform="translate(2581.1847232075143 1000.1400037433846) rotate(0 35.784000396728516 17.5)"><text x="35.784000396728516" y="0" font-family="Virgil, Segoe UI Emoji" font-size="28px" fill="#1e1e1e" text-anchor="middle" style="white-space: pre;" direction="ltr" dominant-baseline="text-before-edge">Redis</text></g><g stroke-linecap="round"><g transform="translate(2480.0756201517165 1182.2317501172402) rotate(0 51.11519092790877 -60.536736047418)"><path d="M0.78 1 C17.93 -19.18, 86.35 -100.1, 103.1 -120.48 M-0.26 0.48 C16.78 -20.11, 85.28 -102.19, 102.61 -122.29" stroke="#1e1e1e" stroke-width="2" fill="none"></path></g><g transform="translate(2480.0756201517165 1182.2317501172402) rotate(0 51.11519092790877 -60.536736047418)"><path d="M93.96 -98.83 C98.26 -104.89, 100.33 -115.36, 102.61 -122.29 M93.96 -98.83 C96.74 -104.9, 99.01 -112.02, 102.61 -122.29" stroke="#1e1e1e" stroke-width="2" fill="none"></path></g><g transform="translate(2480.0756201517165 1182.2317501172402) rotate(0 51.11519092790877 -60.536736047418)"><path d="M80.91 -109.87 C89.41 -112.51, 95.63 -119.47, 102.61 -122.29 M80.91 -109.87 C87.29 -112.87, 93.26 -116.86, 102.61 -122.29" stroke="#1e1e1e" stroke-width="2" fill="none"></path></g></g><mask></mask><g transform="translate(2241.3156019394214 1033.513368378807) rotate(0 146.3839111328125 40)"><text x="0" y="0" font-family="Virgil, Segoe UI Emoji" font-size="16px" fill="#1e1e1e" text-anchor="start" style="white-space: pre;" direction="ltr" dominant-baseline="text-before-edge">Key: webhook_event:evt_12345</text><text x="0" y="20" font-family="Virgil, Segoe UI Emoji" font-size="16px" fill="#1e1e1e" text-anchor="start" style="white-space: pre;" direction="ltr" dominant-baseline="text-before-edge">TTL: 1–2 days</text><text x="0" y="40" font-family="Virgil, Segoe UI Emoji" font-size="16px" fill="#1e1e1e" text-anchor="start" style="white-space: pre;" direction="ltr" dominant-baseline="text-before-edge">Only process if the key doesn't exist</text><text x="0" y="60" font-family="Virgil, Segoe UI Emoji" font-size="16px" fill="#1e1e1e" text-anchor="start" style="white-space: pre;" direction="ltr" dominant-baseline="text-before-edge">Set key after processing</text></g><g transform="translate(3720.824191839816 689.2927278675767) rotate(0 155.86985778808594 12.5)"><text x="0" y="0" font-family="Virgil, Segoe UI Emoji" font-size="20px" fill="#1e1e1e" text-anchor="start" style="white-space: pre;" direction="ltr" dominant-baseline="text-before-edge">Perform deduplication and retry</text></g></svg>