<svg version="1.1" xmlns="http://www.w3.org/2000/svg" viewBox="0 0 4820 2220" width="4820" height="2220">
  <!-- svg-source:excalidraw -->
  
  <defs>
    <style class="style-fonts">
      @font-face {
        font-family: "Virgil";
        src: url("https://excalidraw.com/Virgil.woff2");
      }
      @font-face {
        font-family: "Cascadia";
        src: url("https://excalidraw.com/Cascadia.woff2");
      }
      @font-face {
        font-family: "Assistant";
        src: url("https://excalidraw.com/Assistant-Regular.woff2");
      }
    </style>
    
  </defs>
  <rect x="0" y="0" width="4820" height="2220" fill="#FFF"></rect><g stroke-linecap="round" transform="translate(10 10) rotate(0 625 215)"><path d="M32 0 C441.1 -2.84, 848.75 -3.99, 1218 0 M32 0 C402.76 2.45, 773.95 2.64, 1218 0 M1218 0 C1239.73 -1.13, 1249 9, 1250 32 M1218 0 C1237.41 -1.69, 1247.91 9.37, 1250 32 M1250 32 C1249.85 162.22, 1250.22 290.83, 1250 398 M1250 32 C1249.26 160.45, 1249.78 288.15, 1250 398 M1250 398 C1249.02 417.54, 1239.61 429.81, 1218 430 M1250 398 C1252.09 419.9, 1237.85 429.19, 1218 430 M1218 430 C804.62 426.48, 391.74 426.28, 32 430 M1218 430 C928.6 434.1, 639.95 433.95, 32 430 M32 430 C11.29 428.71, -0.63 418.08, 0 398 M32 430 C9.97 428.17, 2 421.21, 0 398 M0 398 C-1.52 313.72, -1.66 226.83, 0 32 M0 398 C-0.65 321.98, -0.26 247, 0 32 M0 32 C0.04 10.09, 12.6 -0.74, 32 0 M0 32 C2.01 9.77, 12.14 1.6, 32 0" stroke="#000000" stroke-width="1" fill="none"></path></g><g transform="translate(60 50) rotate(0 202.1484375 18.75)"><text x="0" y="0" font-family="Cascadia, Segoe UI Emoji" font-size="30px" fill="#000000" text-anchor="start" style="white-space: pre;" direction="ltr" dominant-baseline="text-before-edge">Functional Requirements</text></g><g stroke-linecap="round" transform="translate(10 490) rotate(0 625 160)"><path d="M32 0 C289.5 4.42, 547.26 3.95, 1218 0 M32 0 C390.8 0.62, 749.47 0.44, 1218 0 M1218 0 C1239 1.35, 1251.7 10.55, 1250 32 M1218 0 C1238.38 0.72, 1251.43 8.42, 1250 32 M1250 32 C1248.47 116.6, 1248.36 200.49, 1250 288 M1250 32 C1248.91 118.26, 1248.92 205.32, 1250 288 M1250 288 C1250.76 309.45, 1240.52 320.36, 1218 320 M1250 288 C1249.25 310.88, 1241.24 319.11, 1218 320 M1218 320 C942.2 323.28, 665.98 322.66, 32 320 M1218 320 C956.24 319.82, 693.67 319.17, 32 320 M32 320 C11.39 321.18, 1.95 310.21, 0 288 M32 320 C11.29 319.42, 1.97 307.39, 0 288 M0 288 C1.62 193.28, 0.65 96.47, 0 32 M0 288 C-0.52 193.42, -0.15 97.7, 0 32 M0 32 C0.81 9.96, 10.43 -0.67, 32 0 M0 32 C0.27 10.58, 12.72 1.03, 32 0" stroke="#000000" stroke-width="1" fill="none"></path></g><g transform="translate(60 530) rotate(0 237.3046875 18.75)"><text x="0" y="0" font-family="Cascadia, Segoe UI Emoji" font-size="30px" fill="#000000" text-anchor="start" style="white-space: pre;" direction="ltr" dominant-baseline="text-before-edge">Non-Functional Requirements</text></g><g stroke-linecap="round" transform="translate(10 860) rotate(0 625 200)"><path d="M32 0 C336.01 2.1, 640.29 2.83, 1218 0 M32 0 C407.11 -2.01, 782.19 -2.15, 1218 0 M1218 0 C1240.87 -1.7, 1251.08 10.37, 1250 32 M1218 0 C1240.58 0.66, 1251.95 12.48, 1250 32 M1250 32 C1251.89 115.57, 1252.43 201.29, 1250 368 M1250 32 C1248.27 130.67, 1247.88 227.69, 1250 368 M1250 368 C1251.74 389.99, 1238.95 400.78, 1218 400 M1250 368 C1250.75 388.97, 1241.04 401.14, 1218 400 M1218 400 C929.92 395.66, 642 394.94, 32 400 M1218 400 C888.75 397.19, 560.06 397.33, 32 400 M32 400 C9.65 399.69, 0.75 387.55, 0 368 M32 400 C11.48 398.09, 1.57 388.45, 0 368 M0 368 C2.12 241.66, 1.53 118.35, 0 32 M0 368 C0.1 254.67, -0.3 140.49, 0 32 M0 32 C-0.44 9.26, 8.73 -0.11, 32 0 M0 32 C1.42 10.59, 9.33 -2.18, 32 0" stroke="#000000" stroke-width="1" fill="none"></path></g><g transform="translate(60 910) rotate(0 114.2578125 18.75)"><text x="0" y="0" font-family="Cascadia, Segoe UI Emoji" font-size="30px" fill="#000000" text-anchor="start" style="white-space: pre;" direction="ltr" dominant-baseline="text-before-edge">Core Entities</text></g><g stroke-linecap="round" transform="translate(10 1310) rotate(0 625 450)"><path d="M32 0 C495.97 0.04, 958.11 -0.15, 1218 0 M32 0 C447.55 0.39, 862.25 -0.08, 1218 0 M1218 0 C1240.71 -0.23, 1249.73 9.33, 1250 32 M1218 0 C1239.83 -1.01, 1251.29 11.51, 1250 32 M1250 32 C1250.89 313.72, 1250.13 595.91, 1250 868 M1250 32 C1248.62 299.97, 1248.75 568.73, 1250 868 M1250 868 C1249.09 887.51, 1240.12 899.35, 1218 900 M1250 868 C1251.97 888.57, 1239.17 899.37, 1218 900 M1218 900 C873.61 897.37, 531.19 897.14, 32 900 M1218 900 C783.63 896.57, 348.56 895.86, 32 900 M32 900 C9.45 900.65, 0.55 888.2, 0 868 M32 900 C11.02 901.49, 0.93 891.15, 0 868 M0 868 C0.94 671.33, -0.2 474.46, 0 32 M0 868 C0.69 581.1, 0.93 294.13, 0 32 M0 32 C-0.84 12.34, 10.96 0.5, 32 0 M0 32 C-1.35 9.85, 11.53 0.67, 32 0" stroke="#000000" stroke-width="1" fill="none"></path></g><g transform="translate(60 1360) rotate(0 87.890625 18.75)"><text x="0" y="0" font-family="Cascadia, Segoe UI Emoji" font-size="30px" fill="#000000" text-anchor="start" style="white-space: pre;" direction="ltr" dominant-baseline="text-before-edge">API Routes</text></g><g stroke-linecap="round" transform="translate(1310 10) rotate(0 1750 1100)"><path d="M32 0 C1075.63 9.91, 2118.68 10.42, 3468 0 M32 0 C919.75 4.43, 1808.38 4.59, 3468 0 M3468 0 C3487.38 -0.56, 3500.45 11.94, 3500 32 M3468 0 C3488.77 0.31, 3501.85 10.84, 3500 32 M3500 32 C3494.91 628.07, 3494.73 1223.61, 3500 2168 M3500 32 C3496.23 633.47, 3496.41 1234.63, 3500 2168 M3500 2168 C3501.47 2190.53, 3488.62 2199.03, 3468 2200 M3500 2168 C3502.04 2187.46, 3488.74 2198.9, 3468 2200 M3468 2200 C2290.13 2192, 1112.28 2191.93, 32 2200 M3468 2200 C2114.83 2213.06, 761.52 2213.75, 32 2200 M32 2200 C8.73 2200.74, 0.81 2188.16, 0 2168 M32 2200 C8.73 2199.4, -0.29 2189.46, 0 2168 M0 2168 C-5.84 1558.53, -6.67 948.72, 0 32 M0 2168 C6.35 1635.03, 6.4 1102.3, 0 32 M0 32 C1.74 9.76, 9.64 -0.06, 32 0 M0 32 C-1.64 12.49, 9.37 0.66, 32 0" stroke="#000000" stroke-width="1" fill="none"></path></g><g transform="translate(1360 60) rotate(0 149.4140625 18.75)"><text x="0" y="0" font-family="Cascadia, Segoe UI Emoji" font-size="30px" fill="#000000" text-anchor="start" style="white-space: pre;" direction="ltr" dominant-baseline="text-before-edge">High-Level Design</text></g><g transform="translate(71.72914533928537 135.54037355774426) rotate(0 347.50970458984375 50)"><text x="0" y="0" font-family="Virgil, Segoe UI Emoji" font-size="20px" fill="#1e1e1e" text-anchor="start" style="white-space: pre;" direction="ltr" dominant-baseline="text-before-edge"></text><text x="0" y="25" font-family="Virgil, Segoe UI Emoji" font-size="20px" fill="#1e1e1e" text-anchor="start" style="white-space: pre;" direction="ltr" dominant-baseline="text-before-edge">1. Real-time log viewing for debugging (latency &lt; a few seconds)</text><text x="0" y="50" font-family="Virgil, Segoe UI Emoji" font-size="20px" fill="#1e1e1e" text-anchor="start" style="white-space: pre;" direction="ltr" dominant-baseline="text-before-edge">2. Regex-based querying on real-time logs for live troubleshooting</text><text x="0" y="75" font-family="Virgil, Segoe UI Emoji" font-size="20px" fill="#1e1e1e" text-anchor="start" style="white-space: pre;" direction="ltr" dominant-baseline="text-before-edge">3. Tar-archived log export for analytics teams covering 24–48 hours</text></g><g transform="translate(65.1363363258497 603.629813511679) rotate(0 348.669677734375 50)"><text x="0" y="0" font-family="Virgil, Segoe UI Emoji" font-size="20px" fill="#1e1e1e" text-anchor="start" style="white-space: pre;" direction="ltr" dominant-baseline="text-before-edge">1. High Write Throughput: Sustain 10TB/hour ingestion (~2.8GB/sec)</text><text x="0" y="25" font-family="Virgil, Segoe UI Emoji" font-size="20px" fill="#1e1e1e" text-anchor="start" style="white-space: pre;" direction="ltr" dominant-baseline="text-before-edge">2. Low Query Latency: Regex queries should return results in &lt;2s</text><text x="0" y="50" font-family="Virgil, Segoe UI Emoji" font-size="20px" fill="#1e1e1e" text-anchor="start" style="white-space: pre;" direction="ltr" dominant-baseline="text-before-edge">3. Data Retention: Logs must be stored at full fidelity for 48 hours</text><text x="0" y="75" font-family="Virgil, Segoe UI Emoji" font-size="20px" fill="#1e1e1e" text-anchor="start" style="white-space: pre;" direction="ltr" dominant-baseline="text-before-edge">4. Availability: 99.99% uptime for streaming + querying</text></g><g transform="translate(78.3219543527211 981.6175302819922) rotate(0 55.169944763183594 25)"><text x="0" y="0" font-family="Virgil, Segoe UI Emoji" font-size="20px" fill="#1e1e1e" text-anchor="start" style="white-space: pre;" direction="ltr" dominant-baseline="text-before-edge">LogEntry</text><text x="0" y="25" font-family="Virgil, Segoe UI Emoji" font-size="20px" fill="#1e1e1e" text-anchor="start" style="white-space: pre;" direction="ltr" dominant-baseline="text-before-edge">ExportJobs</text></g><g transform="translate(67.33393933032826 1445.3117642269704) rotate(0 466.109619140625 250)"><text x="0" y="0" font-family="Virgil, Segoe UI Emoji" font-size="20px" fill="#1e1e1e" text-anchor="start" style="white-space: pre;" direction="ltr" dominant-baseline="text-before-edge">POST /logs/ingest {</text><text x="0" y="25" font-family="Virgil, Segoe UI Emoji" font-size="20px" fill="#1e1e1e" text-anchor="start" style="white-space: pre;" direction="ltr" dominant-baseline="text-before-edge">  timestamp,</text><text x="0" y="50" font-family="Virgil, Segoe UI Emoji" font-size="20px" fill="#1e1e1e" text-anchor="start" style="white-space: pre;" direction="ltr" dominant-baseline="text-before-edge">  source,</text><text x="0" y="75" font-family="Virgil, Segoe UI Emoji" font-size="20px" fill="#1e1e1e" text-anchor="start" style="white-space: pre;" direction="ltr" dominant-baseline="text-before-edge">  env,</text><text x="0" y="100" font-family="Virgil, Segoe UI Emoji" font-size="20px" fill="#1e1e1e" text-anchor="start" style="white-space: pre;" direction="ltr" dominant-baseline="text-before-edge">  region,</text><text x="0" y="125" font-family="Virgil, Segoe UI Emoji" font-size="20px" fill="#1e1e1e" text-anchor="start" style="white-space: pre;" direction="ltr" dominant-baseline="text-before-edge">  logLevel,</text><text x="0" y="150" font-family="Virgil, Segoe UI Emoji" font-size="20px" fill="#1e1e1e" text-anchor="start" style="white-space: pre;" direction="ltr" dominant-baseline="text-before-edge">  logMessage,</text><text x="0" y="175" font-family="Virgil, Segoe UI Emoji" font-size="20px" fill="#1e1e1e" text-anchor="start" style="white-space: pre;" direction="ltr" dominant-baseline="text-before-edge">  structuredData: []</text><text x="0" y="200" font-family="Virgil, Segoe UI Emoji" font-size="20px" fill="#1e1e1e" text-anchor="start" style="white-space: pre;" direction="ltr" dominant-baseline="text-before-edge">} ---&gt; 202, accepted</text><text x="0" y="225" font-family="Virgil, Segoe UI Emoji" font-size="20px" fill="#1e1e1e" text-anchor="start" style="white-space: pre;" direction="ltr" dominant-baseline="text-before-edge"></text><text x="0" y="250" font-family="Virgil, Segoe UI Emoji" font-size="20px" fill="#1e1e1e" text-anchor="start" style="white-space: pre;" direction="ltr" dominant-baseline="text-before-edge">GET /logs/tail?service={}&amp;env={}&amp;limit={}&amp;cursor={}&amp;starttime={}&amp;endtime={}</text><text x="0" y="275" font-family="Virgil, Segoe UI Emoji" font-size="20px" fill="#1e1e1e" text-anchor="start" style="white-space: pre;" direction="ltr" dominant-baseline="text-before-edge">GET /logs/stream?service={}&amp;region={}&amp;starttime={} --- more like a SSE, web sockets, gRPC</text><text x="0" y="300" font-family="Virgil, Segoe UI Emoji" font-size="20px" fill="#1e1e1e" text-anchor="start" style="white-space: pre;" direction="ltr" dominant-baseline="text-before-edge"></text><text x="0" y="325" font-family="Virgil, Segoe UI Emoji" font-size="20px" fill="#1e1e1e" text-anchor="start" style="white-space: pre;" direction="ltr" dominant-baseline="text-before-edge">POST /export {</text><text x="0" y="350" font-family="Virgil, Segoe UI Emoji" font-size="20px" fill="#1e1e1e" text-anchor="start" style="white-space: pre;" direction="ltr" dominant-baseline="text-before-edge">   starttime,</text><text x="0" y="375" font-family="Virgil, Segoe UI Emoji" font-size="20px" fill="#1e1e1e" text-anchor="start" style="white-space: pre;" direction="ltr" dominant-baseline="text-before-edge">   endtime,</text><text x="0" y="400" font-family="Virgil, Segoe UI Emoji" font-size="20px" fill="#1e1e1e" text-anchor="start" style="white-space: pre;" direction="ltr" dominant-baseline="text-before-edge">   source,...</text><text x="0" y="425" font-family="Virgil, Segoe UI Emoji" font-size="20px" fill="#1e1e1e" text-anchor="start" style="white-space: pre;" direction="ltr" dominant-baseline="text-before-edge">} ---&gt; 202, jobId, status: SCHEDULED</text><text x="0" y="450" font-family="Virgil, Segoe UI Emoji" font-size="20px" fill="#1e1e1e" text-anchor="start" style="white-space: pre;" direction="ltr" dominant-baseline="text-before-edge"></text><text x="0" y="475" font-family="Virgil, Segoe UI Emoji" font-size="20px" fill="#1e1e1e" text-anchor="start" style="white-space: pre;" direction="ltr" dominant-baseline="text-before-edge">GET /export/{jobId} ---&gt; 200, downloadUrl: s3link</text></g><g stroke-linecap="round" transform="translate(4316.475151220763 1035.8062007516298) rotate(0 87.1745535595046 36.70507518294937)"><path d="M18.35 0 C57.61 0.6, 93.75 -1.78, 156 0 M18.35 0 C56.96 -1.1, 96.05 -1.27, 156 0 M156 0 C169.89 -1.48, 172.7 7.47, 174.35 18.35 M156 0 C169.3 0.7, 173.18 4.35, 174.35 18.35 M174.35 18.35 C174.03 25.45, 174.29 33.19, 174.35 55.06 M174.35 18.35 C174.21 29.88, 174.07 42.39, 174.35 55.06 M174.35 55.06 C173.93 66.67, 168.89 72.98, 156 73.41 M174.35 55.06 C174.93 68.4, 165.94 71.65, 156 73.41 M156 73.41 C102.47 71.72, 49.66 73.33, 18.35 73.41 M156 73.41 C109.65 74.73, 65.29 73.91, 18.35 73.41 M18.35 73.41 C4.56 72.78, -0.68 66.83, 0 55.06 M18.35 73.41 C6.9 72.06, -0.92 66.69, 0 55.06 M0 55.06 C2.14 42.54, -0.24 33.28, 0 18.35 M0 55.06 C-0.11 47.73, -0.38 38.44, 0 18.35 M0 18.35 C-0.81 4.38, 4.93 0.8, 18.35 0 M0 18.35 C0.34 5.83, 6.75 1.43, 18.35 0" stroke="#1e1e1e" stroke-width="2" fill="none"></path></g><g stroke-linecap="round" transform="translate(4311.887016822893 846.7750635594412) rotate(0 87.1745535595046 36.70507518294926)"><path d="M18.35 0 C63.81 -2.04, 110.7 -0.43, 156 0 M18.35 0 C66.66 -0.02, 116.19 -0.22, 156 0 M156 0 C166.58 1.35, 175.28 6.73, 174.35 18.35 M156 0 C167.07 -1.76, 172.44 5.1, 174.35 18.35 M174.35 18.35 C174.42 30.12, 174.86 42.64, 174.35 55.06 M174.35 18.35 C174.38 29.58, 174.18 40.41, 174.35 55.06 M174.35 55.06 C175.01 66.87, 168.73 74.37, 156 73.41 M174.35 55.06 C172.06 65.53, 170.14 74.26, 156 73.41 M156 73.41 C117.78 72.84, 81.99 70.87, 18.35 73.41 M156 73.41 C101.98 72.66, 46.88 73.14, 18.35 73.41 M18.35 73.41 C5.44 72.95, 0.68 66.12, 0 55.06 M18.35 73.41 C5.2 72.81, 0.5 66.33, 0 55.06 M0 55.06 C-0.76 48.17, -2.11 36.45, 0 18.35 M0 55.06 C-0.47 43.35, -0.29 32.74, 0 18.35 M0 18.35 C-1.19 6.92, 6.42 -0.25, 18.35 0 M0 18.35 C0.64 7.55, 4.57 -1.72, 18.35 0" stroke="#1e1e1e" stroke-width="2" fill="none"></path></g><g stroke-linecap="round" transform="translate(4310.051763063746 668.7554489221368) rotate(0 87.1745535595046 36.70507518294937)"><path d="M18.35 0 C66.93 1.21, 117.24 0.2, 156 0 M18.35 0 C55.25 0.01, 89.65 1.42, 156 0 M156 0 C169.16 0.61, 173.34 4.58, 174.35 18.35 M156 0 C166.32 -1.02, 175.51 5.94, 174.35 18.35 M174.35 18.35 C174.9 26.33, 174.46 37.42, 174.35 55.06 M174.35 18.35 C174.13 27.31, 174.67 36.68, 174.35 55.06 M174.35 55.06 C174.85 68.25, 166.24 71.88, 156 73.41 M174.35 55.06 C176.26 68.14, 167.56 72.47, 156 73.41 M156 73.41 C124.19 71.97, 93.06 71.78, 18.35 73.41 M156 73.41 C113.52 72.01, 72.26 72.09, 18.35 73.41 M18.35 73.41 C6.8 72.23, -0.8 66.77, 0 55.06 M18.35 73.41 C6.62 72.44, -1.42 69.58, 0 55.06 M0 55.06 C-1.67 44.21, -0.08 34.97, 0 18.35 M0 55.06 C-0.19 41.39, -0.38 29.87, 0 18.35 M0 18.35 C0.3 5.87, 6.67 1.24, 18.35 0 M0 18.35 C-1.55 4.4, 8.18 1.05, 18.35 0" stroke="#1e1e1e" stroke-width="2" fill="none"></path></g><g transform="translate(4365.814948062464 1048.8913423985036) rotate(0 58.05797576904297 17.5)"><text x="0" y="0" font-family="Virgil, Segoe UI Emoji" font-size="28px" fill="#1e1e1e" text-anchor="start" style="white-space: pre;" direction="ltr" dominant-baseline="text-before-edge">Service 1</text></g><g transform="translate(4335.275266023318 858.0249514471673) rotate(0 64.23197174072266 17.5)"><text x="0" y="0" font-family="Virgil, Segoe UI Emoji" font-size="28px" fill="#1e1e1e" text-anchor="start" style="white-space: pre;" direction="ltr" dominant-baseline="text-before-edge">Service 2</text></g><g transform="translate(4336.939491509225 683.6758443281583) rotate(0 63.27997589111328 17.5)"><text x="0" y="0" font-family="Virgil, Segoe UI Emoji" font-size="28px" fill="#1e1e1e" text-anchor="start" style="white-space: pre;" direction="ltr" dominant-baseline="text-before-edge">Service N</text></g><g stroke-linecap="round" transform="translate(3254.105252163877 830.0598908480029) rotate(0 152.32606200923965 36.70507518294926)"><path d="M18.35 0 C92.38 -3.05, 169.8 -1.02, 286.3 0 M18.35 0 C106.25 1.27, 195.84 1.56, 286.3 0 M286.3 0 C297.66 0.1, 303.57 6.65, 304.65 18.35 M286.3 0 C296.89 0.11, 304.94 5.03, 304.65 18.35 M304.65 18.35 C304.04 29.97, 304.24 40.76, 304.65 55.06 M304.65 18.35 C305.12 31.5, 304 43.5, 304.65 55.06 M304.65 55.06 C303.36 66.38, 298.85 74.01, 286.3 73.41 M304.65 55.06 C302.75 69.44, 296.42 73.48, 286.3 73.41 M286.3 73.41 C201.45 71.23, 117.21 72.3, 18.35 73.41 M286.3 73.41 C221.87 72.53, 156.6 73.64, 18.35 73.41 M18.35 73.41 C5.42 73.02, 1.86 65.55, 0 55.06 M18.35 73.41 C4.83 73.23, -0.73 68.41, 0 55.06 M0 55.06 C-1.37 45.02, 1.16 37.66, 0 18.35 M0 55.06 C-0.78 43.76, 0.8 34.41, 0 18.35 M0 18.35 C1.26 7.19, 4.42 -0.14, 18.35 0 M0 18.35 C0.18 7.82, 8.3 -1.65, 18.35 0" stroke="#1e1e1e" stroke-width="2" fill="none"></path></g><g transform="translate(3282.0846163845063 844.9802862540239) rotate(0 146.95794677734375 17.5)"><text x="0" y="0" font-family="Virgil, Segoe UI Emoji" font-size="28px" fill="#1e1e1e" text-anchor="start" style="white-space: pre;" direction="ltr" dominant-baseline="text-before-edge">Kafka events stream</text></g><g stroke-linecap="round"><g transform="translate(4313.120999061244 1083.8545592354071) rotate(0 -376.4710937751843 -106.6050600462338)"><path d="M0.56 0.37 C-124.87 -35.46, -627.8 -178.45, -753.55 -214.13 M-0.61 -0.49 C-125.55 -36.26, -626 -177.71, -751.16 -213.08" stroke="#1e1e1e" stroke-width="2" fill="none"></path></g><g transform="translate(4313.120999061244 1083.8545592354071) rotate(0 -376.4710937751843 -106.6050600462338)"><path d="M-726.23 -214.91 C-731.02 -215.41, -738.59 -215.66, -751.16 -213.08 M-726.23 -214.91 C-733.03 -214.41, -739.52 -213.72, -751.16 -213.08" stroke="#1e1e1e" stroke-width="2" fill="none"></path></g><g transform="translate(4313.120999061244 1083.8545592354071) rotate(0 -376.4710937751843 -106.6050600462338)"><path d="M-730.88 -198.46 C-734.77 -202.55, -741.33 -206.38, -751.16 -213.08 M-730.88 -198.46 C-736.58 -202.16, -741.87 -205.68, -751.16 -213.08" stroke="#1e1e1e" stroke-width="2" fill="none"></path></g></g><mask></mask><g stroke-linecap="round"><g transform="translate(4325.757629016856 875.2885525283116) rotate(0 -381.72341855087757 -0.8916504670447694)"><path d="M-0.61 -0.92 C-128.11 -1.37, -637.4 -2.15, -764.44 -2.31 M1.27 1.21 C-125.91 0.89, -634.83 -0.75, -762.25 -1.05" stroke="#1e1e1e" stroke-width="2" fill="none"></path></g><g transform="translate(4325.757629016856 875.2885525283116) rotate(0 -381.72341855087757 -0.8916504670447694)"><path d="M-738.74 -9.54 C-748.39 -8.38, -755.89 -2.77, -762.25 -1.05 M-738.74 -9.54 C-746.19 -6.78, -753.24 -4.52, -762.25 -1.05" stroke="#1e1e1e" stroke-width="2" fill="none"></path></g><g transform="translate(4325.757629016856 875.2885525283116) rotate(0 -381.72341855087757 -0.8916504670447694)"><path d="M-738.79 7.56 C-748.48 2.8, -755.96 2.48, -762.25 -1.05 M-738.79 7.56 C-746.15 5.32, -753.19 2.58, -762.25 -1.05" stroke="#1e1e1e" stroke-width="2" fill="none"></path></g></g><mask></mask><g stroke-linecap="round"><g transform="translate(4304.217914646013 685.6539399921112) rotate(0 -383.57110768135294 82.50893207627178)"><path d="M-1 -0.53 C-128.65 27.11, -638.76 137.33, -766.54 164.93 M0.68 1.81 C-127.03 29.72, -638.94 138.98, -767.17 166.42" stroke="#1e1e1e" stroke-width="2" fill="none"></path></g><g transform="translate(4304.217914646013 685.6539399921112) rotate(0 -383.57110768135294 82.50893207627178)"><path d="M-745.98 153.14 C-752.25 157.28, -756.8 158.71, -767.17 166.42 M-745.98 153.14 C-753.23 157.3, -758.86 160.82, -767.17 166.42" stroke="#1e1e1e" stroke-width="2" fill="none"></path></g><g transform="translate(4304.217914646013 685.6539399921112) rotate(0 -383.57110768135294 82.50893207627178)"><path d="M-742.41 169.87 C-749.44 169.81, -754.88 167.07, -767.17 166.42 M-742.41 169.87 C-750.66 168.93, -757.37 167.35, -767.17 166.42" stroke="#1e1e1e" stroke-width="2" fill="none"></path></g></g><mask></mask><g stroke-linecap="round" transform="translate(3699.415175023277 1412.2799252580846) rotate(0 91.76268795737337 78.91591164334102)"><path d="M115 19.75 C124.55 27.22, 134.68 35.58, 160.53 59.25 M115 19.75 C129.72 32.16, 144.46 45.6, 160.53 59.25 M160.53 59.25 C183.1 78.38, 184.19 78.57, 160.53 98.75 M160.53 59.25 C184.1 80.11, 181.24 77.24, 160.53 98.75 M160.53 98.75 C142.42 112.39, 124.89 129.06, 115 138.08 M160.53 98.75 C144.25 112.19, 130.3 124.35, 115 138.08 M115 138.08 C90.44 157.2, 91.32 157.37, 69 138.08 M115 138.08 C92.78 156.48, 91.08 157.23, 69 138.08 M69 138.08 C56.34 124.43, 39.15 114.33, 23 98.75 M69 138.08 C59.11 130.16, 49.04 120.31, 23 98.75 M23 98.75 C-0.81 77.27, -1.19 79.8, 23 59.25 M23 98.75 C0.34 78.71, 0.64 80.43, 23 59.25 M23 59.25 C34.91 50.91, 45.76 38.77, 69 19.75 M23 59.25 C37.38 46.63, 49.11 35.38, 69 19.75 M69 19.75 C90.39 0, 92.15 1.19, 115 19.75 M69 19.75 C93.91 -0.44, 92.54 -0.15, 115 19.75" stroke="#1e1e1e" stroke-width="2" fill="none"></path></g><g transform="translate(3758.2720600370626 1470.6676411104472) rotate(0 28.139976501464844 17.5)"><text x="0" y="0" font-family="Virgil, Segoe UI Emoji" font-size="28px" fill="#1e1e1e" text-anchor="start" style="white-space: pre;" direction="ltr" dominant-baseline="text-before-edge">Flink</text></g><g stroke-linecap="round"><g transform="translate(3751.3790094416945 1445.5640645498206) rotate(0 -198.41812980471877 -270.7314589211338)"><path d="M-0.65 0.32 C-66.85 -89.92, -331.69 -451.01, -397.69 -541.41 M1.21 -0.55 C-64.57 -90.59, -329 -449.76, -395.43 -539.84" stroke="#1e1e1e" stroke-width="2" fill="none"></path></g><g transform="translate(3751.3790094416945 1445.5640645498206) rotate(0 -198.41812980471877 -270.7314589211338)"><path d="M-374.62 -526 C-379.42 -531.09, -385.2 -532.96, -395.43 -539.84 M-374.62 -526 C-380.08 -529.8, -384.8 -533.19, -395.43 -539.84" stroke="#1e1e1e" stroke-width="2" fill="none"></path></g><g transform="translate(3751.3790094416945 1445.5640645498206) rotate(0 -198.41812980471877 -270.7314589211338)"><path d="M-388.38 -515.85 C-389.67 -523.47, -391.92 -527.95, -395.43 -539.84 M-388.38 -515.85 C-390.37 -522.22, -391.61 -528.18, -395.43 -539.84" stroke="#1e1e1e" stroke-width="2" fill="none"></path></g></g><mask></mask><g stroke-linecap="round" transform="translate(2940.2768593496558 1114.5242235158598) rotate(0 144.06742009307595 119.29149434458532)"><path d="M152.99 0.01 C167.95 -1.05, 184.48 4.38, 198.84 9.4 C213.21 14.41, 227.36 21.78, 239.18 30.1 C251 38.42, 262.17 48.01, 269.78 59.33 C277.4 70.65, 282 85.21, 284.87 98.02 C287.74 110.82, 289.19 123.63, 287 136.16 C284.82 148.69, 279.05 161.65, 271.78 173.21 C264.51 184.76, 254.52 196.59, 243.39 205.5 C232.26 214.41, 218.91 221.42, 205 226.68 C191.08 231.93, 175.47 235.52, 159.91 237.02 C144.36 238.52, 127.15 238.55, 111.67 235.67 C96.19 232.79, 80.32 226.64, 67.03 219.73 C53.74 212.81, 41.69 204.02, 31.95 194.18 C22.21 184.35, 14 172.86, 8.59 160.73 C3.17 148.6, -0.22 134.33, -0.56 121.4 C-0.89 108.47, 1.81 95.49, 6.59 83.16 C11.37 70.82, 18.6 57.84, 28.12 47.4 C37.65 36.95, 50.84 27.5, 63.75 20.47 C76.66 13.44, 89.66 8.6, 105.58 5.22 C121.49 1.84, 149.05 0.45, 159.24 0.18 C169.42 -0.09, 166.73 1.62, 166.69 3.59 M75.22 14.71 C87.35 7.45, 105.66 3.35, 121.27 1.35 C136.88 -0.66, 153.72 0.62, 168.88 2.66 C184.05 4.69, 198.41 7.37, 212.24 13.53 C226.07 19.69, 241.05 29.75, 251.88 39.61 C262.71 49.47, 271.46 60.99, 277.22 72.71 C282.98 84.43, 285.35 96.99, 286.43 109.91 C287.5 122.83, 287.12 137.91, 283.67 150.24 C280.22 162.58, 274.52 173.45, 265.71 183.94 C256.9 194.43, 243.61 205.12, 230.82 213.18 C218.03 221.24, 203.53 227.93, 188.98 232.31 C174.42 236.69, 158.66 239.58, 143.48 239.47 C128.3 239.36, 112.56 236.06, 97.88 231.64 C83.19 227.23, 67.9 221, 55.38 212.98 C42.87 204.96, 31.37 194.47, 22.79 183.54 C14.21 172.6, 7.59 159.63, 3.91 147.37 C0.22 135.11, -0.82 122.67, 0.67 109.96 C2.17 97.25, 6.39 83.23, 12.86 71.11 C19.34 58.99, 28.99 46.72, 39.51 37.26 C50.03 27.8, 69.53 17.75, 75.98 14.36 C82.42 10.98, 76.97 15.06, 78.19 16.94" stroke="#1e1e1e" stroke-width="2" fill="none"></path></g><g transform="translate(3000.2907129052205 1219.3720531201066) rotate(0 65.08597564697266 17.5)"><text x="0" y="0" font-family="Virgil, Segoe UI Emoji" font-size="28px" fill="#1e1e1e" text-anchor="start" style="white-space: pre;" direction="ltr" dominant-baseline="text-before-edge">OLAP DB</text></g><g stroke-linecap="round"><g transform="translate(3744.601967044853 1452.0268953433606) rotate(0 -270.36244434950527 -75.27620417565697)"><path d="M-0.02 0.06 C-90.21 -25, -450.93 -125.78, -540.98 -150.93 M-1.49 -0.96 C-91.87 -25.8, -452.16 -124.81, -542.06 -149.59" stroke="#1e1e1e" stroke-width="2" fill="none"></path></g><g transform="translate(3744.601967044853 1452.0268953433606) rotate(0 -270.36244434950527 -75.27620417565697)"><path d="M-517.14 -151.6 C-524.84 -151.4, -533.34 -149.69, -542.06 -149.59 M-517.14 -151.6 C-525.08 -151.68, -530.2 -149.99, -542.06 -149.59" stroke="#1e1e1e" stroke-width="2" fill="none"></path></g><g transform="translate(3744.601967044853 1452.0268953433606) rotate(0 -270.36244434950527 -75.27620417565697)"><path d="M-521.68 -135.11 C-527.88 -140.06, -534.97 -143.5, -542.06 -149.59 M-521.68 -135.11 C-528.39 -139.81, -532.25 -142.71, -542.06 -149.59" stroke="#1e1e1e" stroke-width="2" fill="none"></path></g></g><mask></mask><g transform="translate(3865.7022740917173 1487.0795099082939) rotate(0 432.10980224609375 210)"><text x="0" y="0" font-family="Virgil, Segoe UI Emoji" font-size="28px" fill="#1e1e1e" text-anchor="start" style="white-space: pre;" direction="ltr" dominant-baseline="text-before-edge">Stream processor for any</text><text x="0" y="35" font-family="Virgil, Segoe UI Emoji" font-size="28px" fill="#1e1e1e" text-anchor="start" style="white-space: pre;" direction="ltr" dominant-baseline="text-before-edge">tenant tagging or processing</text><text x="0" y="70" font-family="Virgil, Segoe UI Emoji" font-size="28px" fill="#1e1e1e" text-anchor="start" style="white-space: pre;" direction="ltr" dominant-baseline="text-before-edge">Compress to reduce I/O</text><text x="0" y="105" font-family="Virgil, Segoe UI Emoji" font-size="28px" fill="#1e1e1e" text-anchor="start" style="white-space: pre;" direction="ltr" dominant-baseline="text-before-edge"></text><text x="0" y="140" font-family="Virgil, Segoe UI Emoji" font-size="28px" fill="#1e1e1e" text-anchor="start" style="white-space: pre;" direction="ltr" dominant-baseline="text-before-edge">Each record processed by Flink = 2.78 million logs/sec</text><text x="0" y="175" font-family="Virgil, Segoe UI Emoji" font-size="28px" fill="#1e1e1e" text-anchor="start" style="white-space: pre;" direction="ltr" dominant-baseline="text-before-edge">If tagging adds latency ≤ 50ms, Flink must scale horizontally</text><text x="0" y="210" font-family="Virgil, Segoe UI Emoji" font-size="28px" fill="#1e1e1e" text-anchor="start" style="white-space: pre;" direction="ltr" dominant-baseline="text-before-edge">~10–20 Flink workers with autoscaling, depending on complexity</text><text x="0" y="245" font-family="Virgil, Segoe UI Emoji" font-size="28px" fill="#1e1e1e" text-anchor="start" style="white-space: pre;" direction="ltr" dominant-baseline="text-before-edge"></text><text x="0" y="280" font-family="Virgil, Segoe UI Emoji" font-size="28px" fill="#1e1e1e" text-anchor="start" style="white-space: pre;" direction="ltr" dominant-baseline="text-before-edge">Checkpoint: 1 min, </text><text x="0" y="315" font-family="Virgil, Segoe UI Emoji" font-size="28px" fill="#1e1e1e" text-anchor="start" style="white-space: pre;" direction="ltr" dominant-baseline="text-before-edge">If Flink crashes, it replays logs from Kafka starting</text><text x="0" y="350" font-family="Virgil, Segoe UI Emoji" font-size="28px" fill="#1e1e1e" text-anchor="start" style="white-space: pre;" direction="ltr" dominant-baseline="text-before-edge">from last committed offset per partition.</text><text x="0" y="385" font-family="Virgil, Segoe UI Emoji" font-size="28px" fill="#1e1e1e" text-anchor="start" style="white-space: pre;" direction="ltr" dominant-baseline="text-before-edge">So checkpointing + Kafka retention = reliable replay</text></g><g stroke-linecap="round" transform="translate(1738.1856471080669 835.5656521254448) rotate(0 167.9257189619932 68.82201596802986)"><path d="M32 0 C107.46 -0.31, 184.34 -2.25, 303.85 0 M32 0 C92.51 -1.1, 152.96 -1.14, 303.85 0 M303.85 0 C325.5 0.6, 334.2 12.54, 335.85 32 M303.85 0 C323.07 0.07, 336.19 8.85, 335.85 32 M335.85 32 C335.16 49.02, 334.44 63.89, 335.85 105.64 M335.85 32 C335.39 53.17, 335.66 72.15, 335.85 105.64 M335.85 105.64 C337.71 125.24, 324.06 137.49, 303.85 137.64 M335.85 105.64 C335.12 128.1, 323.83 135.38, 303.85 137.64 M303.85 137.64 C233.87 136.61, 162.43 136.81, 32 137.64 M303.85 137.64 C206.11 136.42, 107.45 136.48, 32 137.64 M32 137.64 C8.97 137.5, 0.16 128.45, 0 105.64 M32 137.64 C12.84 135.99, -1.82 126.05, 0 105.64 M0 105.64 C1.19 91.14, -0.38 73.78, 0 32 M0 105.64 C-0.08 83.59, 0.22 63.12, 0 32 M0 32 C0.6 11.02, 11.94 -1.08, 32 0 M0 32 C-0.21 11.06, 11.76 1.13, 32 0" stroke="#1e1e1e" stroke-width="2" fill="none"></path></g><g transform="translate(1745.0996476273972 879.8501076778259) rotate(0 130.40994262695312 17.5)"><text x="0" y="0" font-family="Virgil, Segoe UI Emoji" font-size="28px" fill="#1e1e1e" text-anchor="start" style="white-space: pre;" direction="ltr" dominant-baseline="text-before-edge">Analytics UI Client</text></g><g stroke-linecap="round" transform="translate(2130.929951565624 327.2003608415971) rotate(0 61.48100093144012 625.8215318692856)"><path d="M30.74 0 C49.2 2.27, 71.46 0.03, 92.22 0 M30.74 0 C46.84 0.58, 61.79 1.22, 92.22 0 M92.22 0 C110.87 0.06, 123.26 8.67, 122.96 30.74 M92.22 0 C110.92 -0.72, 122.18 9.71, 122.96 30.74 M122.96 30.74 C119.95 428.46, 119.82 825.34, 122.96 1220.9 M122.96 30.74 C121.66 505.6, 121.07 981.13, 122.96 1220.9 M122.96 1220.9 C122.32 1242.37, 111.54 1249.68, 92.22 1251.64 M122.96 1220.9 C122.04 1239.4, 111.35 1252.57, 92.22 1251.64 M92.22 1251.64 C74.1 1250.46, 52 1253.61, 30.74 1251.64 M92.22 1251.64 C70.12 1251.9, 49.78 1252.71, 30.74 1251.64 M30.74 1251.64 C12.14 1250.2, -1.58 1240.59, 0 1220.9 M30.74 1251.64 C8.4 1251.65, 0.17 1242.76, 0 1220.9 M0 1220.9 C0.86 764.71, 0.63 308.65, 0 30.74 M0 1220.9 C-0.27 914.94, -0.13 608.61, 0 30.74 M0 30.74 C-0.18 10.59, 11.2 0.98, 30.74 0 M0 30.74 C0.55 11.86, 9.33 -0.64, 30.74 0" stroke="#1e1e1e" stroke-width="2" fill="none"></path></g><g transform="translate(2125.1795156781745 945.9192430071346) rotate(0 89.41796875 17.5)"><text x="0" y="0" font-family="Virgil, Segoe UI Emoji" font-size="28px" fill="#1e1e1e" text-anchor="start" style="white-space: pre;" direction="ltr" dominant-baseline="text-before-edge">API gateway</text></g><g stroke-linecap="round" transform="translate(2325.4668500352554 1186.099120122611) rotate(0 150.4908082500922 50.469478376555344)"><path d="M25.23 0 C120.51 -0.46, 216.36 0.85, 275.75 0 M25.23 0 C107.17 -1.89, 190.72 -2.56, 275.75 0 M275.75 0 C291.01 -0.63, 300.3 7.95, 300.98 25.23 M275.75 0 C293.35 -1.35, 300.06 7.81, 300.98 25.23 M300.98 25.23 C302.76 40.78, 300.37 59.59, 300.98 75.7 M300.98 25.23 C300.38 36.47, 300.11 45.75, 300.98 75.7 M300.98 75.7 C300.18 90.79, 291.38 101.74, 275.75 100.94 M300.98 75.7 C301.33 92.24, 293.21 102.37, 275.75 100.94 M275.75 100.94 C218.24 103.8, 160.12 101.39, 25.23 100.94 M275.75 100.94 C203.18 101.86, 128.42 102.12, 25.23 100.94 M25.23 100.94 C6.8 100.94, 0.15 93.72, 0 75.7 M25.23 100.94 C10.32 100.5, 0.54 92.38, 0 75.7 M0 75.7 C-0.68 61.71, 1.64 47.98, 0 25.23 M0 75.7 C-0.41 59.84, 0.15 44.11, 0 25.23 M0 25.23 C0.48 9.81, 7.61 -0.56, 25.23 0 M0 25.23 C-1.31 9.9, 8.51 -1.67, 25.23 0" stroke="#1e1e1e" stroke-width="2" fill="none"></path></g><g transform="translate(2381.0070429590464 1208.3605305652222) rotate(0 114.26795196533203 17.5)"><text x="0" y="0" font-family="Virgil, Segoe UI Emoji" font-size="28px" fill="#1e1e1e" text-anchor="start" style="white-space: pre;" direction="ltr" dominant-baseline="text-before-edge">Analytics service</text></g><g stroke-linecap="round"><g transform="translate(2633.789481572029 1248.4977479336249) rotate(0 149.03008730256374 -0.16856125633523789)"><path d="M0.19 0.36 C49.83 0.58, 247.61 0.9, 297.07 0.79 M-1.17 -0.5 C48.9 -0.53, 249.19 -1, 299.26 -0.75" stroke="#1e1e1e" stroke-width="2" fill="none"></path></g><g transform="translate(2633.789481572029 1248.4977479336249) rotate(0 149.03008730256374 -0.16856125633523789)"><path d="M275.76 7.78 C281.93 4.08, 288.73 1.89, 299.26 -0.75 M275.76 7.78 C282.08 5.07, 289.64 2.57, 299.26 -0.75" stroke="#1e1e1e" stroke-width="2" fill="none"></path></g><g transform="translate(2633.789481572029 1248.4977479336249) rotate(0 149.03008730256374 -0.16856125633523789)"><path d="M275.77 -9.32 C281.86 -8.99, 288.66 -7.16, 299.26 -0.75 M275.77 -9.32 C282.12 -6.85, 289.68 -4.17, 299.26 -0.75" stroke="#1e1e1e" stroke-width="2" fill="none"></path></g></g><mask></mask><g stroke-linecap="round" transform="translate(2905.407037925854 281.31901686291053) rotate(0 123.87962874245386 124.79725562202759)"><path d="M68.02 12.23 C79.12 4.39, 95.64 1.83, 109.77 0.44 C123.89 -0.96, 139.11 0.5, 152.79 3.84 C166.47 7.18, 180.09 12.6, 191.85 20.46 C203.61 28.31, 214.93 39.55, 223.33 50.97 C231.74 62.38, 238.11 75.4, 242.3 88.95 C246.5 102.51, 249.36 117.83, 248.51 132.29 C247.66 146.75, 243.16 162.69, 237.2 175.7 C231.23 188.7, 222.43 200.21, 212.71 210.3 C202.99 220.4, 191.3 229.94, 178.87 236.27 C166.45 242.59, 152.35 246.66, 138.17 248.23 C123.98 249.8, 107.71 249.04, 93.76 245.69 C79.81 242.34, 65.98 235.93, 54.45 228.14 C42.92 220.36, 32.82 210.3, 24.57 199 C16.31 187.69, 8.86 174.09, 4.91 160.3 C0.96 146.51, 0.08 130.37, 0.87 116.28 C1.65 102.18, 3.99 88.54, 9.62 75.72 C15.24 62.9, 23.23 50.6, 34.63 39.36 C46.04 28.11, 69.28 13.41, 78.03 8.23 C86.78 3.06, 86.32 6.06, 87.13 8.29 M79.07 7.99 C91.16 1.65, 108.15 1.1, 122.68 0.9 C137.21 0.7, 152.9 2.23, 166.26 6.79 C179.62 11.35, 192.19 19.27, 202.85 28.26 C213.51 37.25, 223.13 48.59, 230.21 60.74 C237.28 72.9, 242.64 86.93, 245.31 101.18 C247.98 115.44, 248.4 132.07, 246.22 146.26 C244.05 160.45, 239.05 174.24, 232.26 186.31 C225.47 198.39, 216.29 209.47, 205.47 218.73 C194.65 227.99, 180.6 236.6, 167.34 241.87 C154.08 247.13, 139.94 250.04, 125.9 250.32 C111.87 250.61, 96.64 248.48, 83.1 243.56 C69.56 238.65, 55.78 229.87, 44.66 220.82 C33.55 211.78, 23.49 201.67, 16.41 189.31 C9.33 176.95, 4.85 160.92, 2.18 146.68 C-0.49 132.44, -2.12 117.6, 0.38 103.88 C2.89 90.15, 10.18 76.86, 17.21 64.31 C24.25 51.76, 32.32 38.19, 42.6 28.55 C52.87 18.92, 72.35 9.34, 78.87 6.52 C85.39 3.69, 80.55 9.49, 81.7 11.59" stroke="#1e1e1e" stroke-width="2" fill="none"></path></g><g transform="translate(3006.6162523532503 335.6899196585348) rotate(0 18.045989990234375 17.5)"><text x="0" y="0" font-family="Virgil, Segoe UI Emoji" font-size="28px" fill="#1e1e1e" text-anchor="start" style="white-space: pre;" direction="ltr" dominant-baseline="text-before-edge">S3</text></g><g stroke-linecap="round"><g transform="translate(1904.0200652280123 832.6398867572054) rotate(0 505.6157340173568 -292.17771877947456)"><path d="M0.18 -0.95 C26.1 -98.41, -14.04 -505.06, 154.4 -584.73 C322.84 -664.4, 867.95 -496.52, 1010.82 -478.97 M-1.19 1.17 C25.2 -96.12, -11.89 -503.56, 156.62 -583.39 C325.12 -663.22, 867.26 -495.25, 1009.84 -477.79" stroke="#1e1e1e" stroke-width="2" fill="none"></path></g><g transform="translate(1904.0200652280123 832.6398867572054) rotate(0 505.6157340173568 -292.17771877947456)"><path d="M985.09 -474.3 C988.66 -476.62, 994.75 -476.47, 1009.84 -477.79 M985.09 -474.3 C991.53 -475.38, 999 -476.51, 1009.84 -477.79" stroke="#1e1e1e" stroke-width="2" fill="none"></path></g><g transform="translate(1904.0200652280123 832.6398867572054) rotate(0 505.6157340173568 -292.17771877947456)"><path d="M988.63 -491.03 C991.47 -489.87, 996.83 -486.24, 1009.84 -477.79 M988.63 -491.03 C994.15 -487.5, 1000.64 -484, 1009.84 -477.79" stroke="#1e1e1e" stroke-width="2" fill="none"></path></g></g><mask></mask><g stroke-linecap="round"><g transform="translate(2077.4182504408113 940.12083005155) rotate(0 19.12181411545066 1.603590194846788)"><path d="M-0.43 -0.17 C5.9 0.41, 31.58 2.57, 38.06 3.08 M0.35 -0.74 C6.59 -0.03, 31.22 3.04, 37.53 3.71" stroke="#1e1e1e" stroke-width="2" fill="none"></path></g><g transform="translate(2077.4182504408113 940.12083005155) rotate(0 19.12181411545066 1.603590194846788)"><path d="M18.86 8.14 C24.45 6.49, 30.41 5.75, 37.53 3.71 M18.86 8.14 C23.47 6.89, 27.57 6.51, 37.53 3.71" stroke="#1e1e1e" stroke-width="2" fill="none"></path></g><g transform="translate(2077.4182504408113 940.12083005155) rotate(0 19.12181411545066 1.603590194846788)"><path d="M20.38 -4.9 C25.44 -2.45, 30.92 0.92, 37.53 3.71 M20.38 -4.9 C24.6 -3, 28.34 -0.25, 37.53 3.71" stroke="#1e1e1e" stroke-width="2" fill="none"></path></g></g><mask></mask><g stroke-linecap="round"><g transform="translate(2261.232968465094 1101.6774472018276) rotate(0 38.54032894209695 42.21083646039165)"><path d="M-0.41 -0.28 C12.66 13.74, 64.65 69.65, 77.49 83.72 M1.58 -1.47 C14.61 12.72, 64.42 70.43, 76.76 84.88" stroke="#1e1e1e" stroke-width="2" fill="none"></path></g><g transform="translate(2261.232968465094 1101.6774472018276) rotate(0 38.54032894209695 42.21083646039165)"><path d="M54.95 72.64 C59.29 76.11, 63.41 77.35, 76.76 84.88 M54.95 72.64 C60.34 77.08, 66.58 79.24, 76.76 84.88" stroke="#1e1e1e" stroke-width="2" fill="none"></path></g><g transform="translate(2261.232968465094 1101.6774472018276) rotate(0 38.54032894209695 42.21083646039165)"><path d="M67.92 61.49 C69.34 67.39, 70.59 71.11, 76.76 84.88 M67.92 61.49 C69.77 68.93, 72.46 74.15, 76.76 84.88" stroke="#1e1e1e" stroke-width="2" fill="none"></path></g></g><mask></mask><g transform="translate(1936.5539781880161 140.24284274139728) rotate(0 128.56195068359375 17.5)"><text x="0" y="0" font-family="Virgil, Segoe UI Emoji" font-size="28px" fill="#1e1e1e" text-anchor="start" style="white-space: pre;" direction="ltr" dominant-baseline="text-before-edge">Download tar files</text></g><g transform="translate(2971.179891918528 398.2636459960446) rotate(0 84.32197570800781 35)"><text x="0" y="0" font-family="Virgil, Segoe UI Emoji" font-size="28px" fill="#1e1e1e" text-anchor="start" style="white-space: pre;" direction="ltr" dominant-baseline="text-before-edge">24-48h logs</text><text x="0" y="35" font-family="Virgil, Segoe UI Emoji" font-size="28px" fill="#1e1e1e" text-anchor="start" style="white-space: pre;" direction="ltr" dominant-baseline="text-before-edge">tar files</text></g><g stroke-linecap="round" transform="translate(2936.690951388813 678.5827655701416) rotate(0 108.39381309339115 102.23507371308483)"><path d="M136.25 25.75 C149.14 37.79, 165.82 51.72, 189.54 77.25 M136.25 25.75 C151.1 40.57, 166.28 55.57, 189.54 77.25 M189.54 77.25 C215.61 101.04, 215.98 101.27, 189.54 128.75 M189.54 77.25 C215.42 103.92, 217.13 102.71, 189.54 128.75 M189.54 128.75 C170.89 146.56, 155.84 162.39, 136.25 178.72 M189.54 128.75 C170.34 147.13, 152.36 163.34, 136.25 178.72 M136.25 178.72 C107.42 203.67, 107.39 204.47, 81.75 178.72 M136.25 178.72 C109.17 205.84, 110.91 204.03, 81.75 178.72 M81.75 178.72 C63.46 162, 45.65 146.44, 27.25 128.75 M81.75 178.72 C61.9 159.62, 40.82 141.68, 27.25 128.75 M27.25 128.75 C0.95 103.98, 0.48 104.4, 27.25 77.25 M27.25 128.75 C-0.92 102.36, -1.31 104.49, 27.25 77.25 M27.25 77.25 C43.46 63.73, 61.8 45.51, 81.75 25.75 M27.25 77.25 C39 68.33, 50.31 56.82, 81.75 25.75 M81.75 25.75 C108.54 1.96, 109.13 -1.16, 136.25 25.75 M81.75 25.75 C107.84 -0.07, 109.09 1.53, 136.25 25.75" stroke="#1e1e1e" stroke-width="2" fill="none"></path></g><g transform="translate(2966.2529004142834 767.5283107304881) rotate(0 97.95796203613281 17.5)"><text x="0" y="0" font-family="Virgil, Segoe UI Emoji" font-size="28px" fill="#1e1e1e" text-anchor="start" style="white-space: pre;" direction="ltr" dominant-baseline="text-before-edge">Tar processor</text></g><g stroke-linecap="round"><g transform="translate(3050.0117559864493 883.0529129963115) rotate(0 1.231747876061263 118.24779610188136)"><path d="M-0.42 -0.24 C0.3 38.81, 3.21 196.01, 3.58 235.45 M1.56 -1.41 C2.28 38.25, 3.36 196.59, 3.21 236.44" stroke="#1e1e1e" stroke-width="2" fill="none"></path></g><g transform="translate(3050.0117559864493 883.0529129963115) rotate(0 1.231747876061263 118.24779610188136)"><path d="M-5.4 212.97 C-3.51 220.45, -2.8 223.06, 3.21 236.44 M-5.4 212.97 C-3.54 218.8, -0.84 225.78, 3.21 236.44" stroke="#1e1e1e" stroke-width="2" fill="none"></path></g><g transform="translate(3050.0117559864493 883.0529129963115) rotate(0 1.231747876061263 118.24779610188136)"><path d="M11.71 212.93 C9.52 220.35, 6.15 222.97, 3.21 236.44 M11.71 212.93 C8.56 218.86, 6.27 225.84, 3.21 236.44" stroke="#1e1e1e" stroke-width="2" fill="none"></path></g></g><mask></mask><g stroke-linecap="round"><g transform="translate(3037.6942772258362 685.9732528265095) rotate(0 -2.463495752122526 -70.20962893549199)"><path d="M1.11 -1.04 C0.25 -24.42, -4.53 -117.38, -5.6 -140.51 M0.24 1.02 C-0.19 -22.14, -2.16 -115.21, -3.24 -139.02" stroke="#1e1e1e" stroke-width="2" fill="none"></path></g><g transform="translate(3037.6942772258362 685.9732528265095) rotate(0 -2.463495752122526 -70.20962893549199)"><path d="M6.04 -115.81 C1.89 -123, 1.01 -128.66, -3.24 -139.02 M6.04 -115.81 C2.54 -124.86, -0.89 -131.69, -3.24 -139.02" stroke="#1e1e1e" stroke-width="2" fill="none"></path></g><g transform="translate(3037.6942772258362 685.9732528265095) rotate(0 -2.463495752122526 -70.20962893549199)"><path d="M-11.05 -115.27 C-10.67 -122.76, -7.02 -128.57, -3.24 -139.02 M-11.05 -115.27 C-8.59 -124.34, -6.06 -131.36, -3.24 -139.02" stroke="#1e1e1e" stroke-width="2" fill="none"></path></g></g><mask></mask><g transform="translate(2759.3192572359912 713.3314041837925) rotate(0 112.05594635009766 17.5)"><text x="0" y="0" font-family="Virgil, Segoe UI Emoji" font-size="28px" fill="#1e1e1e" text-anchor="start" style="white-space: pre;" direction="ltr" dominant-baseline="text-before-edge">Flush every hour</text></g><g transform="translate(2865.2495745772594 1666.0586510906355) rotate(0 463.455810546875 140)"><text x="0" y="0" font-family="Virgil, Segoe UI Emoji" font-size="28px" fill="#1e1e1e" text-anchor="start" style="white-space: pre;" direction="ltr" dominant-baseline="text-before-edge">Primary index: (timestamp, service)</text><text x="0" y="35" font-family="Virgil, Segoe UI Emoji" font-size="28px" fill="#1e1e1e" text-anchor="start" style="white-space: pre;" direction="ltr" dominant-baseline="text-before-edge">Secondary indexes:</text><text x="0" y="70" font-family="Virgil, Segoe UI Emoji" font-size="28px" fill="#1e1e1e" text-anchor="start" style="white-space: pre;" direction="ltr" dominant-baseline="text-before-edge">    logLevel</text><text x="0" y="105" font-family="Virgil, Segoe UI Emoji" font-size="28px" fill="#1e1e1e" text-anchor="start" style="white-space: pre;" direction="ltr" dominant-baseline="text-before-edge">    env</text><text x="0" y="140" font-family="Virgil, Segoe UI Emoji" font-size="28px" fill="#1e1e1e" text-anchor="start" style="white-space: pre;" direction="ltr" dominant-baseline="text-before-edge">    region</text><text x="0" y="175" font-family="Virgil, Segoe UI Emoji" font-size="28px" fill="#1e1e1e" text-anchor="start" style="white-space: pre;" direction="ltr" dominant-baseline="text-before-edge">    tenantId</text><text x="0" y="210" font-family="Virgil, Segoe UI Emoji" font-size="28px" fill="#1e1e1e" text-anchor="start" style="white-space: pre;" direction="ltr" dominant-baseline="text-before-edge">Inverted index: On message (for regex search)</text><text x="0" y="245" font-family="Virgil, Segoe UI Emoji" font-size="28px" fill="#1e1e1e" text-anchor="start" style="white-space: pre;" direction="ltr" dominant-baseline="text-before-edge">Bloom filter: On message to fast-fail queries with unlikely matches</text></g><g transform="translate(2862.786078825133 1348.5273971507634) rotate(0 80.86396789550781 157.5)"><text x="0" y="0" font-family="Virgil, Segoe UI Emoji" font-size="28px" fill="#1e1e1e" text-anchor="start" style="white-space: pre;" direction="ltr" dominant-baseline="text-before-edge">LogEntry</text><text x="0" y="35" font-family="Virgil, Segoe UI Emoji" font-size="28px" fill="#1e1e1e" text-anchor="start" style="white-space: pre;" direction="ltr" dominant-baseline="text-before-edge">- id</text><text x="0" y="70" font-family="Virgil, Segoe UI Emoji" font-size="28px" fill="#1e1e1e" text-anchor="start" style="white-space: pre;" direction="ltr" dominant-baseline="text-before-edge">- service</text><text x="0" y="105" font-family="Virgil, Segoe UI Emoji" font-size="28px" fill="#1e1e1e" text-anchor="start" style="white-space: pre;" direction="ltr" dominant-baseline="text-before-edge">- env</text><text x="0" y="140" font-family="Virgil, Segoe UI Emoji" font-size="28px" fill="#1e1e1e" text-anchor="start" style="white-space: pre;" direction="ltr" dominant-baseline="text-before-edge">- timestamp</text><text x="0" y="175" font-family="Virgil, Segoe UI Emoji" font-size="28px" fill="#1e1e1e" text-anchor="start" style="white-space: pre;" direction="ltr" dominant-baseline="text-before-edge">- logLevel</text><text x="0" y="210" font-family="Virgil, Segoe UI Emoji" font-size="28px" fill="#1e1e1e" text-anchor="start" style="white-space: pre;" direction="ltr" dominant-baseline="text-before-edge">- tenantId</text><text x="0" y="245" font-family="Virgil, Segoe UI Emoji" font-size="28px" fill="#1e1e1e" text-anchor="start" style="white-space: pre;" direction="ltr" dominant-baseline="text-before-edge">- message</text><text x="0" y="280" font-family="Virgil, Segoe UI Emoji" font-size="28px" fill="#1e1e1e" text-anchor="start" style="white-space: pre;" direction="ltr" dominant-baseline="text-before-edge">- ...</text></g><g transform="translate(2884.957540594236 1970.7530301020215) rotate(0 251.91586303710938 87.5)"><text x="0" y="0" font-family="Virgil, Segoe UI Emoji" font-size="28px" fill="#1e1e1e" text-anchor="start" style="white-space: pre;" direction="ltr" dominant-baseline="text-before-edge">TTL: 48h</text><text x="0" y="35" font-family="Virgil, Segoe UI Emoji" font-size="28px" fill="#1e1e1e" text-anchor="start" style="white-space: pre;" direction="ltr" dominant-baseline="text-before-edge"> Retention: 48 hours at full fidelity</text><text x="0" y="70" font-family="Virgil, Segoe UI Emoji" font-size="28px" fill="#1e1e1e" text-anchor="start" style="white-space: pre;" direction="ltr" dominant-baseline="text-before-edge">10 TB/hr × 48 hr = 480 TB</text><text x="0" y="105" font-family="Virgil, Segoe UI Emoji" font-size="28px" fill="#1e1e1e" text-anchor="start" style="white-space: pre;" direction="ltr" dominant-baseline="text-before-edge">Assuming 2× replication:</text><text x="0" y="140" font-family="Virgil, Segoe UI Emoji" font-size="28px" fill="#1e1e1e" text-anchor="start" style="white-space: pre;" direction="ltr" dominant-baseline="text-before-edge">Total = 480 × 2 = ~1 PB</text></g><g transform="translate(3056.8741823587625 1386.6750818136572) rotate(0 69.63597106933594 52.5)"><text x="0" y="0" font-family="Virgil, Segoe UI Emoji" font-size="28px" fill="#1e1e1e" text-anchor="start" style="white-space: pre;" direction="ltr" dominant-baseline="text-before-edge">ExportJob</text><text x="0" y="35" font-family="Virgil, Segoe UI Emoji" font-size="28px" fill="#1e1e1e" text-anchor="start" style="white-space: pre;" direction="ltr" dominant-baseline="text-before-edge">- jobId</text><text x="0" y="70" font-family="Virgil, Segoe UI Emoji" font-size="28px" fill="#1e1e1e" text-anchor="start" style="white-space: pre;" direction="ltr" dominant-baseline="text-before-edge">- s3link</text></g><g transform="translate(3249.55491190837 454.53813721422205) rotate(0 605.009765625 174.99999999999994)"><text x="0" y="0" font-family="Virgil, Segoe UI Emoji" font-size="28px" fill="#1e1e1e" text-anchor="start" style="white-space: pre;" direction="ltr" dominant-baseline="text-before-edge">Throughput:</text><text x="0" y="35" font-family="Virgil, Segoe UI Emoji" font-size="28px" fill="#1e1e1e" text-anchor="start" style="white-space: pre;" direction="ltr" dominant-baseline="text-before-edge">10 TB/hour = 10,000 GB/hour</text><text x="0" y="70" font-family="Virgil, Segoe UI Emoji" font-size="28px" fill="#1e1e1e" text-anchor="start" style="white-space: pre;" direction="ltr" dominant-baseline="text-before-edge">Per minute = 10,000 / 60 ≈ 167 GB/min</text><text x="0" y="105" font-family="Virgil, Segoe UI Emoji" font-size="28px" fill="#1e1e1e" text-anchor="start" style="white-space: pre;" direction="ltr" dominant-baseline="text-before-edge">Per second = 10,000 / 3600 ≈ 2.78 GB/sec</text><text x="0" y="140" font-family="Virgil, Segoe UI Emoji" font-size="28px" fill="#1e1e1e" text-anchor="start" style="white-space: pre;" direction="ltr" dominant-baseline="text-before-edge">Assuming 1 log line = 1 KB (fair average with metadata, structured fields):</text><text x="0" y="175" font-family="Virgil, Segoe UI Emoji" font-size="28px" fill="#1e1e1e" text-anchor="start" style="white-space: pre;" direction="ltr" dominant-baseline="text-before-edge">Logs/sec = 2.78 GB / 1 KB = 2.78 million logs/sec</text><text x="0" y="210" font-family="Virgil, Segoe UI Emoji" font-size="28px" fill="#1e1e1e" text-anchor="start" style="white-space: pre;" direction="ltr" dominant-baseline="text-before-edge"></text><text x="0" y="245" font-family="Virgil, Segoe UI Emoji" font-size="28px" fill="#1e1e1e" text-anchor="start" style="white-space: pre;" direction="ltr" dominant-baseline="text-before-edge">Kafka best practices: partition size ~50–100 MB/sec</text><text x="0" y="280" font-family="Virgil, Segoe UI Emoji" font-size="28px" fill="#1e1e1e" text-anchor="start" style="white-space: pre;" direction="ltr" dominant-baseline="text-before-edge">So, partitions = 2.78 GB/sec ÷ 100 MB/sec = ~28–30 Kafka partitions (at minimum)</text><text x="0" y="315" font-family="Virgil, Segoe UI Emoji" font-size="28px" fill="#1e1e1e" text-anchor="start" style="white-space: pre;" direction="ltr" dominant-baseline="text-before-edge">Add buffer for scaling, say 50–100 partitions</text></g><g transform="translate(2872.6400618336174 83.71528397616709) rotate(0 376.0958251953125 87.49999999999997)"><text x="0" y="0" font-family="Virgil, Segoe UI Emoji" font-size="28px" fill="#1e1e1e" text-anchor="start" style="white-space: pre;" direction="ltr" dominant-baseline="text-before-edge">If we flush logs hourly for archive:</text><text x="0" y="35" font-family="Virgil, Segoe UI Emoji" font-size="28px" fill="#1e1e1e" text-anchor="start" style="white-space: pre;" direction="ltr" dominant-baseline="text-before-edge">Each hour = 10 TB</text><text x="0" y="70" font-family="Virgil, Segoe UI Emoji" font-size="28px" fill="#1e1e1e" text-anchor="start" style="white-space: pre;" direction="ltr" dominant-baseline="text-before-edge">Each tar file job processes 10 TB and uploads to S3</text><text x="0" y="105" font-family="Virgil, Segoe UI Emoji" font-size="28px" fill="#1e1e1e" text-anchor="start" style="white-space: pre;" direction="ltr" dominant-baseline="text-before-edge">Export window = past 24–48 hrs</text><text x="0" y="140" font-family="Virgil, Segoe UI Emoji" font-size="28px" fill="#1e1e1e" text-anchor="start" style="white-space: pre;" direction="ltr" dominant-baseline="text-before-edge">S3 cold storage = 240–480 TB</text></g><g transform="translate(3264.4590273322515 990.3062037788031) rotate(0 482.9717712402346 70)"><text x="0" y="0" font-family="Virgil, Segoe UI Emoji" font-size="28px" fill="#1e1e1e" text-anchor="start" style="white-space: pre;" direction="ltr" dominant-baseline="text-before-edge">Kafka config</text><text x="0" y="35" font-family="Virgil, Segoe UI Emoji" font-size="28px" fill="#1e1e1e" text-anchor="start" style="white-space: pre;" direction="ltr" dominant-baseline="text-before-edge">log.retention.hours=12</text><text x="0" y="70" font-family="Virgil, Segoe UI Emoji" font-size="28px" fill="#1e1e1e" text-anchor="start" style="white-space: pre;" direction="ltr" dominant-baseline="text-before-edge">log.segment.bytes=1GB   # For faster compaction and segment delete</text><text x="0" y="105" font-family="Virgil, Segoe UI Emoji" font-size="28px" fill="#1e1e1e" text-anchor="start" style="white-space: pre;" direction="ltr" dominant-baseline="text-before-edge">log.retention.bytes=-1  # Don't restrict by size, only by time</text></g><g stroke-linecap="round" transform="translate(2501.9626927224945 873.4993929641207) rotate(0 122.70055959237447 99.32902443192233)"><path d="M160.56 4.94 C174.53 7.29, 189.61 15.87, 200.96 23.28 C212.3 30.69, 221.51 39.31, 228.62 49.41 C235.74 59.52, 241.37 71.93, 243.66 83.9 C245.96 95.88, 245.48 109.32, 242.4 121.26 C239.31 133.2, 233.42 145.59, 225.15 155.54 C216.88 165.5, 205 174.32, 192.78 180.99 C180.55 187.67, 166.2 192.84, 151.82 195.61 C137.44 198.38, 121.23 199.1, 106.52 197.61 C91.81 196.11, 76.34 192.26, 63.55 186.62 C50.75 180.99, 39.2 172.82, 29.76 163.78 C20.32 154.74, 11.94 143.76, 6.9 132.39 C1.86 121.02, -1 107.54, -0.46 95.56 C0.09 83.58, 4.16 71.45, 10.18 60.52 C16.19 49.59, 25.2 38.66, 35.64 29.98 C46.08 21.3, 59.48 13.5, 72.82 8.43 C86.15 3.37, 98.32 -0.66, 115.63 -0.42 C132.95 -0.17, 164.57 6.96, 176.7 9.92 C188.83 12.88, 189.48 15.72, 188.42 17.34 M152.18 1.73 C166.44 3.56, 182.53 12.84, 194.95 19.99 C207.37 27.13, 218.77 34.53, 226.68 44.59 C234.6 54.64, 239.56 68.68, 242.43 80.33 C245.29 91.98, 246.34 102.93, 243.89 114.48 C241.43 126.04, 235.2 139.02, 227.71 149.64 C220.21 160.26, 210.43 170.76, 198.91 178.21 C187.4 185.67, 172.78 191.02, 158.61 194.37 C144.45 197.71, 128.49 199.04, 113.9 198.28 C99.31 197.52, 84.51 194.64, 71.07 189.8 C57.63 184.97, 43.67 178.13, 33.26 169.27 C22.85 160.42, 14.32 148.05, 8.63 136.69 C2.93 125.33, -0.45 113.17, -0.9 101.12 C-1.35 89.06, 0.62 75.69, 5.91 64.38 C11.21 53.07, 21.11 41.98, 30.87 33.27 C40.62 24.57, 51.48 17.67, 64.43 12.15 C77.39 6.64, 93.76 1.84, 108.61 0.18 C123.45 -1.48, 146.08 1.6, 153.52 2.2 C160.96 2.79, 153.88 2.1, 153.24 3.74" stroke="#1e1e1e" stroke-width="2" fill="none"></path></g><g stroke-linecap="round"><g transform="translate(2461.0625061917035 1183.1722338401137) rotate(0 37.978744635734984 -67.19316358630033)"><path d="M0.75 0.64 C13.06 -21.86, 62.39 -112.12, 74.94 -134.47 M-0.31 -0.06 C12.27 -22.42, 64.51 -110.43, 77.12 -132.98" stroke="#1e1e1e" stroke-width="2" fill="none"></path></g><g transform="translate(2461.0625061917035 1183.1722338401137) rotate(0 37.978744635734984 -67.19316358630033)"><path d="M72.76 -108.36 C75.42 -119.68, 75.9 -127.42, 77.12 -132.98 M72.76 -108.36 C73.37 -117.94, 74.98 -126.74, 77.12 -132.98" stroke="#1e1e1e" stroke-width="2" fill="none"></path></g><g transform="translate(2461.0625061917035 1183.1722338401137) rotate(0 37.978744635734984 -67.19316358630033)"><path d="M57.96 -116.92 C66.43 -125, 72.68 -129.4, 77.12 -132.98 M57.96 -116.92 C64.18 -123.19, 71.33 -128.79, 77.12 -132.98" stroke="#1e1e1e" stroke-width="2" fill="none"></path></g></g><mask></mask><g transform="translate(2525.3342278829473 927.5206355288769) rotate(0 140.36392211914062 35)"><text x="0" y="0" font-family="Virgil, Segoe UI Emoji" font-size="28px" fill="#1e1e1e" text-anchor="start" style="white-space: pre;" direction="ltr" dominant-baseline="text-before-edge">Redis</text><text x="0" y="35" font-family="Virgil, Segoe UI Emoji" font-size="28px" fill="#1e1e1e" text-anchor="start" style="white-space: pre;" direction="ltr" dominant-baseline="text-before-edge">for frequent queries</text></g><g transform="translate(2712.3065091665662 1031.9748995240434) rotate(0 54.62797546386719 17.5)"><text x="0" y="0" font-family="Virgil, Segoe UI Emoji" font-size="28px" fill="#1e1e1e" text-anchor="start" style="white-space: pre;" direction="ltr" dominant-baseline="text-before-edge">TTL 1hr</text></g><g stroke-linecap="round"><g transform="translate(2727.2483200743654 634.1113887499573) rotate(0 266.2394388150292 118.9348312739271)"><path d="M0.92 -0.27 C89.63 39.34, 444.8 197.64, 533.32 237.36 M-0.06 -1.46 C88.48 38.34, 444.29 198.48, 532.81 238.63" stroke="#1e1e1e" stroke-width="2" fill="none"></path></g><g transform="translate(2727.2483200743654 634.1113887499573) rotate(0 266.2394388150292 118.9348312739271)"><path d="M507.88 236.76 C517.02 238.68, 526.23 237.28, 532.81 238.63 M507.88 236.76 C515.55 236.95, 522.85 237.83, 532.81 238.63" stroke="#1e1e1e" stroke-width="2" fill="none"></path></g><g transform="translate(2727.2483200743654 634.1113887499573) rotate(0 266.2394388150292 118.9348312739271)"><path d="M514.92 221.17 C521.31 229.15, 527.8 233.75, 532.81 238.63 M514.92 221.17 C520.43 226.27, 525.52 232.07, 532.81 238.63" stroke="#1e1e1e" stroke-width="2" fill="none"></path></g></g><mask></mask><g stroke-linecap="round" transform="translate(2406.451619207075 535.9083170558883) rotate(0 160.39835043364474 53.466116811214874)"><path d="M26.73 0 C83.5 0.33, 137.27 -0.43, 294.06 0 M26.73 0 C123.58 -0.4, 219.76 -0.92, 294.06 0 M294.06 0 C311.43 1.49, 320.5 8.82, 320.8 26.73 M294.06 0 C312.44 -1.94, 319.8 9.44, 320.8 26.73 M320.8 26.73 C320.65 41.88, 322.81 55.22, 320.8 80.2 M320.8 26.73 C321.03 38.85, 320.64 49.61, 320.8 80.2 M320.8 80.2 C322.04 96.64, 310.18 107.31, 294.06 106.93 M320.8 80.2 C323.05 98.98, 309.78 104.84, 294.06 106.93 M294.06 106.93 C235.9 107.11, 180.12 105.95, 26.73 106.93 M294.06 106.93 C236.31 109.02, 178.88 109.32, 26.73 106.93 M26.73 106.93 C7.82 105.08, 1.05 96.09, 0 80.2 M26.73 106.93 C7.89 108.24, -2.19 98.66, 0 80.2 M0 80.2 C1.23 57.68, 0.97 38.75, 0 26.73 M0 80.2 C1.12 68.27, 0.02 54.24, 0 26.73 M0 26.73 C-1.65 8.22, 7.03 0.24, 26.73 0 M0 26.73 C-0.88 7.37, 6.86 1.58, 26.73 0" stroke="#1e1e1e" stroke-width="2" fill="none"></path></g><g transform="translate(2469.738043187697 586.1009981439676) rotate(0 107.90990447998047 12.5)"><text x="0" y="0" font-family="Virgil, Segoe UI Emoji" font-size="20px" fill="#1e1e1e" text-anchor="start" style="white-space: pre;" direction="ltr" dominant-baseline="text-before-edge">Real time logs service</text></g><g stroke-linecap="round"><g transform="translate(2063.832013518882 841.4289845485448) rotate(0 29.46092150822028 -37.0989381955369)"><path d="M-0.57 1.11 C8.94 -11.02, 48.21 -61.24, 58.2 -73.67 M1.33 0.65 C11.13 -11.76, 50.95 -62.84, 60.53 -75.51" stroke="#1e1e1e" stroke-width="2" fill="none"></path></g><g transform="translate(2063.832013518882 841.4289845485448) rotate(0 29.46092150822028 -37.0989381955369)"><path d="M52.97 -51.68 C57.99 -62.26, 60 -69.73, 60.53 -75.51 M52.97 -51.68 C54.94 -60.9, 58.27 -69.21, 60.53 -75.51" stroke="#1e1e1e" stroke-width="2" fill="none"></path></g><g transform="translate(2063.832013518882 841.4289845485448) rotate(0 29.46092150822028 -37.0989381955369)"><path d="M39.42 -62.11 C49.71 -68.51, 57.07 -71.86, 60.53 -75.51 M39.42 -62.11 C46.35 -67.66, 54.61 -72.17, 60.53 -75.51" stroke="#1e1e1e" stroke-width="2" fill="none"></path></g></g><mask></mask><g stroke-linecap="round"><g transform="translate(2264.6027378711988 686.4863603201261) rotate(0 67.65100494480271 -44.7369548828533)"><path d="M0.92 0.48 C23.21 -14.3, 112.72 -73.78, 134.93 -88.89 M-0.06 -0.31 C21.94 -15.42, 111.03 -75.88, 133.79 -90.7" stroke="#1e1e1e" stroke-width="2" fill="none"></path></g><g transform="translate(2264.6027378711988 686.4863603201261) rotate(0 67.65100494480271 -44.7369548828533)"><path d="M118.99 -70.56 C125.71 -79.29, 131.77 -88.52, 133.79 -90.7 M118.99 -70.56 C122.49 -75.36, 126.22 -79.38, 133.79 -90.7" stroke="#1e1e1e" stroke-width="2" fill="none"></path></g><g transform="translate(2264.6027378711988 686.4863603201261) rotate(0 67.65100494480271 -44.7369548828533)"><path d="M109.5 -84.78 C119.97 -87.94, 129.79 -91.51, 133.79 -90.7 M109.5 -84.78 C115.19 -86.12, 121.19 -86.72, 133.79 -90.7" stroke="#1e1e1e" stroke-width="2" fill="none"></path></g></g><mask></mask><g transform="translate(2310.4308379950976 686.4863603201261) rotate(0 49.989952087402344 12.5)"><text x="0" y="0" font-family="Virgil, Segoe UI Emoji" font-size="20px" fill="#1e1e1e" text-anchor="start" style="white-space: pre;" direction="ltr" dominant-baseline="text-before-edge">Websocket</text></g><g transform="translate(2450.0974288488833 649.3874221245894) rotate(0 178.33984375 12.5)"><text x="0" y="0" font-family="Virgil, Segoe UI Emoji" font-size="20px" fill="#1e1e1e" text-anchor="start" style="white-space: pre;" direction="ltr" dominant-baseline="text-before-edge">To enable live debugging dashboards</text></g><g transform="translate(1718.4391446855666 1022.1725499371346) rotate(0 186.67984008789062 50)"><text x="0" y="0" font-family="Virgil, Segoe UI Emoji" font-size="20px" fill="#1e1e1e" text-anchor="start" style="white-space: pre;" direction="ltr" dominant-baseline="text-before-edge">Enforce time bounded queries from UI</text><text x="0" y="25" font-family="Virgil, Segoe UI Emoji" font-size="20px" fill="#1e1e1e" text-anchor="start" style="white-space: pre;" direction="ltr" dominant-baseline="text-before-edge">For larger time bounds, accept job</text><text x="0" y="50" font-family="Virgil, Segoe UI Emoji" font-size="20px" fill="#1e1e1e" text-anchor="start" style="white-space: pre;" direction="ltr" dominant-baseline="text-before-edge">to be scheduled in background</text><text x="0" y="75" font-family="Virgil, Segoe UI Emoji" font-size="20px" fill="#1e1e1e" text-anchor="start" style="white-space: pre;" direction="ltr" dominant-baseline="text-before-edge">and return tar download link later</text></g></svg>