<svg version="1.1" xmlns="http://www.w3.org/2000/svg" viewBox="0 0 4820 2220" width="4820" height="2220">
  <!-- svg-source:excalidraw -->
  
  <defs>
    <style class="style-fonts">
      @font-face {
        font-family: "Virgil";
        src: url("https://excalidraw.com/Virgil.woff2");
      }
      @font-face {
        font-family: "Cascadia";
        src: url("https://excalidraw.com/Cascadia.woff2");
      }
      @font-face {
        font-family: "Assistant";
        src: url("https://excalidraw.com/Assistant-Regular.woff2");
      }
    </style>
    
  </defs>
  <rect x="0" y="0" width="4820" height="2220" fill="#FFF"></rect><g mask="url(#mask-KiAVo1uoLULqVBQ2Tl1n6)" stroke-linecap="round"><g transform="translate(2777.7460483043774 1084.1163986296615) rotate(0 -212.69861201720664 79.76197950645246)"><path d="M-0.72 -0.15 C-22.21 11.83, -57.18 44.36, -128.1 71.14 C-199.02 97.93, -376.66 145.68, -426.24 160.56 M1.11 -1.27 C-20.11 10.41, -55.16 42.67, -125.98 69.34 C-196.79 96.01, -373.88 143.92, -423.79 158.76" stroke="#1e1e1e" stroke-width="2" fill="none"></path></g><g transform="translate(2777.7460483043774 1084.1163986296615) rotate(0 -212.69861201720664 79.76197950645246)"><path d="M-15.93 19.7 C-10.41 10.55, -3.52 3.66, -0.72 -0.15 M-15.93 19.7 C-10.72 12.34, -4.1 4.96, -0.72 -0.15" stroke="#1e1e1e" stroke-width="2" fill="none"></path></g><g transform="translate(2777.7460483043774 1084.1163986296615) rotate(0 -212.69861201720664 79.76197950645246)"><path d="M-25.12 5.28 C-16.28 1.53, -5.98 -0.01, -0.72 -0.15 M-25.12 5.28 C-16.39 3.42, -6.22 1.61, -0.72 -0.15" stroke="#1e1e1e" stroke-width="2" fill="none"></path></g><g transform="translate(2777.7460483043774 1084.1163986296615) rotate(0 -212.69861201720664 79.76197950645246)"><path d="M-403.55 144.09 C-411.38 147.53, -417.64 153.44, -423.79 158.76 M-403.55 144.09 C-412.09 150.33, -419.16 156.28, -423.79 158.76" stroke="#1e1e1e" stroke-width="2" fill="none"></path></g><g transform="translate(2777.7460483043774 1084.1163986296615) rotate(0 -212.69861201720664 79.76197950645246)"><path d="M-398.85 160.53 C-408.33 157.84, -416.33 157.66, -423.79 158.76 M-398.85 160.53 C-409.18 160.46, -418.06 160.06, -423.79 158.76" stroke="#1e1e1e" stroke-width="2" fill="none"></path></g></g><mask id="mask-KiAVo1uoLULqVBQ2Tl1n6"><rect x="0" y="0" fill="#fff" width="3303.1432723387907" height="1343.6403576425664"></rect><rect x="2552.544669521157" y="1142.1542036353676" fill="#000" width="196.46665954589844" height="25" opacity="1"></rect></mask><g transform="translate(2552.544669521157 1142.1542036353674) rotate(0 12.634159395844563 21.60780907767912)"><text x="98.23332977294922" y="0" font-family="Virgil, Segoe UI Emoji" font-size="20px" fill="#1e1e1e" text-anchor="middle" style="white-space: pre;" direction="ltr" dominant-baseline="text-before-edge">updateNotification()</text></g><g stroke-linecap="round" transform="translate(10 10) rotate(0 625 215)"><path d="M32 0 C447.01 3.33, 860.7 3.12, 1218 0 M32 0 C469.7 -3.56, 906.69 -3.23, 1218 0 M1218 0 C1239.44 -1.67, 1249.85 9.89, 1250 32 M1218 0 C1240.42 -0.28, 1252.11 9.64, 1250 32 M1250 32 C1250.94 145.93, 1251.8 260.84, 1250 398 M1250 32 C1247.67 163.14, 1247.98 294.12, 1250 398 M1250 398 C1250.87 417.77, 1240.98 428.12, 1218 430 M1250 398 C1249.63 420.02, 1241.04 429.52, 1218 430 M1218 430 C762.38 433.3, 307.94 432.19, 32 430 M1218 430 C795.11 428.42, 372 428.37, 32 430 M32 430 C9.82 429.68, 1.08 419.24, 0 398 M32 430 C8.94 430.68, -1.95 421.3, 0 398 M0 398 C0.85 283.54, 1.96 170.05, 0 32 M0 398 C-1.53 317.06, -1.3 235.53, 0 32 M0 32 C-0.5 12.65, 9.11 -1.66, 32 0 M0 32 C0.3 11.33, 11.18 -1.51, 32 0" stroke="#000000" stroke-width="1" fill="none"></path></g><g transform="translate(60 50) rotate(0 500 20)"><text x="0" y="0" font-family="Cascadia, Segoe UI Emoji" font-size="30px" fill="#000000" text-anchor="start" style="white-space: pre;" direction="ltr" dominant-baseline="text-before-edge">Functional Requirements</text></g><g stroke-linecap="round" transform="translate(10 490) rotate(0 625 160)"><path d="M32 0 C295.9 5.44, 561.14 4.04, 1218 0 M32 0 C366.73 -0.58, 700.67 -0.13, 1218 0 M1218 0 C1238.88 1.89, 1248.98 11.78, 1250 32 M1218 0 C1238.68 -1.17, 1248.33 10.88, 1250 32 M1250 32 C1249.51 101.58, 1248.36 172.16, 1250 288 M1250 32 C1248.66 125.65, 1248.56 218.15, 1250 288 M1250 288 C1250.83 308.07, 1237.44 320.41, 1218 320 M1250 288 C1250.4 309.89, 1237.65 320.41, 1218 320 M1218 320 C978.21 322.6, 737.18 323.99, 32 320 M1218 320 C954.73 316.04, 691.15 315.9, 32 320 M32 320 C12.64 318.06, -1.12 309.72, 0 288 M32 320 C10.24 318.41, -2.09 308.43, 0 288 M0 288 C-0.11 215.2, 0.24 140.16, 0 32 M0 288 C-0.41 222.6, 0.04 156.2, 0 32 M0 32 C0.84 12.26, 11.63 -1.47, 32 0 M0 32 C0.73 9.18, 8.85 -2.2, 32 0" stroke="#000000" stroke-width="1" fill="none"></path></g><g transform="translate(60 530) rotate(0 500 20)"><text x="0" y="0" font-family="Cascadia, Segoe UI Emoji" font-size="30px" fill="#000000" text-anchor="start" style="white-space: pre;" direction="ltr" dominant-baseline="text-before-edge">Non-Functional Requirements</text></g><g stroke-linecap="round" transform="translate(10 860) rotate(0 625 200)"><path d="M32 0 C443.06 -0.53, 855.08 -0.57, 1218 0 M32 0 C416.77 1.94, 802.16 1.96, 1218 0 M1218 0 C1239.07 -0.2, 1249.45 10.6, 1250 32 M1218 0 C1237.3 0.94, 1251.2 10.42, 1250 32 M1250 32 C1249.94 116.24, 1247.77 202.16, 1250 368 M1250 32 C1249 111.65, 1248.16 190.19, 1250 368 M1250 368 C1251.59 389.99, 1239.6 398.15, 1218 400 M1250 368 C1249.94 388.34, 1239.15 401.16, 1218 400 M1218 400 C761.58 397.06, 303.22 397.58, 32 400 M1218 400 C975.52 395.86, 733.8 395.64, 32 400 M32 400 C10.35 399.63, -0.38 390.15, 0 368 M32 400 C10.37 398.2, 1.87 389.13, 0 368 M0 368 C-0.3 237.82, 0.33 107.69, 0 32 M0 368 C2.02 273.01, 2.18 179.24, 0 32 M0 32 C0.44 11.07, 11.18 -1.13, 32 0 M0 32 C-1.63 12.4, 9.17 -0.58, 32 0" stroke="#000000" stroke-width="1" fill="none"></path></g><g transform="translate(60 910) rotate(0 500 25)"><text x="0" y="0" font-family="Cascadia, Segoe UI Emoji" font-size="30px" fill="#000000" text-anchor="start" style="white-space: pre;" direction="ltr" dominant-baseline="text-before-edge">Core Entities</text></g><g stroke-linecap="round" transform="translate(10 1310) rotate(0 625 450)"><path d="M32 0 C341.27 1.24, 651.65 0.38, 1218 0 M32 0 C313.15 4.57, 593.87 4.09, 1218 0 M1218 0 C1241.13 0.52, 1250.26 12.25, 1250 32 M1218 0 C1239.21 -0.68, 1250.05 11.6, 1250 32 M1250 32 C1248.16 219.53, 1248.39 406.81, 1250 868 M1250 32 C1249.41 210.26, 1248.96 388.35, 1250 868 M1250 868 C1251.36 887.54, 1238.33 900.95, 1218 900 M1250 868 C1250.97 891.38, 1239.86 900.21, 1218 900 M1218 900 C948.84 897.06, 680.15 897.78, 32 900 M1218 900 C976.35 901.42, 734.21 901.34, 32 900 M32 900 C11.68 901.87, -0.85 888.98, 0 868 M32 900 C11.64 901.68, -0.63 888.1, 0 868 M0 868 C-1.44 694.67, -1.49 520.99, 0 32 M0 868 C-0.46 571.71, 0.16 275.26, 0 32 M0 32 C-1.02 11.5, 9.11 1.11, 32 0 M0 32 C0.39 10.48, 12.24 -2.08, 32 0" stroke="#000000" stroke-width="1" fill="none"></path></g><g transform="translate(60 1360) rotate(0 500 25)"><text x="0" y="0" font-family="Cascadia, Segoe UI Emoji" font-size="30px" fill="#000000" text-anchor="start" style="white-space: pre;" direction="ltr" dominant-baseline="text-before-edge">API Routes</text></g><g stroke-linecap="round" transform="translate(1310 10) rotate(0 1750 1100)"><path d="M32 0 C973.44 2.09, 1914.25 3.08, 3468 0 M32 0 C1143.42 -4.11, 2254.16 -3.69, 3468 0 M3468 0 C3488.72 1.49, 3500.34 11.79, 3500 32 M3468 0 C3488.2 0.78, 3501.19 11.93, 3500 32 M3500 32 C3504.37 805.24, 3504.41 1577.68, 3500 2168 M3500 32 C3506.28 813.08, 3506.51 1594.15, 3500 2168 M3500 2168 C3500.24 2188.17, 3489.61 2198.06, 3468 2200 M3500 2168 C3498.64 2187.78, 3487.57 2198.77, 3468 2200 M3468 2200 C2467.82 2213.39, 1467.6 2213.59, 32 2200 M3468 2200 C2632.53 2198.28, 1797.69 2197.85, 32 2200 M32 2200 C9.48 2199.67, -1.82 2190.11, 0 2168 M32 2200 C8.62 2200.1, 1.69 2190.9, 0 2168 M0 2168 C-3.06 1607.49, -2.73 1046, 0 32 M0 2168 C6.11 1624.07, 5.84 1079.72, 0 32 M0 32 C-0.25 11.91, 12.37 1.09, 32 0 M0 32 C-2.01 8.41, 11.54 -0.77, 32 0" stroke="#000000" stroke-width="1" fill="none"></path></g><g transform="translate(1360 60) rotate(0 500 25)"><text x="0" y="0" font-family="Cascadia, Segoe UI Emoji" font-size="30px" fill="#000000" text-anchor="start" style="white-space: pre;" direction="ltr" dominant-baseline="text-before-edge">High-Level Design</text></g><g transform="translate(65.57143663183142 117.65433848338245) rotate(0 555.3494262695312 74.99999999999997)"><text x="0" y="0" font-family="Virgil, Segoe UI Emoji" font-size="20px" fill="#1e1e1e" text-anchor="start" style="white-space: pre;" direction="ltr" dominant-baseline="text-before-edge">1. Client apps should be able to send a notification through a service to iOS, Android, email and SMS channels</text><text x="0" y="25" font-family="Virgil, Segoe UI Emoji" font-size="20px" fill="#1e1e1e" text-anchor="start" style="white-space: pre;" direction="ltr" dominant-baseline="text-before-edge">2. Notification service should respect user preferences for which channel the notification gets sent to. Default</text><text x="0" y="50" font-family="Virgil, Segoe UI Emoji" font-size="20px" fill="#1e1e1e" text-anchor="start" style="white-space: pre;" direction="ltr" dominant-baseline="text-before-edge">settings are to send notifications to all channels</text><text x="0" y="75" font-family="Virgil, Segoe UI Emoji" font-size="20px" fill="#1e1e1e" text-anchor="start" style="white-space: pre;" direction="ltr" dominant-baseline="text-before-edge"></text><text x="0" y="100" font-family="Virgil, Segoe UI Emoji" font-size="20px" fill="#1e1e1e" text-anchor="start" style="white-space: pre;" direction="ltr" dominant-baseline="text-before-edge">Out of scope:</text><text x="0" y="125" font-family="Virgil, Segoe UI Emoji" font-size="20px" fill="#1e1e1e" text-anchor="start" style="white-space: pre;" direction="ltr" dominant-baseline="text-before-edge">Scheduling notifications</text></g><g transform="translate(54.22719017218628 582.7553845891017) rotate(0 413.3666687011719 37.5)"><text x="0" y="0" font-family="Virgil, Segoe UI Emoji" font-size="20px" fill="#1e1e1e" text-anchor="start" style="white-space: pre;" direction="ltr" dominant-baseline="text-before-edge">1. System should be fault tolerant - we should try not to send duplicate messages</text><text x="0" y="25" font-family="Virgil, Segoe UI Emoji" font-size="20px" fill="#1e1e1e" text-anchor="start" style="white-space: pre;" direction="ltr" dominant-baseline="text-before-edge">2. Scale up to 10 million notifications a day</text><text x="0" y="50" font-family="Virgil, Segoe UI Emoji" font-size="20px" fill="#1e1e1e" text-anchor="start" style="white-space: pre;" direction="ltr" dominant-baseline="text-before-edge">3. Messages delivered within 1s</text></g><g transform="translate(56.39758417236186 957.1483496193891) rotate(0 88.5 62.5)"><text x="0" y="0" font-family="Virgil, Segoe UI Emoji" font-size="20px" fill="#1e1e1e" text-anchor="start" style="white-space: pre;" direction="ltr" dominant-baseline="text-before-edge">-Notification</text><text x="0" y="25" font-family="Virgil, Segoe UI Emoji" font-size="20px" fill="#1e1e1e" text-anchor="start" style="white-space: pre;" direction="ltr" dominant-baseline="text-before-edge">-User</text><text x="0" y="50" font-family="Virgil, Segoe UI Emoji" font-size="20px" fill="#1e1e1e" text-anchor="start" style="white-space: pre;" direction="ltr" dominant-baseline="text-before-edge">-User Preferences</text><text x="0" y="75" font-family="Virgil, Segoe UI Emoji" font-size="20px" fill="#1e1e1e" text-anchor="start" style="white-space: pre;" direction="ltr" dominant-baseline="text-before-edge">-Device</text><text x="0" y="100" font-family="Virgil, Segoe UI Emoji" font-size="20px" fill="#1e1e1e" text-anchor="start" style="white-space: pre;" direction="ltr" dominant-baseline="text-before-edge"></text></g><g transform="translate(56.39758417236189 1410.7606956560876) rotate(0 250.17971801757812 112.5)"><text x="0" y="0" font-family="Virgil, Segoe UI Emoji" font-size="20px" fill="#1e1e1e" text-anchor="start" style="white-space: pre;" direction="ltr" dominant-baseline="text-before-edge">POST /notifications/send</text><text x="0" y="25" font-family="Virgil, Segoe UI Emoji" font-size="20px" fill="#1e1e1e" text-anchor="start" style="white-space: pre;" direction="ltr" dominant-baseline="text-before-edge">{</text><text x="0" y="50" font-family="Virgil, Segoe UI Emoji" font-size="20px" fill="#1e1e1e" text-anchor="start" style="white-space: pre;" direction="ltr" dominant-baseline="text-before-edge">   messageText,</text><text x="0" y="75" font-family="Virgil, Segoe UI Emoji" font-size="20px" fill="#1e1e1e" text-anchor="start" style="white-space: pre;" direction="ltr" dominant-baseline="text-before-edge">   recipientUserId,</text><text x="0" y="100" font-family="Virgil, Segoe UI Emoji" font-size="20px" fill="#1e1e1e" text-anchor="start" style="white-space: pre;" direction="ltr" dominant-baseline="text-before-edge">   subject,</text><text x="0" y="125" font-family="Virgil, Segoe UI Emoji" font-size="20px" fill="#1e1e1e" text-anchor="start" style="white-space: pre;" direction="ltr" dominant-baseline="text-before-edge">   channels [iOS, Android, SMS, email]</text><text x="0" y="150" font-family="Virgil, Segoe UI Emoji" font-size="20px" fill="#1e1e1e" text-anchor="start" style="white-space: pre;" direction="ltr" dominant-baseline="text-before-edge">} -&gt; NotificationId</text><text x="0" y="175" font-family="Virgil, Segoe UI Emoji" font-size="20px" fill="#1e1e1e" text-anchor="start" style="white-space: pre;" direction="ltr" dominant-baseline="text-before-edge"></text><text x="0" y="200" font-family="Virgil, Segoe UI Emoji" font-size="20px" fill="#1e1e1e" text-anchor="start" style="white-space: pre;" direction="ltr" dominant-baseline="text-before-edge">GET /notifications/{notificationId} -&gt; Notification</text></g><g stroke-linecap="round" transform="translate(1368.4007572785 525.2399435844507) rotate(0 90.07135100728647 52.089456004213844)"><path d="M26.04 0 C78.43 -1.44, 127.14 2.04, 154.1 0 M26.04 0 C55.3 -1.32, 85.67 -1.51, 154.1 0 M154.1 0 C171.68 0.82, 181.49 9.7, 180.14 26.04 M154.1 0 C173.12 -1.24, 181.83 7.92, 180.14 26.04 M180.14 26.04 C179.68 40.04, 182.02 48.87, 180.14 78.13 M180.14 26.04 C180.84 44.74, 180.39 62.13, 180.14 78.13 M180.14 78.13 C179.28 95.06, 172.03 104.91, 154.1 104.18 M180.14 78.13 C182.11 95.93, 172.04 106.37, 154.1 104.18 M154.1 104.18 C110.14 104.42, 63.54 105.36, 26.04 104.18 M154.1 104.18 C125.72 104.8, 95.52 104.34, 26.04 104.18 M26.04 104.18 C9.86 104.48, 0.41 95.03, 0 78.13 M26.04 104.18 C10.52 106.13, 0.27 93.44, 0 78.13 M0 78.13 C1.66 61.4, 1.78 47.26, 0 26.04 M0 78.13 C-0.39 63.01, 0.35 48.22, 0 26.04 M0 26.04 C-0.53 10.35, 9.35 0.45, 26.04 0 M0 26.04 C-1.8 10.35, 6.87 1.68, 26.04 0" stroke="#1e1e1e" stroke-width="2" fill="none"></path></g><g transform="translate(1409.9971098116653 564.8293995886646) rotate(0 48.474998474121094 12.5)"><text x="48.474998474121094" y="0" font-family="Virgil, Segoe UI Emoji" font-size="20px" fill="#1e1e1e" text-anchor="middle" style="white-space: pre;" direction="ltr" dominant-baseline="text-before-edge">Client App</text></g><g stroke-linecap="round"><g transform="translate(1558.3102322938632 572.2742834761062) rotate(0 56.97284250460882 1.5594709161337619)"><path d="M-0.59 0.85 C18.46 1.41, 95.45 3.71, 114.66 3.93 M1.3 0.25 C20.22 0.43, 95.25 1.77, 114.09 2.24" stroke="#1e1e1e" stroke-width="2" fill="none"></path></g><g transform="translate(1558.3102322938632 572.2742834761062) rotate(0 56.97284250460882 1.5594709161337619)"><path d="M90.42 10.3 C99.64 8.94, 107.43 6.3, 114.09 2.24 M90.42 10.3 C96.47 7.82, 101.65 7.21, 114.09 2.24" stroke="#1e1e1e" stroke-width="2" fill="none"></path></g><g transform="translate(1558.3102322938632 572.2742834761062) rotate(0 56.97284250460882 1.5594709161337619)"><path d="M90.78 -6.79 C99.96 -2.5, 107.63 0.53, 114.09 2.24 M90.78 -6.79 C96.67 -5.46, 101.77 -2.26, 114.09 2.24" stroke="#1e1e1e" stroke-width="2" fill="none"></path></g></g><mask></mask><g stroke-linecap="round" transform="translate(1680.9374933037832 521.9843525841873) rotate(0 73.79339600596973 47.74866800386275)"><path d="M23.87 0 C57.34 -1.81, 94.57 -1.13, 123.71 0 M23.87 0 C58.18 1.09, 90.93 0.79, 123.71 0 M123.71 0 C138.81 1.09, 146.09 6.12, 147.59 23.87 M123.71 0 C139.59 0.57, 147.31 5.95, 147.59 23.87 M147.59 23.87 C146.17 39.4, 147.81 51.62, 147.59 71.62 M147.59 23.87 C147.98 34.68, 146.72 46.25, 147.59 71.62 M147.59 71.62 C145.78 85.93, 138.79 96.27, 123.71 95.5 M147.59 71.62 C148.53 86.47, 140.18 95.22, 123.71 95.5 M123.71 95.5 C87.99 96.98, 48.91 95.26, 23.87 95.5 M123.71 95.5 C86.12 94.7, 48.86 96.16, 23.87 95.5 M23.87 95.5 C9.79 94.5, -1.21 86.21, 0 71.62 M23.87 95.5 C5.88 94.93, -0.17 88.61, 0 71.62 M0 71.62 C-0.25 51.75, 1.62 34.12, 0 23.87 M0 71.62 C0.13 56.7, 0.69 41.46, 0 23.87 M0 23.87 C-0.86 9.02, 9.29 1.01, 23.87 0 M0 23.87 C-2.23 8.96, 9.12 1.88, 23.87 0" stroke="#1e1e1e" stroke-width="2" fill="none"></path></g><g transform="translate(1712.047554959167 544.7330205880501) rotate(0 42.68333435058594 25)"><text x="42.68333435058594" y="0" font-family="Virgil, Segoe UI Emoji" font-size="20px" fill="#1e1e1e" text-anchor="middle" style="white-space: pre;" direction="ltr" dominant-baseline="text-before-edge">Load </text><text x="42.68333435058594" y="25" font-family="Virgil, Segoe UI Emoji" font-size="20px" fill="#1e1e1e" text-anchor="middle" style="white-space: pre;" direction="ltr" dominant-baseline="text-before-edge">Balancer</text></g><g mask="url(#mask-Z53WIqp7ziUrDLyIS0E4K)" stroke-linecap="round"><g transform="translate(1836.120664316337 568.6099384576218) rotate(0 136.19222351101746 1.3272855554485545)"><path d="M0.62 -1.18 C46.15 -0.78, 227.58 0.83, 272.87 1.46 M-0.51 0.81 C44.92 1.39, 226.83 1.86, 272.17 2.38" stroke="#1e1e1e" stroke-width="2" fill="none"></path></g><g transform="translate(1836.120664316337 568.6099384576218) rotate(0 136.19222351101746 1.3272855554485545)"><path d="M248.62 10.78 C253.21 9.14, 259.69 5.94, 272.17 2.38 M248.62 10.78 C256.19 7.79, 262.02 5.39, 272.17 2.38" stroke="#1e1e1e" stroke-width="2" fill="none"></path></g><g transform="translate(1836.120664316337 568.6099384576218) rotate(0 136.19222351101746 1.3272855554485545)"><path d="M248.73 -6.33 C253.16 -3.24, 259.61 -1.73, 272.17 2.38 M248.73 -6.33 C256.27 -4.22, 262.07 -1.51, 272.17 2.38" stroke="#1e1e1e" stroke-width="2" fill="none"></path></g></g><mask id="mask-Z53WIqp7ziUrDLyIS0E4K"><rect x="0" y="0" fill="#fff" width="2208.505111338372" height="671.2645095685189"></rect><rect x="1908.1712176003036" y="544.9372240130702" fill="#000" width="128.28334045410156" height="50" opacity="1"></rect></mask><g transform="translate(1908.1712176003039 544.9372240130704) rotate(0 64.12508677938467 24.27017361550122)"><text x="64.14167022705078" y="0" font-family="Virgil, Segoe UI Emoji" font-size="20px" fill="#1e1e1e" text-anchor="middle" style="white-space: pre;" direction="ltr" dominant-baseline="text-before-edge">Send</text><text x="64.14167022705078" y="25" font-family="Virgil, Segoe UI Emoji" font-size="20px" fill="#1e1e1e" text-anchor="middle" style="white-space: pre;" direction="ltr" dominant-baseline="text-before-edge">Notification()</text></g><g stroke-linecap="round" transform="translate(2122.6126723395128 501.36560958251926) rotate(0 102.55111650829622 58.05803950469675)"><path d="M29.03 0 C80.57 -1.97, 132.16 1.03, 176.07 0 M29.03 0 C85.35 -0.49, 141.07 0.42, 176.07 0 M176.07 0 C194.44 -1.49, 203.16 8.62, 205.1 29.03 M176.07 0 C195.19 2, 203.97 11.69, 205.1 29.03 M205.1 29.03 C207.6 51.41, 207.58 68.85, 205.1 87.09 M205.1 29.03 C203.9 44.2, 204.22 61.17, 205.1 87.09 M205.1 87.09 C206 104.62, 195.31 117.36, 176.07 116.12 M205.1 87.09 C207.32 104.63, 194.87 114.38, 176.07 116.12 M176.07 116.12 C120.27 114.2, 66.1 116.08, 29.03 116.12 M176.07 116.12 C141.1 116.77, 107.51 117, 29.03 116.12 M29.03 116.12 C9.59 116.54, 1.22 105.64, 0 87.09 M29.03 116.12 C9.31 115.35, -2.19 107.38, 0 87.09 M0 87.09 C-1.97 66.68, 1.07 41.72, 0 29.03 M0 87.09 C0.51 66.74, 0.64 47.2, 0 29.03 M0 29.03 C0.49 7.9, 9.58 -0.55, 29.03 0 M0 29.03 C-0.95 9.5, 9.71 0.04, 29.03 0" stroke="#1e1e1e" stroke-width="2" fill="none"></path></g><g transform="translate(2168.5554552601625 534.4236490872161) rotate(0 56.608333587646484 25)"><text x="56.608333587646484" y="0" font-family="Virgil, Segoe UI Emoji" font-size="20px" fill="#1e1e1e" text-anchor="middle" style="white-space: pre;" direction="ltr" dominant-baseline="text-before-edge">Notification</text><text x="56.608333587646484" y="25" font-family="Virgil, Segoe UI Emoji" font-size="20px" fill="#1e1e1e" text-anchor="middle" style="white-space: pre;" direction="ltr" dominant-baseline="text-before-edge">Service</text></g><g stroke-linecap="round"><g transform="translate(2223.2103812595165 485.0876545812025) rotate(0 -1.6277955001316968 -54.8024485044333)"><path d="M1.18 0.3 C0.56 -18.1, -3.58 -91.81, -4.31 -110.32 M0.33 -0.59 C0.14 -18.85, -1.44 -90.92, -2.16 -109.17" stroke="#1e1e1e" stroke-width="2" fill="none"></path></g><g transform="translate(2223.2103812595165 485.0876545812025) rotate(0 -1.6277955001316968 -54.8024485044333)"><path d="M-8.54 -22.74 C-5.64 -18.91, -4.94 -11.43, 1.18 0.3 M-8.54 -22.74 C-6.16 -18.28, -3.97 -12.92, 1.18 0.3" stroke="#1e1e1e" stroke-width="2" fill="none"></path></g><g transform="translate(2223.2103812595165 485.0876545812025) rotate(0 -1.6277955001316968 -54.8024485044333)"><path d="M8.54 -23.59 C7.22 -19.39, 3.71 -11.69, 1.18 0.3 M8.54 -23.59 C7.45 -18.81, 6.17 -13.27, 1.18 0.3" stroke="#1e1e1e" stroke-width="2" fill="none"></path></g><g transform="translate(2223.2103812595165 485.0876545812025) rotate(0 -1.6277955001316968 -54.8024485044333)"><path d="M7.07 -85.93 C5.28 -93.34, 1.31 -97.28, -2.16 -109.17 M7.07 -85.93 C5.72 -90.7, 4.07 -94.73, -2.16 -109.17" stroke="#1e1e1e" stroke-width="2" fill="none"></path></g><g transform="translate(2223.2103812595165 485.0876545812025) rotate(0 -1.6277955001316968 -54.8024485044333)"><path d="M-10.02 -85.43 C-7.59 -93.13, -7.34 -97.2, -2.16 -109.17 M-10.02 -85.43 C-7.9 -90.46, -6.08 -94.59, -2.16 -109.17" stroke="#1e1e1e" stroke-width="2" fill="none"></path></g></g><mask></mask><g stroke-linecap="round" transform="translate(2136.3946212524925 176.8917065562706) rotate(0 84.64536600684755 85.73056300693531)"><path d="M113.87 5.14 C124.57 7.71, 135.29 16.8, 143.42 24.82 C151.54 32.84, 158.3 42.63, 162.61 53.25 C166.92 63.87, 169.51 76.65, 169.28 88.54 C169.04 100.42, 166.23 113.94, 161.19 124.57 C156.16 135.19, 148.09 144.9, 139.08 152.28 C130.07 159.66, 118.12 165.78, 107.14 168.87 C96.17 171.96, 84.64 172.53, 73.25 170.81 C61.85 169.08, 48.58 164.88, 38.78 158.52 C28.98 152.17, 20.56 142.44, 14.43 132.68 C8.31 122.92, 4 111.32, 2.01 99.96 C0.02 88.6, -0.24 75.64, 2.5 64.52 C5.25 53.39, 11.41 42.18, 18.5 33.2 C25.59 24.22, 34.98 16.09, 45.05 10.64 C55.13 5.19, 66.29 0.97, 78.96 0.5 C91.63 0.03, 113.03 5.67, 121.06 7.82 C129.09 9.96, 127.68 11.84, 127.16 13.36 M116.97 6.85 C127.65 9.84, 137.82 16.78, 145.79 25.06 C153.76 33.35, 160.77 45.32, 164.78 56.54 C168.8 67.76, 170.7 80.88, 169.88 92.4 C169.05 103.91, 165.37 115.46, 159.83 125.64 C154.3 135.82, 145.7 146.5, 136.68 153.47 C127.66 160.45, 116.97 164.61, 105.7 167.49 C94.43 170.37, 80.49 172.76, 69.05 170.75 C57.61 168.74, 46.49 162.04, 37.06 155.44 C27.64 148.84, 18.37 140.61, 12.51 131.15 C6.65 121.69, 3.48 110.12, 1.89 98.68 C0.3 87.23, 0 73.78, 2.99 62.48 C5.97 51.18, 12.31 40.09, 19.78 30.89 C27.25 21.7, 37.62 12.55, 47.81 7.29 C58.01 2.04, 69.68 -0.7, 80.97 -0.63 C92.26 -0.57, 109.75 6.2, 115.57 7.68 C121.39 9.16, 116.23 6.94, 115.88 8.27" stroke="#1e1e1e" stroke-width="2" fill="none"></path></g><g transform="translate(2171.753340609295 237.50160710606133) rotate(0 49.43333435058594 25)"><text x="49.43333435058594" y="0" font-family="Virgil, Segoe UI Emoji" font-size="20px" fill="#1e1e1e" text-anchor="middle" style="white-space: pre;" direction="ltr" dominant-baseline="text-before-edge">User </text><text x="49.43333435058594" y="25" font-family="Virgil, Segoe UI Emoji" font-size="20px" fill="#1e1e1e" text-anchor="middle" style="white-space: pre;" direction="ltr" dominant-baseline="text-before-edge">Database</text></g><g transform="translate(2321.9633082675036 45.582869545647895) rotate(0 415.125 50)"><text x="0" y="0" font-family="Virgil, Segoe UI Emoji" font-size="20px" fill="#1e1e1e" text-anchor="start" style="white-space: pre;" direction="ltr" dominant-baseline="text-before-edge">User</text><text x="0" y="25" font-family="Virgil, Segoe UI Emoji" font-size="20px" fill="#1e1e1e" text-anchor="start" style="white-space: pre;" direction="ltr" dominant-baseline="text-before-edge">-id</text><text x="0" y="50" font-family="Virgil, Segoe UI Emoji" font-size="20px" fill="#1e1e1e" text-anchor="start" style="white-space: pre;" direction="ltr" dominant-baseline="text-before-edge">-email</text><text x="0" y="75" font-family="Virgil, Segoe UI Emoji" font-size="20px" fill="#1e1e1e" text-anchor="start" style="white-space: pre;" direction="ltr" dominant-baseline="text-before-edge">-notificationPreferences (json blob of preferences, ex: iOs: True, Android: False etc)</text></g><g stroke-linecap="round"><g transform="translate(2337.1560662687334 564.3070355876112) rotate(0 56.97284250460871 -1.08519700008776)"><path d="M1.07 -0.06 C20.25 -0.43, 95.16 -0.85, 113.92 -1.15 M0.18 -1.14 C19.29 -1.3, 94.2 -2.87, 112.96 -2.74" stroke="#1e1e1e" stroke-width="2" fill="none"></path></g><g transform="translate(2337.1560662687334 564.3070355876112) rotate(0 56.97284250460871 -1.08519700008776)"><path d="M89.54 6.02 C94.14 3.98, 100.71 1.71, 112.96 -2.74 M89.54 6.02 C97.42 3.06, 104.18 1.13, 112.96 -2.74" stroke="#1e1e1e" stroke-width="2" fill="none"></path></g><g transform="translate(2337.1560662687334 564.3070355876112) rotate(0 56.97284250460871 -1.08519700008776)"><path d="M89.39 -11.08 C94.16 -9.64, 100.76 -8.42, 112.96 -2.74 M89.39 -11.08 C97.19 -8.47, 104.01 -4.83, 112.96 -2.74" stroke="#1e1e1e" stroke-width="2" fill="none"></path></g></g><mask></mask><g stroke-linecap="round" transform="translate(2463.0389182789163 504.62120058278276) rotate(0 99.29552550803282 48.83386500395051)"><path d="M24.42 0 C80.05 -0.95, 139.02 0.7, 174.17 0 M24.42 0 C62.41 1.13, 99.12 0.87, 174.17 0 M174.17 0 C190.95 1.85, 199.93 10.1, 198.59 24.42 M174.17 0 C188.67 -1.55, 199.28 7.13, 198.59 24.42 M198.59 24.42 C199.97 36.97, 198.27 51.9, 198.59 73.25 M198.59 24.42 C198.09 37.69, 197.92 52.39, 198.59 73.25 M198.59 73.25 C199 87.92, 192.16 97.3, 174.17 97.67 M198.59 73.25 C196.44 87.43, 190.76 98.77, 174.17 97.67 M174.17 97.67 C133.43 100.05, 89.66 99.84, 24.42 97.67 M174.17 97.67 C138.67 97.67, 104.06 99.11, 24.42 97.67 M24.42 97.67 C9.09 95.93, -0.59 88.73, 0 73.25 M24.42 97.67 C6.94 95.65, 0.72 88.9, 0 73.25 M0 73.25 C-1.24 57.16, 0.66 44.98, 0 24.42 M0 73.25 C0.73 55.49, -0.8 39.04, 0 24.42 M0 24.42 C-0.18 9.24, 8.83 0.84, 24.42 0 M0 24.42 C-1.62 6.62, 10 1.38, 24.42 0" stroke="#1e1e1e" stroke-width="2" fill="none"></path></g><g transform="translate(2480.701112488121 540.9550655867333) rotate(0 81.63333129882812 12.5)"><text x="81.63333129882812" y="0" font-family="Virgil, Segoe UI Emoji" font-size="20px" fill="#1e1e1e" text-anchor="middle" style="white-space: pre;" direction="ltr" dominant-baseline="text-before-edge">iOS Queue (SQS)</text></g><g stroke-linecap="round"><g transform="translate(2336.0708692686453 570.2597707747616) rotate(0 55.345047004477465 68.31870867133432)"><path d="M0.19 -0.78 C18.76 22.02, 93.5 114.48, 111.76 137.42 M-1.17 1.42 C17.31 23.83, 92.48 112.89, 111.38 135.71" stroke="#1e1e1e" stroke-width="2" fill="none"></path></g><g transform="translate(2336.0708692686453 570.2597707747616) rotate(0 55.345047004477465 68.31870867133432)"><path d="M89.74 123.18 C95.6 129.04, 105.29 129.85, 111.38 135.71 M89.74 123.18 C97.41 128.37, 104.5 131.46, 111.38 135.71" stroke="#1e1e1e" stroke-width="2" fill="none"></path></g><g transform="translate(2336.0708692686453 570.2597707747616) rotate(0 55.345047004477465 68.31870867133432)"><path d="M102.86 112.21 C104.47 121.68, 109.87 126.08, 111.38 135.71 M102.86 112.21 C106.29 120.8, 109.17 127.41, 111.38 135.71" stroke="#1e1e1e" stroke-width="2" fill="none"></path></g></g><mask></mask><g stroke-linecap="round" transform="translate(2469.0075017794 666.3155535958634) rotate(0 99.29552550803282 48.83386500395051)"><path d="M24.42 0 C73.75 -0.62, 122.51 1.4, 174.17 0 M24.42 0 C67.61 1.99, 109.45 0.9, 174.17 0 M174.17 0 C191.97 0.23, 200.36 8.01, 198.59 24.42 M174.17 0 C190.68 0.55, 200.28 8.05, 198.59 24.42 M198.59 24.42 C197.17 42.64, 196.98 59.91, 198.59 73.25 M198.59 24.42 C199.1 36.58, 197.82 48.72, 198.59 73.25 M198.59 73.25 C197.71 89.98, 192.09 97.26, 174.17 97.67 M198.59 73.25 C199.72 88.17, 188.46 96.65, 174.17 97.67 M174.17 97.67 C133.98 98.66, 93.83 96.98, 24.42 97.67 M174.17 97.67 C139.31 98.72, 104.57 97.89, 24.42 97.67 M24.42 97.67 C7.15 96.32, -1.4 89.36, 0 73.25 M24.42 97.67 C10.04 99.29, -1.92 90.54, 0 73.25 M0 73.25 C0.49 55.37, 1.67 38.02, 0 24.42 M0 73.25 C-0.85 59.15, -0.05 45.25, 0 24.42 M0 24.42 C-1.9 8.1, 7.87 -1.38, 24.42 0 M0 24.42 C-1.95 6.2, 10.08 -1.81, 24.42 0" stroke="#1e1e1e" stroke-width="2" fill="none"></path></g><g transform="translate(2494.311358586261 690.149418599814) rotate(0 73.99166870117188 25)"><text x="73.99166870117188" y="0" font-family="Virgil, Segoe UI Emoji" font-size="20px" fill="#1e1e1e" text-anchor="middle" style="white-space: pre;" direction="ltr" dominant-baseline="text-before-edge">Android Queue </text><text x="73.99166870117188" y="25" font-family="Virgil, Segoe UI Emoji" font-size="20px" fill="#1e1e1e" text-anchor="middle" style="white-space: pre;" direction="ltr" dominant-baseline="text-before-edge">(SQS)</text></g><g stroke-linecap="round" transform="translate(2472.2630927796645 821.498724608417) rotate(0 99.29552550803282 48.83386500395045)"><path d="M24.42 0 C56.98 2.65, 91.78 1.33, 174.17 0 M24.42 0 C60.94 -0.54, 94.85 -0.63, 174.17 0 M174.17 0 C188.58 0.95, 199.76 6.24, 198.59 24.42 M174.17 0 C190.93 -0.36, 197.66 8.12, 198.59 24.42 M198.59 24.42 C197.24 38.58, 197.47 48.77, 198.59 73.25 M198.59 24.42 C198.6 41.03, 198.72 58.27, 198.59 73.25 M198.59 73.25 C197.75 91.4, 191.13 96.5, 174.17 97.67 M198.59 73.25 C200.31 88.86, 191.5 99.19, 174.17 97.67 M174.17 97.67 C124.85 97.59, 70.67 98.33, 24.42 97.67 M174.17 97.67 C118.47 98.44, 60.43 97.4, 24.42 97.67 M24.42 97.67 C9.94 95.97, 0.15 90.25, 0 73.25 M24.42 97.67 C7.81 96.44, 1.36 88.03, 0 73.25 M0 73.25 C1.06 57.7, -0.14 43.32, 0 24.42 M0 73.25 C-0.45 59.27, -1.05 46.06, 0 24.42 M0 24.42 C-1.4 9.58, 7.06 0.13, 24.42 0 M0 24.42 C0.39 6.56, 6.15 -0.7, 24.42 0" stroke="#1e1e1e" stroke-width="2" fill="none"></path></g><g transform="translate(2485.6336152359395 857.8325896123674) rotate(0 85.92500305175781 12.5)"><text x="85.92500305175781" y="0" font-family="Virgil, Segoe UI Emoji" font-size="20px" fill="#1e1e1e" text-anchor="middle" style="white-space: pre;" direction="ltr" dominant-baseline="text-before-edge">SMS Queue (SQS)</text></g><g stroke-linecap="round" transform="translate(2474.4334867798393 989.7042596220247) rotate(0 99.29552550803282 48.833865003950564)"><path d="M24.42 0 C74.79 -0.09, 127.06 0.66, 174.17 0 M24.42 0 C77.91 -0.72, 131.7 -0.67, 174.17 0 M174.17 0 C191.49 1.34, 196.98 9.41, 198.59 24.42 M174.17 0 C188.87 -1.64, 199.79 9, 198.59 24.42 M198.59 24.42 C198.39 36.18, 197.66 51.96, 198.59 73.25 M198.59 24.42 C198.01 41.17, 198.97 57.43, 198.59 73.25 M198.59 73.25 C198.53 87.74, 192.43 98.93, 174.17 97.67 M198.59 73.25 C197.56 91.83, 192.22 98.3, 174.17 97.67 M174.17 97.67 C129.6 98.99, 90.1 97.42, 24.42 97.67 M174.17 97.67 C127.61 98.05, 81.47 97.43, 24.42 97.67 M24.42 97.67 C9.48 96.21, 1.38 88.51, 0 73.25 M24.42 97.67 C8.36 96.67, -0.51 90.81, 0 73.25 M0 73.25 C-1.46 60.07, -1.31 48.47, 0 24.42 M0 73.25 C-0.72 60.36, -0.34 48.7, 0 24.42 M0 24.42 C-1.7 8.18, 6.48 -1.47, 24.42 0 M0 24.42 C-0.95 7.67, 6.74 0.82, 24.42 0" stroke="#1e1e1e" stroke-width="2" fill="none"></path></g><g transform="translate(2483.062348164337 1026.0381246259751) rotate(0 90.66666412353516 12.5)"><text x="90.66666412353516" y="0" font-family="Virgil, Segoe UI Emoji" font-size="20px" fill="#1e1e1e" text-anchor="middle" style="white-space: pre;" direction="ltr" dominant-baseline="text-before-edge">Email Queue (SQS)</text></g><g stroke-linecap="round"><g transform="translate(2312.5091574406315 640.2708255937566) rotate(0 73.63708491901139 119.18247568987988)"><path d="M-0.42 -0.34 C13.87 23.36, 60.46 103.49, 85.01 143.21 C109.55 182.92, 136.53 222.19, 146.85 237.93 M1.57 -1.56 C15.82 22.34, 60.36 101.53, 84.41 141.63 C108.46 181.73, 135.43 222.9, 145.86 239.02" stroke="#1e1e1e" stroke-width="2" fill="none"></path></g><g transform="translate(2312.5091574406315 640.2708255937566) rotate(0 73.63708491901139 119.18247568987988)"><path d="M125.91 223.96 C130.27 228.77, 137.37 230.56, 145.86 239.02 M125.91 223.96 C130.81 227.82, 135.73 232.81, 145.86 239.02" stroke="#1e1e1e" stroke-width="2" fill="none"></path></g><g transform="translate(2312.5091574406315 640.2708255937566) rotate(0 73.63708491901139 119.18247568987988)"><path d="M140.26 214.66 C141.26 221.65, 144.91 225.68, 145.86 239.02 M140.26 214.66 C141.34 220.89, 142.48 228.33, 145.86 239.02" stroke="#1e1e1e" stroke-width="2" fill="none"></path></g></g><mask></mask><g stroke-linecap="round"><g transform="translate(2268.3481331215753 639.1856285936689) rotate(0 109.28255957963665 171.37573433089113)"><path d="M0.88 -0.86 C31.74 47.92, 147.62 235.17, 184.01 292.32 C220.41 349.47, 213.45 333.44, 219.24 342.01 M-0.12 1.3 C30.7 50.26, 146.67 236.56, 183.16 293.5 C219.65 350.44, 212.83 334.91, 218.83 342.94" stroke="#1e1e1e" stroke-width="2" fill="none"></path></g><g transform="translate(2268.3481331215753 639.1856285936689) rotate(0 109.28255957963665 171.37573433089113)"><path d="M196.18 332.35 C199.32 334.63, 204.23 337.62, 218.83 342.94 M196.18 332.35 C202.48 334.7, 206.16 337.28, 218.83 342.94" stroke="#1e1e1e" stroke-width="2" fill="none"></path></g><g transform="translate(2268.3481331215753 639.1856285936689) rotate(0 109.28255957963665 171.37573433089113)"><path d="M208.29 320.27 C208.92 325.1, 211.37 330.54, 218.83 342.94 M208.29 320.27 C211.72 325.6, 212.51 331.06, 218.83 342.94" stroke="#1e1e1e" stroke-width="2" fill="none"></path></g></g><mask></mask><g stroke-linecap="round"><g transform="translate(2670.3115452956845 548.0290805862946) rotate(0 33.64110700272181 -1.0851970000878168)"><path d="M-0.05 0.09 C11.09 -0.37, 56.69 -1.81, 67.89 -2.37 M-1.54 -0.91 C9.41 -1.21, 55.95 -0.66, 67.27 -0.93" stroke="#1e1e1e" stroke-width="2" fill="none"></path></g><g transform="translate(2670.3115452956845 548.0290805862946) rotate(0 33.64110700272181 -1.0851970000878168)"><path d="M43.81 7.71 C52.99 5.4, 61.58 0.86, 67.27 -0.93 M43.81 7.71 C48.93 5.16, 53.32 5.09, 67.27 -0.93" stroke="#1e1e1e" stroke-width="2" fill="none"></path></g><g transform="translate(2670.3115452956845 548.0290805862946) rotate(0 33.64110700272181 -1.0851970000878168)"><path d="M43.74 -9.4 C53.01 -5.1, 61.62 -3.03, 67.27 -0.93 M43.74 -9.4 C48.75 -8.39, 53.15 -4.91, 67.27 -0.93" stroke="#1e1e1e" stroke-width="2" fill="none"></path></g></g><mask></mask><g stroke-linecap="round" transform="translate(2954.633159318685 498.1100185822563) rotate(0 77.59158550627694 42.86528150346771)"><path d="M21.43 0 C60.78 1.14, 103.06 1.33, 133.75 0 M133.75 0 C146.46 0.95, 154.32 6.23, 155.18 21.43 M155.18 21.43 C156.29 37.88, 155.1 52.49, 155.18 64.3 M155.18 64.3 C156.94 78.42, 147.3 84.02, 133.75 85.73 M133.75 85.73 C110.21 84.89, 86.83 86.62, 21.43 85.73 M21.43 85.73 C7.14 85.06, 0.4 79.36, 0 64.3 M0 64.3 C-0.55 54.2, 0.46 45.04, 0 21.43 M0 21.43 C-1.25 6.46, 6.9 -1.14, 21.43 0" stroke="#1e1e1e" stroke-width="2.5" fill="none" stroke-dasharray="8 10"></path></g><g transform="translate(3012.6164112373153 528.475300085724) rotate(0 19.608333587646484 12.5)"><text x="19.608333587646484" y="0" font-family="Virgil, Segoe UI Emoji" font-size="20px" fill="#1e1e1e" text-anchor="middle" style="white-space: pre;" direction="ltr" dominant-baseline="text-before-edge">APN</text></g><g stroke-linecap="round"><g transform="translate(2677.9079242963 713.6123132259165) rotate(0 34.18370550276495 -0.31664431313890873)"><path d="M-1.15 0.56 C10.27 0.52, 57.34 -0.2, 69.06 -0.26 M0.44 -0.19 C11.73 -0.6, 57.08 -1.94, 68.48 -2.19" stroke="#1e1e1e" stroke-width="2" fill="none"></path></g><g transform="translate(2677.9079242963 713.6123132259165) rotate(0 34.18370550276495 -0.31664431313890873)"><path d="M45.22 6.98 C54.08 5.24, 61.68 2.29, 68.48 -2.19 M45.22 6.98 C53.36 4.65, 63.24 1.06, 68.48 -2.19" stroke="#1e1e1e" stroke-width="2" fill="none"></path></g><g transform="translate(2677.9079242963 713.6123132259165) rotate(0 34.18370550276495 -0.31664431313890873)"><path d="M44.77 -10.12 C53.77 -6.03, 61.53 -3.15, 68.48 -2.19 M44.77 -10.12 C53.18 -6.15, 63.23 -3.46, 68.48 -2.19" stroke="#1e1e1e" stroke-width="2" fill="none"></path></g></g><mask></mask><g stroke-linecap="round" transform="translate(2962.2295383192995 668.4859475960393) rotate(0 71.6230020057942 43.407880003511536)"><path d="M21.7 0 C48.2 -1.06, 78.6 0.08, 121.54 0 M121.54 0 C137.84 -1.32, 143.79 5.59, 143.25 21.7 M143.25 21.7 C143.86 33.24, 142.72 42.86, 143.25 65.11 M143.25 65.11 C141.79 81.21, 135.87 87.82, 121.54 86.82 M121.54 86.82 C94.21 86.89, 66.96 86.59, 21.7 86.82 M21.7 86.82 C7.46 87.88, -1.62 78.45, 0 65.11 M0 65.11 C0.26 55.63, -0.63 44.74, 0 21.7 M0 21.7 C1.76 7.05, 7.68 -0.4, 21.7 0" stroke="#1e1e1e" stroke-width="2.5" fill="none" stroke-dasharray="8 10"></path></g><g transform="translate(3014.010873149801 699.3938275995508) rotate(0 19.84166717529297 12.5)"><text x="19.84166717529297" y="0" font-family="Virgil, Segoe UI Emoji" font-size="20px" fill="#1e1e1e" text-anchor="middle" style="white-space: pre;" direction="ltr" dominant-baseline="text-before-edge">FCM</text></g><g stroke-linecap="round"><g transform="translate(2683.333909296738 877.3724066082175) rotate(0 36.89669800298475 0.20032328836714441)"><path d="M0.9 0.71 C13.25 0.78, 62.07 0.53, 74.11 0.53 M-0.08 0.03 C12.13 0.32, 61.31 1.77, 73.32 2.13" stroke="#1e1e1e" stroke-width="2" fill="none"></path></g><g transform="translate(2683.333909296738 877.3724066082175) rotate(0 36.89669800298475 0.20032328836714441)"><path d="M49.59 9.98 C57.95 7.94, 64.18 3.93, 73.32 2.13 M49.59 9.98 C56.53 8.27, 64.16 5.78, 73.32 2.13" stroke="#1e1e1e" stroke-width="2" fill="none"></path></g><g transform="translate(2683.333909296738 877.3724066082175) rotate(0 36.89669800298475 0.20032328836714441)"><path d="M50.09 -7.11 C58.32 -3.96, 64.39 -2.79, 73.32 2.13 M50.09 -7.11 C57.03 -3.26, 64.49 -0.2, 73.32 2.13" stroke="#1e1e1e" stroke-width="2" fill="none"></path></g></g><mask></mask><g stroke-linecap="round" transform="translate(2968.7407203198263 828.0099066089444) rotate(0 72.16560050583803 42.32268300342366)"><path d="M21.16 0 C60.82 -1.52, 97.35 0.76, 123.17 0 M123.17 0 C137.77 0.92, 145.65 8.33, 144.33 21.16 M144.33 21.16 C142.75 32.24, 145.05 39.55, 144.33 63.48 M144.33 63.48 C143.14 78.28, 135.52 85.85, 123.17 84.65 M123.17 84.65 C101.02 85.78, 77.23 86.74, 21.16 84.65 M21.16 84.65 C7.43 84.13, -0.55 79.27, 0 63.48 M0 63.48 C0.95 55.74, 0.76 45.58, 0 21.16 M0 21.16 C-1.02 8.13, 6.19 -0.58, 21.16 0" stroke="#1e1e1e" stroke-width="2.5" fill="none" stroke-dasharray="8 10"></path></g><g transform="translate(3014.2146532689017 857.8325896123681) rotate(0 26.691667556762695 12.5)"><text x="26.691667556762695" y="0" font-family="Virgil, Segoe UI Emoji" font-size="20px" fill="#1e1e1e" text-anchor="middle" style="white-space: pre;" direction="ltr" dominant-baseline="text-before-edge">Twilio</text></g><g stroke-linecap="round"><g transform="translate(2686.5895002970015 1036.3254201071693) rotate(0 39.60969050320432 -0.4053605698740057)"><path d="M-0.43 0.98 C13.1 0.59, 66.94 -0.9, 80.29 -1.14 M1.55 0.44 C15.09 0.74, 66.97 0.73, 79.91 0.23" stroke="#1e1e1e" stroke-width="2" fill="none"></path></g><g transform="translate(2686.5895002970015 1036.3254201071693) rotate(0 39.60969050320432 -0.4053605698740057)"><path d="M56.56 9.16 C63.34 9.02, 66.4 6, 79.91 0.23 M56.56 9.16 C64.03 5.63, 71.12 3.52, 79.91 0.23" stroke="#1e1e1e" stroke-width="2" fill="none"></path></g><g transform="translate(2686.5895002970015 1036.3254201071693) rotate(0 39.60969050320432 -0.4053605698740057)"><path d="M56.28 -7.94 C63.29 -4.24, 66.42 -3.42, 79.91 0.23 M56.28 -7.94 C64.01 -5.8, 71.19 -2.25, 79.91 0.23" stroke="#1e1e1e" stroke-width="2" fill="none"></path></g></g><mask></mask><g stroke-linecap="round" transform="translate(2970.9111143200016 984.278274621586) rotate(0 79.76197950645269 45.03567550364335)"><path d="M22.52 0 C62.25 -1.24, 103.01 -1.25, 137.01 0 M137.01 0 C150.28 -0.08, 158.28 7.34, 159.52 22.52 M159.52 22.52 C159.97 33.44, 159.24 45.16, 159.52 67.55 M159.52 67.55 C160.45 81.96, 150.03 89.21, 137.01 90.07 M137.01 90.07 C104.65 91.25, 70.12 91.55, 22.52 90.07 M22.52 90.07 C9.08 91.68, 0.6 82.64, 0 67.55 M0 67.55 C-0.95 48.8, 0.24 35.01, 0 22.52 M0 22.52 C1.5 9.06, 6.37 0.04, 22.52 0" stroke="#1e1e1e" stroke-width="2.5" fill="none" stroke-dasharray="8 10"></path></g><g transform="translate(2992.7647610017475 1016.8139501252292) rotate(0 57.90833282470703 12.5)"><text x="57.90833282470703" y="0" font-family="Virgil, Segoe UI Emoji" font-size="20px" fill="#1e1e1e" text-anchor="middle" style="white-space: pre;" direction="ltr" dominant-baseline="text-before-edge">Mail Service</text></g><g stroke-linecap="round"><g transform="translate(3116.327512331766 536.0919135853289) rotate(0 32.55591000263371 -0.54259850004388)"><path d="M0.77 -0.19 C11.5 -0.47, 54.75 -2.07, 65.29 -2.02 M-0.29 -1.33 C10.23 -1.47, 53.33 -0.92, 64.44 -0.97" stroke="#1e1e1e" stroke-width="2" fill="none"></path></g><g transform="translate(3116.327512331766 536.0919135853289) rotate(0 32.55591000263371 -0.54259850004388)"><path d="M40.9 7.46 C49.42 4.45, 56.97 -0.81, 64.44 -0.97 M40.9 7.46 C50.2 4.36, 59.09 -0.19, 64.44 -0.97" stroke="#1e1e1e" stroke-width="2" fill="none"></path></g><g transform="translate(3116.327512331766 536.0919135853289) rotate(0 32.55591000263371 -0.54259850004388)"><path d="M40.98 -9.64 C49.42 -6.25, 56.95 -5.11, 64.44 -0.97 M40.98 -9.64 C50.38 -5.94, 59.24 -3.69, 64.44 -0.97" stroke="#1e1e1e" stroke-width="2" fill="none"></path></g></g><mask></mask><g stroke-linecap="round" transform="translate(3192.291302337911 499.1952155823442) rotate(0 61.313630504959974 41.23748600333596)"><path d="M20.62 0 C44.72 1.67, 69.76 0.08, 102.01 0 M20.62 0 C50.18 0.27, 82.32 0.41, 102.01 0 M102.01 0 C116.41 1.09, 122.61 6.85, 122.63 20.62 M102.01 0 C114.9 2.21, 124.91 8.8, 122.63 20.62 M122.63 20.62 C122.41 34.48, 122.1 45.91, 122.63 61.86 M122.63 20.62 C122.8 30.53, 121.71 39.11, 122.63 61.86 M122.63 61.86 C122.06 77.02, 117.17 84.11, 102.01 82.47 M122.63 61.86 C124.92 73.41, 114.1 83.75, 102.01 82.47 M102.01 82.47 C74.65 81.66, 48.65 82.29, 20.62 82.47 M102.01 82.47 C79.98 81.98, 57.13 82.12, 20.62 82.47 M20.62 82.47 C6.17 82.89, 0.64 76.06, 0 61.86 M20.62 82.47 C5.38 82.79, -2.18 73.71, 0 61.86 M0 61.86 C0.45 48.08, -0.07 35.93, 0 20.62 M0 61.86 C-0.67 50.51, -0.71 39.03, 0 20.62 M0 20.62 C1.09 4.94, 7.05 0.69, 20.62 0 M0 20.62 C0.76 6.71, 6.64 -1.3, 20.62 0" stroke="#1e1e1e" stroke-width="2" fill="none"></path></g><g transform="translate(3238.0715990644894 527.9327015856802) rotate(0 15.533333778381348 12.5)"><text x="15.533333778381348" y="0" font-family="Virgil, Segoe UI Emoji" font-size="20px" fill="#1e1e1e" text-anchor="middle" style="white-space: pre;" direction="ltr" dominant-baseline="text-before-edge">iOS</text></g><g stroke-linecap="round"><g transform="translate(3117.412709331854 705.382645599024) rotate(0 37.43929650302857 0.5425985000439368)"><path d="M0.59 0.92 C13.01 1.03, 62.61 1.01, 74.97 1.06 M-0.56 0.36 C11.67 0.63, 61.65 2.22, 74.06 2.58" stroke="#1e1e1e" stroke-width="2" fill="none"></path></g><g transform="translate(3117.412709331854 705.382645599024) rotate(0 37.43929650302857 0.5425985000439368)"><path d="M50.32 10.41 C59.89 7.78, 66.36 4.77, 74.06 2.58 M50.32 10.41 C58.31 8.76, 64.01 4.93, 74.06 2.58" stroke="#1e1e1e" stroke-width="2" fill="none"></path></g><g transform="translate(3117.412709331854 705.382645599024) rotate(0 37.43929650302857 0.5425985000439368)"><path d="M50.84 -6.68 C60.29 -3.51, 66.59 -0.73, 74.06 2.58 M50.84 -6.68 C58.75 -3.06, 64.28 -1.61, 74.06 2.58" stroke="#1e1e1e" stroke-width="2" fill="none"></path></g></g><mask></mask><g stroke-linecap="round" transform="translate(3200.9728783386136 663.0599625956004) rotate(0 62.94142600509167 40.69488750329208)"><path d="M20.35 0 C50.88 1.06, 85.34 -1.38, 105.54 0 M20.35 0 C47.61 -0.18, 75.32 -0.82, 105.54 0 M105.54 0 C119.24 1.96, 126.04 5.95, 125.88 20.35 M105.54 0 C120.6 0.86, 127.08 6.96, 125.88 20.35 M125.88 20.35 C124.66 28.26, 124.3 38.55, 125.88 61.04 M125.88 20.35 C126.64 31.79, 126.54 45.06, 125.88 61.04 M125.88 61.04 C127.27 73.4, 119.49 81.47, 105.54 81.39 M125.88 61.04 C128.17 76.53, 118.4 82.2, 105.54 81.39 M105.54 81.39 C83.11 82.04, 58.02 81.54, 20.35 81.39 M105.54 81.39 C86.57 81.83, 65.86 82, 20.35 81.39 M20.35 81.39 C6.37 81.6, 0.39 75.76, 0 61.04 M20.35 81.39 C8.32 79.14, 0.88 75.02, 0 61.04 M0 61.04 C-1.96 52.09, 0.89 39.9, 0 20.35 M0 61.04 C0.42 51.31, 0.42 40.1, 0 20.35 M0 20.35 C1.12 8.5, 5.85 1.29, 20.35 0 M0 20.35 C2.21 5.7, 5.06 1.67, 20.35 0" stroke="#1e1e1e" stroke-width="2" fill="none"></path></g><g transform="translate(3229.2726379313517 691.2548500988925) rotate(0 34.641666412353516 12.5)"><text x="34.641666412353516" y="0" font-family="Virgil, Segoe UI Emoji" font-size="20px" fill="#1e1e1e" text-anchor="middle" style="white-space: pre;" direction="ltr" dominant-baseline="text-before-edge">Android</text></g><g stroke-linecap="round"><g transform="translate(3119.583103332029 867.9018249573066) rotate(0 37.439296503028345 0.6251799549595489)"><path d="M-0.37 -0.81 C12.38 -0.37, 62.9 1.3, 75.31 1.73 M1.64 1.38 C14.37 1.54, 62.09 0.13, 74.59 -0.15" stroke="#1e1e1e" stroke-width="2" fill="none"></path></g><g transform="translate(3119.583103332029 867.9018249573066) rotate(0 37.439296503028345 0.6251799549595489)"><path d="M51.33 9 C54.75 7.94, 61.6 4.12, 74.59 -0.15 M51.33 9 C58.89 6.37, 67.12 2.57, 74.59 -0.15" stroke="#1e1e1e" stroke-width="2" fill="none"></path></g><g transform="translate(3119.583103332029 867.9018249573066) rotate(0 37.439296503028345 0.6251799549595489)"><path d="M50.89 -8.09 C54.27 -5.69, 61.21 -6.05, 74.59 -0.15 M50.89 -8.09 C58.64 -4.85, 67.02 -2.79, 74.59 -0.15" stroke="#1e1e1e" stroke-width="2" fill="none"></path></g></g><mask></mask><g stroke-linecap="round" transform="translate(3209.6544543393156 833.4358916093831) rotate(0 64.02662300517977 33.64110700272147)"><path d="M16.82 0 C52.07 -2.25, 84.94 -0.41, 111.23 0 M16.82 0 C44.57 0.25, 74.78 0.25, 111.23 0 M111.23 0 C122.12 1.43, 126.6 6.36, 128.05 16.82 M111.23 0 C120.7 0.57, 129.25 4.32, 128.05 16.82 M128.05 16.82 C127.59 30.11, 126.7 41.33, 128.05 50.46 M128.05 16.82 C128.69 28.47, 128.27 40.08, 128.05 50.46 M128.05 50.46 C129.82 60.71, 120.87 66.75, 111.23 67.28 M128.05 50.46 C128.79 60.34, 123 67.63, 111.23 67.28 M111.23 67.28 C81.13 67.8, 53.1 66.71, 16.82 67.28 M111.23 67.28 C74.08 67.31, 38.37 66.57, 16.82 67.28 M16.82 67.28 C6.07 68.3, -1.61 61.01, 0 50.46 M16.82 67.28 C6.44 67.93, -0.69 63.35, 0 50.46 M0 50.46 C-0.64 40.03, 0.53 26.75, 0 16.82 M0 50.46 C-0.06 38.07, -0.78 27.21, 0 16.82 M0 16.82 C1.37 5.9, 6.96 -0.11, 16.82 0 M0 16.82 C-2.26 4.18, 6.29 -0.2, 16.82 0" stroke="#1e1e1e" stroke-width="2" fill="none"></path></g><g transform="translate(3232.54774223097 842.0769986121047) rotate(0 41.13333511352539 25)"><text x="41.13333511352539" y="0" font-family="Virgil, Segoe UI Emoji" font-size="20px" fill="#1e1e1e" text-anchor="middle" style="white-space: pre;" direction="ltr" dominant-baseline="text-before-edge">Text </text><text x="41.13333511352539" y="25" font-family="Virgil, Segoe UI Emoji" font-size="20px" fill="#1e1e1e" text-anchor="middle" style="white-space: pre;" direction="ltr" dominant-baseline="text-before-edge">Message</text></g><g stroke-linecap="round"><g transform="translate(3140.201846333697 1022.8025273183734) rotate(0 35.811501002896875 0.04409520168758263)"><path d="M0.2 -0.8 C12.28 -0.6, 59.99 -0.27, 71.84 0.05 M-1.15 1.39 C10.84 1.9, 59.09 1.91, 71 1.57" stroke="#1e1e1e" stroke-width="2" fill="none"></path></g><g transform="translate(3140.201846333697 1022.8025273183734) rotate(0 35.811501002896875 0.04409520168758263)"><path d="M47.61 10.38 C52.18 8.51, 59.28 5.39, 71 1.57 M47.61 10.38 C55.95 7.03, 65.03 2.85, 71 1.57" stroke="#1e1e1e" stroke-width="2" fill="none"></path></g><g transform="translate(3140.201846333697 1022.8025273183734) rotate(0 35.811501002896875 0.04409520168758263)"><path d="M47.42 -6.72 C51.87 -4.33, 59.02 -3.2, 71 1.57 M47.42 -6.72 C55.94 -3.4, 65.1 -0.91, 71 1.57" stroke="#1e1e1e" stroke-width="2" fill="none"></path></g></g><mask></mask><g stroke-linecap="round" transform="translate(3219.4212273401054 986.4486686217617) rotate(0 69.45260800561869 40.69488750329208)"><path d="M20.35 0 C55.8 1.35, 90.58 -0.8, 118.56 0 M20.35 0 C49.85 0.05, 79.75 -0.24, 118.56 0 M118.56 0 C133.38 0.85, 138.93 5.39, 138.91 20.35 M118.56 0 C132.77 0.84, 140.09 6.28, 138.91 20.35 M138.91 20.35 C140.77 30.73, 138.9 40.75, 138.91 61.04 M138.91 20.35 C139.14 31.17, 138.51 42.69, 138.91 61.04 M138.91 61.04 C139.85 73.13, 133.28 80.25, 118.56 81.39 M138.91 61.04 C138.16 76.85, 129.87 82.75, 118.56 81.39 M118.56 81.39 C91.93 80.96, 63.08 79.16, 20.35 81.39 M118.56 81.39 C88.37 81.5, 59.27 81.91, 20.35 81.39 M20.35 81.39 C4.83 79.62, -1.06 73.97, 0 61.04 M20.35 81.39 C7.9 81.94, 0.46 75.39, 0 61.04 M0 61.04 C-1.31 47.96, -0.63 31.53, 0 20.35 M0 61.04 C-0.34 49.31, -0.19 36.31, 0 20.35 M0 20.35 C1.58 7.3, 5.32 -1.55, 20.35 0 M0 20.35 C2.15 6.01, 5.58 0.66, 20.35 0" stroke="#1e1e1e" stroke-width="2" fill="none"></path></g><g transform="translate(3264.307167788961 1014.6435561250539) rotate(0 24.566667556762695 12.5)"><text x="24.566667556762695" y="0" font-family="Virgil, Segoe UI Emoji" font-size="20px" fill="#1e1e1e" text-anchor="middle" style="white-space: pre;" direction="ltr" dominant-baseline="text-before-edge">Email</text></g><g stroke-linecap="round" transform="translate(2751.701320302269 498.1100185822563) rotate(0 67.28221400544271 45.03567550364323)"><path d="M22.52 0 C53.75 1.52, 83.05 1.34, 112.05 0 M22.52 0 C43.08 -0.88, 62.84 0.41, 112.05 0 M112.05 0 C129.02 -1.03, 135.91 6.77, 134.56 22.52 M112.05 0 C129.2 -0.63, 135.41 8.2, 134.56 22.52 M134.56 22.52 C133.19 37.21, 133.07 49.05, 134.56 67.55 M134.56 22.52 C134.36 37.89, 134.34 54.43, 134.56 67.55 M134.56 67.55 C133.55 84.1, 128.11 88.63, 112.05 90.07 M134.56 67.55 C136.84 82.87, 125.3 89.7, 112.05 90.07 M112.05 90.07 C84.78 89.22, 54.95 91.14, 22.52 90.07 M112.05 90.07 C82.07 90.74, 51.09 91.38, 22.52 90.07 M22.52 90.07 C6.05 90.79, -0.81 83.9, 0 67.55 M22.52 90.07 C9.52 92.25, -0.21 82.56, 0 67.55 M0 67.55 C-1.47 53.36, 1.62 37.77, 0 22.52 M0 67.55 C-0.41 56.73, 0.84 45.16, 0 22.52 M0 22.52 C-0.3 6.97, 8.62 0.17, 22.52 0 M0 22.52 C-0.05 9.19, 7.57 -2.18, 22.52 0" stroke="#1e1e1e" stroke-width="2" fill="none"></path></g><g transform="translate(2787.0502018644743 530.6456940858995) rotate(0 31.933332443237305 12.5)"><text x="31.933332443237305" y="0" font-family="Virgil, Segoe UI Emoji" font-size="20px" fill="#1e1e1e" text-anchor="middle" style="white-space: pre;" direction="ltr" dominant-baseline="text-before-edge">Worker</text></g><g stroke-linecap="round" transform="translate(2757.1273053027076 673.9119325964782) rotate(0 63.48402450513572 35.8115010028971)"><path d="M17.91 0 C50.85 0.29, 82.61 1.02, 109.06 0 M17.91 0 C45.46 1.26, 74.07 0.93, 109.06 0 M109.06 0 C120.67 -1, 127.16 5.11, 126.97 17.91 M109.06 0 C120.34 -2.29, 128.5 6.97, 126.97 17.91 M126.97 17.91 C128.29 25.08, 126.86 34.62, 126.97 53.72 M126.97 17.91 C127.67 31.58, 126.94 45.27, 126.97 53.72 M126.97 53.72 C128.35 66.74, 121.78 70.76, 109.06 71.62 M126.97 53.72 C126.36 66.41, 120.71 69.48, 109.06 71.62 M109.06 71.62 C90.94 73.05, 69.51 69.48, 17.91 71.62 M109.06 71.62 C90.13 71.57, 70.59 72.03, 17.91 71.62 M17.91 71.62 C6.14 73.08, 1.73 66.32, 0 53.72 M17.91 71.62 C5.71 70.07, -0.52 66.27, 0 53.72 M0 53.72 C-0.68 44.01, -1.62 39.38, 0 17.91 M0 53.72 C0.64 46.37, 0.61 38.81, 0 17.91 M0 17.91 C0.62 6.6, 6.62 0.26, 17.91 0 M0 17.91 C2.13 5.61, 7.14 -2.26, 17.91 0" stroke="#1e1e1e" stroke-width="2" fill="none"></path></g><g transform="translate(2788.677997364606 697.2234335993753) rotate(0 31.933332443237305 12.5)"><text x="31.933332443237305" y="0" font-family="Virgil, Segoe UI Emoji" font-size="20px" fill="#1e1e1e" text-anchor="middle" style="white-space: pre;" direction="ltr" dominant-baseline="text-before-edge">Worker</text></g><g stroke-linecap="round" transform="translate(2770.149669303761 839.9470736099099) rotate(0 61.856229005004025 34.72630400280923)"><path d="M17.36 0 C49.12 0.12, 83.54 0.49, 106.35 0 M17.36 0 C45.97 1.01, 76.25 -0.3, 106.35 0 M106.35 0 C117.97 -1.08, 123.26 6.95, 123.71 17.36 M106.35 0 C117.72 -0.3, 122.46 6.32, 123.71 17.36 M123.71 17.36 C124.01 29.37, 124.74 44.38, 123.71 52.09 M123.71 17.36 C123.35 24.32, 123.21 32.23, 123.71 52.09 M123.71 52.09 C123.67 63.04, 118.37 70.28, 106.35 69.45 M123.71 52.09 C123.18 61.92, 117.21 68.85, 106.35 69.45 M106.35 69.45 C72.87 70.25, 44.32 68.17, 17.36 69.45 M106.35 69.45 C87.76 68.99, 69.48 69.11, 17.36 69.45 M17.36 69.45 C6.43 69.52, 1.55 64.77, 0 52.09 M17.36 69.45 C4.75 69.25, 1.08 65.16, 0 52.09 M0 52.09 C0.52 40.25, 0.87 26.15, 0 17.36 M0 52.09 C-0.93 41, 0.65 29.94, 0 17.36 M0 17.36 C-1.81 6.38, 6.65 1.63, 17.36 0 M0 17.36 C1.76 3.84, 4.34 -1.99, 17.36 0" stroke="#1e1e1e" stroke-width="2" fill="none"></path></g><g transform="translate(2800.072565865528 862.1733776127192) rotate(0 31.933332443237305 12.5)"><text x="31.933332443237305" y="0" font-family="Virgil, Segoe UI Emoji" font-size="20px" fill="#1e1e1e" text-anchor="middle" style="white-space: pre;" direction="ltr" dominant-baseline="text-before-edge">Worker</text></g><g stroke-linecap="round"><g transform="translate(2892.7769303136815 544.7734895860312) rotate(0 27.67252350223862 1.08519700008776)"><path d="M-0.81 0.68 C8.41 1.05, 44.71 0.88, 54.15 1.08 M0.97 -0.01 C10.64 0.57, 47.18 1.53, 56.24 2.04" stroke="#1e1e1e" stroke-width="2" fill="none"></path></g><g transform="translate(2892.7769303136815 544.7734895860312) rotate(0 27.67252350223862 1.08519700008776)"><path d="M32.43 9.65 C38.45 6.29, 40.32 7.54, 56.24 2.04 M32.43 9.65 C39.5 6.66, 44.67 5.18, 56.24 2.04" stroke="#1e1e1e" stroke-width="2" fill="none"></path></g><g transform="translate(2892.7769303136815 544.7734895860312) rotate(0 27.67252350223862 1.08519700008776)"><path d="M33.1 -7.43 C38.82 -7.35, 40.56 -2.63, 56.24 2.04 M33.1 -7.43 C39.85 -5.7, 44.83 -2.45, 56.24 2.04" stroke="#1e1e1e" stroke-width="2" fill="none"></path></g></g><mask></mask><g stroke-linecap="round"><g transform="translate(2887.3509453132424 706.4678425991117) rotate(0 29.84291750241414 -0.5425985000438232)"><path d="M0.95 -1.02 C10.74 -1.16, 49.39 -0.97, 59.16 -0.96 M-0.01 1.05 C9.54 1.14, 48.14 0.75, 57.94 0.64" stroke="#1e1e1e" stroke-width="2" fill="none"></path></g><g transform="translate(2887.3509453132424 706.4678425991117) rotate(0 29.84291750241414 -0.5425985000438232)"><path d="M34.53 9.43 C40.67 5.43, 50.41 3.18, 57.94 0.64 M34.53 9.43 C41.19 7.6, 49.68 3.56, 57.94 0.64" stroke="#1e1e1e" stroke-width="2" fill="none"></path></g><g transform="translate(2887.3509453132424 706.4678425991117) rotate(0 29.84291750241414 -0.5425985000438232)"><path d="M34.35 -7.67 C40.53 -5.95, 50.33 -2.48, 57.94 0.64 M34.35 -7.67 C40.94 -4.26, 49.49 -3.06, 57.94 0.64" stroke="#1e1e1e" stroke-width="2" fill="none"></path></g></g><mask></mask><g stroke-linecap="round"><g transform="translate(2900.373309314296 874.6733776127192) rotate(0 28.21512200228267 -1.08519700008776)"><path d="M-1.03 -0.42 C8.44 -0.75, 47.63 -2.13, 57.4 -2.24 M0.63 -1.68 C9.98 -1.79, 47.49 -0.54, 56.96 -0.74" stroke="#1e1e1e" stroke-width="2" fill="none"></path></g><g transform="translate(2900.373309314296 874.6733776127192) rotate(0 28.21512200228267 -1.08519700008776)"><path d="M33.38 7.59 C40.93 6.5, 49.73 3.92, 56.96 -0.74 M33.38 7.59 C42.14 4.37, 51.81 2.17, 56.96 -0.74" stroke="#1e1e1e" stroke-width="2" fill="none"></path></g><g transform="translate(2900.373309314296 874.6733776127192) rotate(0 28.21512200228267 -1.08519700008776)"><path d="M33.55 -9.51 C41 -4.64, 49.75 -1.25, 56.96 -0.74 M33.55 -9.51 C42.09 -6.05, 51.69 -1.58, 56.96 -0.74" stroke="#1e1e1e" stroke-width="2" fill="none"></path></g></g><mask></mask><g stroke-linecap="round"><g transform="translate(2913.395673315349 1032.0269426254486) rotate(0 26.587326502150972 -1.08519700008776)"><path d="M0.1 1.19 C8.72 0.74, 44.11 -1.74, 52.9 -2.39 M-1.31 0.78 C7.02 0.47, 42.93 -0.56, 51.81 -0.97" stroke="#1e1e1e" stroke-width="2" fill="none"></path></g><g transform="translate(2913.395673315349 1032.0269426254486) rotate(0 26.587326502150972 -1.08519700008776)"><path d="M28.64 8.43 C39.87 4.2, 46.77 0.4, 51.81 -0.97 M28.64 8.43 C34.82 5.45, 40.05 4.12, 51.81 -0.97" stroke="#1e1e1e" stroke-width="2" fill="none"></path></g><g transform="translate(2913.395673315349 1032.0269426254486) rotate(0 26.587326502150972 -1.08519700008776)"><path d="M28.02 -8.66 C39.54 -6.06, 46.69 -3.03, 51.81 -0.97 M28.02 -8.66 C34.31 -7.32, 39.69 -4.33, 51.81 -0.97" stroke="#1e1e1e" stroke-width="2" fill="none"></path></g></g><mask></mask><g transform="translate(2350.178430269787 417.80544057576003) rotate(0 296.3823094073696 24.159630653307545)"><text x="0" y="0" font-family="Virgil, Segoe UI Emoji" font-size="19.327704522646016px" fill="#1e1e1e" text-anchor="start" style="white-space: pre;" direction="ltr" dominant-baseline="text-before-edge">SQS allows a message to be scheduled for delivery if desired,</text><text x="0" y="24.15963065330752" font-family="Virgil, Segoe UI Emoji" font-size="19.327704522646016px" fill="#1e1e1e" text-anchor="start" style="white-space: pre;" direction="ltr" dominant-baseline="text-before-edge">otherwise message will be pushed immediately to a worker.</text></g><g transform="translate(2326.304096267857 194.25485855767568) rotate(0 105.66666412353516 50)"><text x="0" y="0" font-family="Virgil, Segoe UI Emoji" font-size="20px" fill="#1e1e1e" text-anchor="start" style="white-space: pre;" direction="ltr" dominant-baseline="text-before-edge">Device</text><text x="0" y="25" font-family="Virgil, Segoe UI Emoji" font-size="20px" fill="#1e1e1e" text-anchor="start" style="white-space: pre;" direction="ltr" dominant-baseline="text-before-edge">-id</text><text x="0" y="50" font-family="Virgil, Segoe UI Emoji" font-size="20px" fill="#1e1e1e" text-anchor="start" style="white-space: pre;" direction="ltr" dominant-baseline="text-before-edge">-userId</text><text x="0" y="75" font-family="Virgil, Segoe UI Emoji" font-size="20px" fill="#1e1e1e" text-anchor="start" style="white-space: pre;" direction="ltr" dominant-baseline="text-before-edge">-type -&gt; iOS | Android</text></g><g stroke-linecap="round" transform="translate(2101.6683172496846 1199.1472806389672) rotate(0 139.44781451128097 137.27742051110545)"><path d="M111.93 2.17 C125.46 -2.58, 142.19 -0.66, 156.9 1.48 C171.61 3.61, 186.46 8.32, 200.2 14.99 C213.95 21.65, 228.48 31.21, 239.37 41.46 C250.26 51.71, 259.09 63.12, 265.53 76.49 C271.97 89.86, 276.45 106.78, 278.01 121.65 C279.57 136.52, 278.01 151.32, 274.89 165.71 C271.76 180.1, 266.83 195.33, 259.26 207.98 C251.7 220.64, 241.18 232.13, 229.48 241.64 C217.78 251.15, 203.22 259.5, 189.08 265.05 C174.95 270.6, 159.58 274.2, 144.67 274.96 C129.76 275.73, 114.1 273.84, 99.6 269.62 C85.1 265.4, 70.15 258.45, 57.68 249.65 C45.2 240.85, 33.29 229, 24.77 216.83 C16.25 204.67, 10.63 191, 6.55 176.66 C2.47 162.32, -0.09 145.68, 0.27 130.8 C0.64 115.91, 3.39 101.29, 8.75 87.37 C14.12 73.46, 22.62 58.78, 32.47 47.32 C42.32 35.86, 53.91 26.19, 67.87 18.62 C81.84 11.05, 107.62 4.35, 116.26 1.87 C124.89 -0.6, 119.4 1.37, 119.68 3.77 M94.77 6.19 C107.74 -0.21, 124.37 0, 139.56 0.09 C154.75 0.18, 171.43 1.81, 185.91 6.75 C200.38 11.69, 214.78 20.67, 226.41 29.72 C238.04 38.77, 247.58 48.87, 255.68 61.07 C263.77 73.26, 271.12 88.07, 274.99 102.91 C278.86 117.76, 280.45 135.44, 278.9 150.13 C277.35 164.83, 271.9 177.87, 265.68 191.09 C259.45 204.32, 251.36 218.32, 241.55 229.48 C231.74 240.64, 219.95 251.07, 206.81 258.08 C193.68 265.09, 177.97 269.06, 162.72 271.52 C147.48 273.99, 130.25 274.94, 115.32 272.87 C100.39 270.79, 86.38 266.17, 73.12 259.08 C59.87 251.98, 45.84 241.31, 35.81 230.28 C25.77 219.25, 18.78 206.69, 12.92 192.91 C7.06 179.12, 2.18 162.4, 0.67 147.6 C-0.84 132.8, 0.31 118.2, 3.86 104.09 C7.41 89.99, 13.71 75.25, 21.96 62.97 C30.21 50.68, 41.38 39.39, 53.37 30.38 C65.35 21.37, 87.13 12.24, 93.87 8.91 C100.62 5.57, 93.02 8.22, 93.83 10.38" stroke="#1e1e1e" stroke-width="2" fill="none"></path></g><g transform="translate(2158.903306725446 1323.8549062028728) rotate(0 82.10832977294922 12.5)"><text x="82.10832977294922" y="0" font-family="Virgil, Segoe UI Emoji" font-size="20px" fill="#1e1e1e" text-anchor="middle" style="white-space: pre;" direction="ltr" dominant-baseline="text-before-edge">Notifications DB</text></g><g mask="url(#mask-gTYMxDb-EVwSbrrJVCBCM)" stroke-linecap="round"><g transform="translate(2230.8067602601313 637.0152345934928) rotate(0 5.425985000438914 272.9270455220791)"><path d="M0.27 -0.38 C2.02 90.77, 8.89 455.8, 10.59 546.71 M-1.05 -1.62 C0.51 89.21, 7.75 453.77, 9.51 545.04" stroke="#1e1e1e" stroke-width="2" fill="none"></path></g><g transform="translate(2230.8067602601313 637.0152345934928) rotate(0 5.425985000438914 272.9270455220791)"><path d="M9.26 22.95 C5.88 15.32, 5.16 7.92, 0.27 -0.38 M9.26 22.95 C7.85 17.96, 5.17 11.9, 0.27 -0.38" stroke="#1e1e1e" stroke-width="2" fill="none"></path></g><g transform="translate(2230.8067602601313 637.0152345934928) rotate(0 5.425985000438914 272.9270455220791)"><path d="M-7.83 23.27 C-5.92 15.5, -1.36 8.01, 0.27 -0.38 M-7.83 23.27 C-5.22 18.36, -3.86 12.23, 0.27 -0.38" stroke="#1e1e1e" stroke-width="2" fill="none"></path></g><g transform="translate(2230.8067602601313 637.0152345934928) rotate(0 5.425985000438914 272.9270455220791)"><path d="M0.5 521.72 C2.63 528.48, 7.47 535.51, 9.51 545.04 M0.5 521.72 C2.94 527.89, 4.51 532.83, 9.51 545.04" stroke="#1e1e1e" stroke-width="2" fill="none"></path></g><g transform="translate(2230.8067602601313 637.0152345934928) rotate(0 5.425985000438914 272.9270455220791)"><path d="M17.6 521.38 C14.43 528.29, 13.99 535.43, 9.51 545.04 M17.6 521.38 C16 527.48, 13.54 532.5, 9.51 545.04" stroke="#1e1e1e" stroke-width="2" fill="none"></path></g></g><mask id="mask-gTYMxDb-EVwSbrrJVCBCM"><rect x="0" y="0" fill="#fff" width="2341.658730261009" height="1282.869325637651"></rect><rect x="2139.5244093841056" y="897.442280115572" fill="#000" width="193.4166717529297" height="25" opacity="1"></rect></mask><g transform="translate(2139.5244093841056 897.442280115572) rotate(0 96.05564042547235 12.11788514955424)"><text x="96.70833587646484" y="0" font-family="Virgil, Segoe UI Emoji" font-size="20px" fill="#1e1e1e" text-anchor="middle" style="white-space: pre;" direction="ltr" dominant-baseline="text-before-edge">createNotification()</text></g><g mask="url(#mask-Gdisf7UZhx1rkd7vJGQPi)" stroke-linecap="round"><g transform="translate(2803.790776306484 920.2516516164053) rotate(0 -257.1916890208058 136.7348220110615)"><path d="M-0.68 0.13 C-76.62 9.2, -369.28 8.72, -455.07 54.1 C-540.87 99.49, -505.39 235.69, -515.46 272.43 M1.16 -0.85 C-75.01 8.43, -370.51 9.88, -456.22 55.56 C-541.94 101.23, -503.19 237.04, -513.13 273.2" stroke="#1e1e1e" stroke-width="2" fill="none"></path></g><g transform="translate(2803.790776306484 920.2516516164053) rotate(0 -257.1916890208058 136.7348220110615)"><path d="M-23.5 10.35 C-15.38 6.32, -7.97 1.62, -0.68 0.13 M-23.5 10.35 C-19.38 7.07, -13.47 4.9, -0.68 0.13" stroke="#1e1e1e" stroke-width="2" fill="none"></path></g><g transform="translate(2803.790776306484 920.2516516164053) rotate(0 -257.1916890208058 136.7348220110615)"><path d="M-24.73 -6.71 C-16.23 -4.84, -8.4 -3.65, -0.68 0.13 M-24.73 -6.71 C-20.51 -6.36, -14.34 -4.89, -0.68 0.13" stroke="#1e1e1e" stroke-width="2" fill="none"></path></g><g transform="translate(2803.790776306484 920.2516516164053) rotate(0 -257.1916890208058 136.7348220110615)"><path d="M-521.48 249.63 C-518.44 257.19, -516.04 264.16, -513.13 273.2 M-521.48 249.63 C-520.77 253.69, -517.95 258.73, -513.13 273.2" stroke="#1e1e1e" stroke-width="2" fill="none"></path></g><g transform="translate(2803.790776306484 920.2516516164053) rotate(0 -257.1916890208058 136.7348220110615)"><path d="M-504.38 249.78 C-507.25 257.19, -510.75 264.11, -513.13 273.2 M-504.38 249.78 C-507.31 253.96, -508.14 258.96, -513.13 273.2" stroke="#1e1e1e" stroke-width="2" fill="none"></path></g></g><mask id="mask-Gdisf7UZhx1rkd7vJGQPi"><rect x="0" y="0" fill="#fff" width="3418.1741543480957" height="1293.7212956385283"></rect><rect x="2250.859903496752" y="962.0115016207944" fill="#000" width="196.46665954589844" height="25" opacity="1"></rect></mask><g transform="translate(2250.859903496752 962.0115016207947) rotate(0 295.78106698226907 94.41427543055556)"><text x="98.23332977294922" y="0" font-family="Virgil, Segoe UI Emoji" font-size="20px" fill="#1e1e1e" text-anchor="middle" style="white-space: pre;" direction="ltr" dominant-baseline="text-before-edge">updateNotification()</text></g><g transform="translate(2412.0346592747924 1295.7298136467803) rotate(0 255.9499969482422 137.5)"><text x="0" y="0" font-family="Virgil, Segoe UI Emoji" font-size="20px" fill="#1e1e1e" text-anchor="start" style="white-space: pre;" direction="ltr" dominant-baseline="text-before-edge">Notification</text><text x="0" y="25" font-family="Virgil, Segoe UI Emoji" font-size="20px" fill="#1e1e1e" text-anchor="start" style="white-space: pre;" direction="ltr" dominant-baseline="text-before-edge">-id</text><text x="0" y="50" font-family="Virgil, Segoe UI Emoji" font-size="20px" fill="#1e1e1e" text-anchor="start" style="white-space: pre;" direction="ltr" dominant-baseline="text-before-edge">-recipientID</text><text x="0" y="75" font-family="Virgil, Segoe UI Emoji" font-size="20px" fill="#1e1e1e" text-anchor="start" style="white-space: pre;" direction="ltr" dominant-baseline="text-before-edge">-errorMessage?</text><text x="0" y="100" font-family="Virgil, Segoe UI Emoji" font-size="20px" fill="#1e1e1e" text-anchor="start" style="white-space: pre;" direction="ltr" dominant-baseline="text-before-edge">-attempts</text><text x="0" y="125" font-family="Virgil, Segoe UI Emoji" font-size="20px" fill="#1e1e1e" text-anchor="start" style="white-space: pre;" direction="ltr" dominant-baseline="text-before-edge">-dateCreated</text><text x="0" y="150" font-family="Virgil, Segoe UI Emoji" font-size="20px" fill="#1e1e1e" text-anchor="start" style="white-space: pre;" direction="ltr" dominant-baseline="text-before-edge">-dateModified</text><text x="0" y="175" font-family="Virgil, Segoe UI Emoji" font-size="20px" fill="#1e1e1e" text-anchor="start" style="white-space: pre;" direction="ltr" dominant-baseline="text-before-edge">-message</text><text x="0" y="200" font-family="Virgil, Segoe UI Emoji" font-size="20px" fill="#1e1e1e" text-anchor="start" style="white-space: pre;" direction="ltr" dominant-baseline="text-before-edge">-subject</text><text x="0" y="225" font-family="Virgil, Segoe UI Emoji" font-size="20px" fill="#1e1e1e" text-anchor="start" style="white-space: pre;" direction="ltr" dominant-baseline="text-before-edge">-channel [iOs, Android, SMS, Email]</text><text x="0" y="250" font-family="Virgil, Segoe UI Emoji" font-size="20px" fill="#1e1e1e" text-anchor="start" style="white-space: pre;" direction="ltr" dominant-baseline="text-before-edge">-status [created, pending, failed, success, retrying]</text></g><g stroke-linecap="round" transform="translate(2777.746048304376 1002.7266236230782) rotate(0 66.73961550539912 34.72630400280923)"><path d="M17.36 0 C52.57 1.72, 87.23 -0.28, 116.12 0 M17.36 0 C43.15 0.55, 70.2 1, 116.12 0 M116.12 0 C126.73 -0.35, 135.02 5.02, 133.48 17.36 M116.12 0 C125.97 -0.21, 132.22 6.41, 133.48 17.36 M133.48 17.36 C132.81 27.18, 134.49 40.53, 133.48 52.09 M133.48 17.36 C133.53 26.37, 133.09 34.74, 133.48 52.09 M133.48 52.09 C133.25 64.25, 126.07 70.79, 116.12 69.45 M133.48 52.09 C134.31 62.28, 128.63 70.12, 116.12 69.45 M116.12 69.45 C90.64 70.29, 64.13 69.65, 17.36 69.45 M116.12 69.45 C90.02 68.13, 62.4 69.37, 17.36 69.45 M17.36 69.45 C7.33 70.28, -1.89 62.99, 0 52.09 M17.36 69.45 C4.08 67.79, -1.75 63.67, 0 52.09 M0 52.09 C0.9 46.34, -1.71 35.92, 0 17.36 M0 52.09 C-0.52 45.02, -0.64 36.72, 0 17.36 M0 17.36 C0.78 5.48, 4.72 -0.23, 17.36 0 M0 17.36 C-1.43 5.85, 3.84 1.49, 17.36 0" stroke="#1e1e1e" stroke-width="2" fill="none"></path></g><g transform="translate(2812.552331366538 1024.9529276258875) rotate(0 31.933332443237305 12.5)"><text x="31.933332443237305" y="0" font-family="Virgil, Segoe UI Emoji" font-size="20px" fill="#1e1e1e" text-anchor="middle" style="white-space: pre;" direction="ltr" dominant-baseline="text-before-edge">Worker</text></g><g mask="url(#mask-bFZ4eIvS2YdM2988QNZ9P)" stroke-linecap="round"><g transform="translate(2775.575654304202 750.96091960271) rotate(0 -355.94461602879505 221.9227865179529)"><path d="M-0.62 -0.84 C-119.16 16.6, -628.67 29.74, -711.07 103.81 C-793.47 177.88, -531.07 386.95, -495.02 443.57 M1.25 1.33 C-117.39 19.01, -628.82 31.25, -711.58 105.15 C-794.34 179.05, -530.97 388.19, -495.3 444.75" stroke="#1e1e1e" stroke-width="2" fill="none"></path></g><g transform="translate(2775.575654304202 750.96091960271) rotate(0 -355.94461602879505 221.9227865179529)"><path d="M-23.18 9.94 C-17.38 8.02, -9.47 4.77, -0.62 -0.84 M-23.18 9.94 C-16.09 6.5, -9.78 3.52, -0.62 -0.84" stroke="#1e1e1e" stroke-width="2" fill="none"></path></g><g transform="translate(2775.575654304202 750.96091960271) rotate(0 -355.94461602879505 221.9227865179529)"><path d="M-24.83 -7.09 C-18.63 -3.62, -10.2 -1.49, -0.62 -0.84 M-24.83 -7.09 C-17.12 -5.8, -10.35 -4.06, -0.62 -0.84" stroke="#1e1e1e" stroke-width="2" fill="none"></path></g><g transform="translate(2775.575654304202 750.96091960271) rotate(0 -355.94461602879505 221.9227865179529)"><path d="M-517.54 433.32 C-512 438.41, -504.19 442.18, -495.3 444.75 M-517.54 433.32 C-510.33 436.04, -504.1 439.21, -495.3 444.75" stroke="#1e1e1e" stroke-width="2" fill="none"></path></g><g transform="translate(2775.575654304202 750.96091960271) rotate(0 -355.94461602879505 221.9227865179529)"><path d="M-504.99 421.7 C-503.5 430.4, -499.65 437.84, -495.3 444.75 M-504.99 421.7 C-501.15 427.61, -498.4 434, -495.3 444.75" stroke="#1e1e1e" stroke-width="2" fill="none"></path></g></g><mask id="mask-bFZ4eIvS2YdM2988QNZ9P"><rect x="0" y="0" fill="#fff" width="3587.464886361792" height="1294.8064926386157"></rect><rect x="1965.4530924736632" y="842.6398316111377" fill="#000" width="196.46665954589844" height="25" opacity="1"></rect></mask><g transform="translate(1965.4530924736628 842.6398316111377) rotate(0 446.95530452740593 130.2729658807532)"><text x="98.23332977294922" y="0" font-family="Virgil, Segoe UI Emoji" font-size="20px" fill="#1e1e1e" text-anchor="middle" style="white-space: pre;" direction="ltr" dominant-baseline="text-before-edge">updateNotification()</text></g><g mask="url(#mask-yObSFU3zL5hSYH_4M52kU)" stroke-linecap="round"><g transform="translate(2741.93454730148 601.2037335905951) rotate(0 -391.213518531648 313.621933025371)"><path d="M0.25 0.34 C-130.15 23.09, -676.61 32.88, -782.83 137.56 C-889.05 242.24, -661.53 546.64, -637.07 628.42 M-1.07 -0.53 C-131.63 22.91, -677.86 34.43, -783.99 138.96 C-890.12 243.5, -662.64 545.48, -637.87 626.7" stroke="#1e1e1e" stroke-width="2" fill="none"></path></g><g transform="translate(2741.93454730148 601.2037335905951) rotate(0 -391.213518531648 313.621933025371)"><path d="M-22.15 11.43 C-15.78 7.78, -10.86 5.42, 0.25 0.34 M-22.15 11.43 C-13.6 7.46, -3.84 2.97, 0.25 0.34" stroke="#1e1e1e" stroke-width="2" fill="none"></path></g><g transform="translate(2741.93454730148 601.2037335905951) rotate(0 -391.213518531648 313.621933025371)"><path d="M-24.04 -5.57 C-17.02 -4.73, -11.6 -2.61, 0.25 0.34 M-24.04 -5.57 C-14.61 -2.79, -4.09 -0.51, 0.25 0.34" stroke="#1e1e1e" stroke-width="2" fill="none"></path></g><g transform="translate(2741.93454730148 601.2037335905951) rotate(0 -391.213518531648 313.621933025371)"><path d="M-656.23 609.73 C-650.68 613.5, -646.82 618.54, -637.87 626.7 M-656.23 609.73 C-649.09 616.97, -640.93 623.65, -637.87 626.7" stroke="#1e1e1e" stroke-width="2" fill="none"></path></g><g transform="translate(2741.93454730148 601.2037335905951) rotate(0 -391.213518531648 313.621933025371)"><path d="M-641.03 601.9 C-639.41 607.76, -639.57 614.87, -637.87 626.7 M-641.03 601.9 C-639.88 612.39, -637.77 622.19, -637.87 626.7" stroke="#1e1e1e" stroke-width="2" fill="none"></path></g></g><mask id="mask-yObSFU3zL5hSYH_4M52kU"><rect x="0" y="0" fill="#fff" width="3624.361584364776" height="1328.447599641337"></rect><rect x="1861.274180465235" y="726.5237526017441" fill="#000" width="196.46665954589844" height="25" opacity="1"></rect></mask><g transform="translate(1861.2741804652346 726.5237526017441) rotate(0 474.76737624311954 188.62568730436897)"><text x="98.23332977294922" y="0" font-family="Virgil, Segoe UI Emoji" font-size="20px" fill="#1e1e1e" text-anchor="middle" style="white-space: pre;" direction="ltr" dominant-baseline="text-before-edge">updateNotification()</text></g><g transform="translate(57.15716908429022 1698.3379006793505) rotate(0 190.09165954589844 62.499999999999886)"><text x="0" y="0" font-family="Virgil, Segoe UI Emoji" font-size="20px" fill="#1e1e1e" text-anchor="start" style="white-space: pre;" direction="ltr" dominant-baseline="text-before-edge">PATCH /notifications/{notificationId} </text><text x="0" y="25" font-family="Virgil, Segoe UI Emoji" font-size="20px" fill="#1e1e1e" text-anchor="start" style="white-space: pre;" direction="ltr" dominant-baseline="text-before-edge">{</text><text x="0" y="50" font-family="Virgil, Segoe UI Emoji" font-size="20px" fill="#1e1e1e" text-anchor="start" style="white-space: pre;" direction="ltr" dominant-baseline="text-before-edge">   status,</text><text x="0" y="75" font-family="Virgil, Segoe UI Emoji" font-size="20px" fill="#1e1e1e" text-anchor="start" style="white-space: pre;" direction="ltr" dominant-baseline="text-before-edge">   attempts</text><text x="0" y="100" font-family="Virgil, Segoe UI Emoji" font-size="20px" fill="#1e1e1e" text-anchor="start" style="white-space: pre;" direction="ltr" dominant-baseline="text-before-edge">}</text></g><g transform="translate(1340.9452201881447 1029.8565486252714) rotate(0 279.5666809082031 175)"><text x="0" y="0" font-family="Virgil, Segoe UI Emoji" font-size="20px" fill="#1e1e1e" text-anchor="start" style="white-space: pre;" direction="ltr" dominant-baseline="text-before-edge">Data Flow</text><text x="0" y="25" font-family="Virgil, Segoe UI Emoji" font-size="20px" fill="#1e1e1e" text-anchor="start" style="white-space: pre;" direction="ltr" dominant-baseline="text-before-edge">1. Client app sends notification to Notification Service</text><text x="0" y="50" font-family="Virgil, Segoe UI Emoji" font-size="20px" fill="#1e1e1e" text-anchor="start" style="white-space: pre;" direction="ltr" dominant-baseline="text-before-edge"></text><text x="0" y="75" font-family="Virgil, Segoe UI Emoji" font-size="20px" fill="#1e1e1e" text-anchor="start" style="white-space: pre;" direction="ltr" dominant-baseline="text-before-edge">2. Notification looks up user preferences and creates </text><text x="0" y="100" font-family="Virgil, Segoe UI Emoji" font-size="20px" fill="#1e1e1e" text-anchor="start" style="white-space: pre;" direction="ltr" dominant-baseline="text-before-edge">a new message to be sent to corresponding queues. A </text><text x="0" y="125" font-family="Virgil, Segoe UI Emoji" font-size="20px" fill="#1e1e1e" text-anchor="start" style="white-space: pre;" direction="ltr" dominant-baseline="text-before-edge">record of a new notification is created in the database</text><text x="0" y="150" font-family="Virgil, Segoe UI Emoji" font-size="20px" fill="#1e1e1e" text-anchor="start" style="white-space: pre;" direction="ltr" dominant-baseline="text-before-edge"></text><text x="0" y="175" font-family="Virgil, Segoe UI Emoji" font-size="20px" fill="#1e1e1e" text-anchor="start" style="white-space: pre;" direction="ltr" dominant-baseline="text-before-edge">3. Worker takes message from queue and sends the</text><text x="0" y="200" font-family="Virgil, Segoe UI Emoji" font-size="20px" fill="#1e1e1e" text-anchor="start" style="white-space: pre;" direction="ltr" dominant-baseline="text-before-edge">message over to the 3rd Party Channel Provider,</text><text x="0" y="225" font-family="Virgil, Segoe UI Emoji" font-size="20px" fill="#1e1e1e" text-anchor="start" style="white-space: pre;" direction="ltr" dominant-baseline="text-before-edge">(APN, FCM, Twilio, Email Service). Worker updates</text><text x="0" y="250" font-family="Virgil, Segoe UI Emoji" font-size="20px" fill="#1e1e1e" text-anchor="start" style="white-space: pre;" direction="ltr" dominant-baseline="text-before-edge">notification record with a status of success.</text><text x="0" y="275" font-family="Virgil, Segoe UI Emoji" font-size="20px" fill="#1e1e1e" text-anchor="start" style="white-space: pre;" direction="ltr" dominant-baseline="text-before-edge"></text><text x="0" y="300" font-family="Virgil, Segoe UI Emoji" font-size="20px" fill="#1e1e1e" text-anchor="start" style="white-space: pre;" direction="ltr" dominant-baseline="text-before-edge">4. Customer receives message through relevant channel</text><text x="0" y="325" font-family="Virgil, Segoe UI Emoji" font-size="20px" fill="#1e1e1e" text-anchor="start" style="white-space: pre;" direction="ltr" dominant-baseline="text-before-edge">based on their preferences.</text></g><g transform="translate(1344.2008111884106 1524.7063806653023) rotate(0 381.5416564941406 75)"><text x="0" y="0" font-family="Virgil, Segoe UI Emoji" font-size="20px" fill="#1e1e1e" text-anchor="start" style="white-space: pre;" direction="ltr" dominant-baseline="text-before-edge">Deep Dive 1 - How do we prevent duplicate notifications from coming through?</text><text x="0" y="25" font-family="Virgil, Segoe UI Emoji" font-size="20px" fill="#1e1e1e" text-anchor="start" style="white-space: pre;" direction="ltr" dominant-baseline="text-before-edge"></text><text x="0" y="50" font-family="Virgil, Segoe UI Emoji" font-size="20px" fill="#1e1e1e" text-anchor="start" style="white-space: pre;" direction="ltr" dominant-baseline="text-before-edge">In case of erroneous reprocessing of notifications from the queue,</text><text x="0" y="75" font-family="Virgil, Segoe UI Emoji" font-size="20px" fill="#1e1e1e" text-anchor="start" style="white-space: pre;" direction="ltr" dominant-baseline="text-before-edge">the worker can look up the notification by id to see if it already</text><text x="0" y="100" font-family="Virgil, Segoe UI Emoji" font-size="20px" fill="#1e1e1e" text-anchor="start" style="white-space: pre;" direction="ltr" dominant-baseline="text-before-edge">exists and if the status is successful. If the status is a success,</text><text x="0" y="125" font-family="Virgil, Segoe UI Emoji" font-size="20px" fill="#1e1e1e" text-anchor="start" style="white-space: pre;" direction="ltr" dominant-baseline="text-before-edge">then we will not send the message off to the 3rd Party Channel Provider.</text></g><g transform="translate(1346.3712051885866 1731.9790076820696) rotate(0 358.94168090820324 87.5)"><text x="0" y="0" font-family="Virgil, Segoe UI Emoji" font-size="20px" fill="#1e1e1e" text-anchor="start" style="white-space: pre;" direction="ltr" dominant-baseline="text-before-edge">Deep Dive 2 - How do we scale up to 10 million messages per day?</text><text x="0" y="25" font-family="Virgil, Segoe UI Emoji" font-size="20px" fill="#1e1e1e" text-anchor="start" style="white-space: pre;" direction="ltr" dominant-baseline="text-before-edge"></text><text x="0" y="50" font-family="Virgil, Segoe UI Emoji" font-size="20px" fill="#1e1e1e" text-anchor="start" style="white-space: pre;" direction="ltr" dominant-baseline="text-before-edge">We can autoscale the Notification Service based on CPU utilization,</text><text x="0" y="75" font-family="Virgil, Segoe UI Emoji" font-size="20px" fill="#1e1e1e" text-anchor="start" style="white-space: pre;" direction="ltr" dominant-baseline="text-before-edge">and do the same for our workers. If each notification was 200 bytes</text><text x="0" y="100" font-family="Virgil, Segoe UI Emoji" font-size="20px" fill="#1e1e1e" text-anchor="start" style="white-space: pre;" direction="ltr" dominant-baseline="text-before-edge">and we have 10 million messages per day, it would take up </text><text x="0" y="125" font-family="Virgil, Segoe UI Emoji" font-size="20px" fill="#1e1e1e" text-anchor="start" style="white-space: pre;" direction="ltr" dominant-baseline="text-before-edge">2 GB daily -&gt; about 1 TB annually. Older notifications could be sent to</text><text x="0" y="150" font-family="Virgil, Segoe UI Emoji" font-size="20px" fill="#1e1e1e" text-anchor="start" style="white-space: pre;" direction="ltr" dominant-baseline="text-before-edge">cold storage after a certain period of time.</text></g><g transform="translate(1343.1156141883241 1946.8480136994513) rotate(0 366.1583251953124 100)"><text x="0" y="0" font-family="Virgil, Segoe UI Emoji" font-size="20px" fill="#1e1e1e" text-anchor="start" style="white-space: pre;" direction="ltr" dominant-baseline="text-before-edge">Deep Dive 3 - How do we ensure that messages are delivered within 1s </text><text x="0" y="25" font-family="Virgil, Segoe UI Emoji" font-size="20px" fill="#1e1e1e" text-anchor="start" style="white-space: pre;" direction="ltr" dominant-baseline="text-before-edge">of being created?</text><text x="0" y="50" font-family="Virgil, Segoe UI Emoji" font-size="20px" fill="#1e1e1e" text-anchor="start" style="white-space: pre;" direction="ltr" dominant-baseline="text-before-edge"></text><text x="0" y="75" font-family="Virgil, Segoe UI Emoji" font-size="20px" fill="#1e1e1e" text-anchor="start" style="white-space: pre;" direction="ltr" dominant-baseline="text-before-edge">We can ensure that workers are autoscaled to serve the traffic load</text><text x="0" y="100" font-family="Virgil, Segoe UI Emoji" font-size="20px" fill="#1e1e1e" text-anchor="start" style="white-space: pre;" direction="ltr" dominant-baseline="text-before-edge">based on SQS queue size or CPU utilization.</text><text x="0" y="125" font-family="Virgil, Segoe UI Emoji" font-size="20px" fill="#1e1e1e" text-anchor="start" style="white-space: pre;" direction="ltr" dominant-baseline="text-before-edge"></text><text x="0" y="150" font-family="Virgil, Segoe UI Emoji" font-size="20px" fill="#1e1e1e" text-anchor="start" style="white-space: pre;" direction="ltr" dominant-baseline="text-before-edge">We could also employ a Template Service for emails so that the message</text><text x="0" y="175" font-family="Virgil, Segoe UI Emoji" font-size="20px" fill="#1e1e1e" text-anchor="start" style="white-space: pre;" direction="ltr" dominant-baseline="text-before-edge">can be quickly created once the worker has the message from SQS.</text></g><g stroke-linecap="round" transform="translate(2871.0729903119304 767.2388746040249) rotate(0 77.04898700623335 31.627795500131583)"><path d="M15.81 0 C38.95 0.37, 67.12 0.41, 138.28 0 M15.81 0 C63.18 -0.81, 107.71 -0.02, 138.28 0 M138.28 0 C150.09 -1.4, 153.79 6.72, 154.1 15.81 M138.28 0 C147.66 1.71, 153.36 5.58, 154.1 15.81 M154.1 15.81 C154.86 27.45, 152.73 41.03, 154.1 47.44 M154.1 15.81 C153.54 25.71, 154.78 35.86, 154.1 47.44 M154.1 47.44 C153.25 59.51, 150.34 64.1, 138.28 63.26 M154.1 47.44 C155.52 56.1, 148.26 61.24, 138.28 63.26 M138.28 63.26 C102.14 63.86, 70.17 64.38, 15.81 63.26 M138.28 63.26 C102.26 61.54, 64.44 62.43, 15.81 63.26 M15.81 63.26 C3.63 61.87, -0.59 56.23, 0 47.44 M15.81 63.26 C5.06 64.14, -1.94 56.12, 0 47.44 M0 47.44 C0.67 35.88, 0.57 23.8, 0 15.81 M0 47.44 C0.69 39.94, 1.13 34.36, 0 15.81 M0 15.81 C1.79 4.02, 4.22 -1.08, 15.81 0 M0 15.81 C2.07 7.02, 4.45 0.14, 15.81 0" stroke="#1e1e1e" stroke-width="2" fill="none"></path></g><g transform="translate(2886.596975792285 786.3666701041564) rotate(0 61.525001525878906 12.5)"><text x="61.525001525878906" y="0" font-family="Virgil, Segoe UI Emoji" font-size="20px" fill="#1e1e1e" text-anchor="middle" style="white-space: pre;" direction="ltr" dominant-baseline="text-before-edge">TemplateSvc</text></g><g stroke-linecap="round"><g transform="translate(2860.7886586979625 592.5221575898908) rotate(0 29.474933102412706 82.47497200667209)"><path d="M-0.42 -0.82 C9.32 26.67, 49.79 138.46, 59.67 165.97 M1.55 1.36 C11.1 29.06, 49.68 137.07, 59.1 164.39" stroke="#1e1e1e" stroke-width="2" fill="none"></path></g><g transform="translate(2860.7886586979625 592.5221575898908) rotate(0 29.474933102412706 82.47497200667209)"><path d="M15.58 18.38 C7.67 11.88, 4.37 2.92, -0.42 -0.82 M15.58 18.38 C12.53 14.31, 7.66 9.79, -0.42 -0.82" stroke="#1e1e1e" stroke-width="2" fill="none"></path></g><g transform="translate(2860.7886586979625 592.5221575898908) rotate(0 29.474933102412706 82.47497200667209)"><path d="M-0.51 24.18 C-2.06 15.42, 1.05 4.15, -0.42 -0.82 M-0.51 24.18 C0.33 18.76, -0.61 12.82, -0.42 -0.82" stroke="#1e1e1e" stroke-width="2" fill="none"></path></g><g transform="translate(2860.7886586979625 592.5221575898908) rotate(0 29.474933102412706 82.47497200667209)"><path d="M43.24 145.06 C48.36 154.03, 57.75 160.43, 59.1 164.39 M43.24 145.06 C48.18 150.52, 51.09 155.39, 59.1 164.39" stroke="#1e1e1e" stroke-width="2" fill="none"></path></g><g transform="translate(2860.7886586979625 592.5221575898908) rotate(0 29.474933102412706 82.47497200667209)"><path d="M59.38 139.39 C58.11 150.56, 61.07 159.22, 59.1 164.39 M59.38 139.39 C60.41 146.17, 59.39 152.42, 59.1 164.39" stroke="#1e1e1e" stroke-width="2" fill="none"></path></g></g><mask></mask><g stroke-linecap="round"><g transform="translate(2836.3466863091217 747.7053286024445) rotate(0 15.735356501273145 9.224174500746244)"><path d="M-0.3 -1.2 C4.87 1.61, 26.93 14.75, 32.14 17.83 M1.75 0.78 C6.71 3.65, 26.84 16.17, 31.55 19.04" stroke="#1e1e1e" stroke-width="2" fill="none"></path></g><g transform="translate(2836.3466863091217 747.7053286024445) rotate(0 15.735356501273145 9.224174500746244)"><path d="M17.65 2.06 C8.67 1.74, 2.42 -1.29, -0.3 -1.2 M17.65 2.06 C13.37 1.45, 11.12 0.01, -0.3 -1.2" stroke="#1e1e1e" stroke-width="2" fill="none"></path></g><g transform="translate(2836.3466863091217 747.7053286024445) rotate(0 15.735356501273145 9.224174500746244)"><path d="M11.35 12.83 C4.79 8.25, 1.04 0.94, -0.3 -1.2 M11.35 12.83 C8.33 10.01, 7.34 6.41, -0.3 -1.2" stroke="#1e1e1e" stroke-width="2" fill="none"></path></g><g transform="translate(2836.3466863091217 747.7053286024445) rotate(0 15.735356501273145 9.224174500746244)"><path d="M13.68 15.37 C18.98 17.89, 26.96 17.61, 31.55 19.04 M13.68 15.37 C16.62 15.91, 21.57 15.87, 31.55 19.04" stroke="#1e1e1e" stroke-width="2" fill="none"></path></g><g transform="translate(2836.3466863091217 747.7053286024445) rotate(0 15.735356501273145 9.224174500746244)"><path d="M20.22 4.74 C23.01 11.47, 28.39 15.41, 31.55 19.04 M20.22 4.74 C21.86 7.47, 25.49 9.56, 31.55 19.04" stroke="#1e1e1e" stroke-width="2" fill="none"></path></g></g><mask></mask><g stroke-linecap="round"><g transform="translate(2897.117718314038 850.6462841666043) rotate(0 20.489071909137692 -4.807006778304867)"><path d="M-0.01 -0.5 C6.78 -2.09, 33.81 -7.94, 40.72 -9.44 M-0.68 0.43 C6.02 -1.33, 33.15 -8.78, 40.16 -10.31" stroke="#1e1e1e" stroke-width="2" fill="none"></path></g><g transform="translate(2897.117718314038 850.6462841666043) rotate(0 20.489071909137692 -4.807006778304867)"><path d="M17.75 -11.78 C11.69 -8.98, 7.77 -4.36, -0.01 -0.5 M17.75 -11.78 C12.37 -8.04, 5.74 -4.67, -0.01 -0.5" stroke="#1e1e1e" stroke-width="2" fill="none"></path></g><g transform="translate(2897.117718314038 850.6462841666043) rotate(0 20.489071909137692 -4.807006778304867)"><path d="M20.85 2.27 C13.88 1, 9.06 1.54, -0.01 -0.5 M20.85 2.27 C14.43 1.4, 6.78 0.16, -0.01 -0.5" stroke="#1e1e1e" stroke-width="2" fill="none"></path></g><g transform="translate(2897.117718314038 850.6462841666043) rotate(0 20.489071909137692 -4.807006778304867)"><path d="M22.72 1.47 C26.86 -2.41, 33.16 -4.49, 40.16 -10.31 M22.72 1.47 C28.85 -2.31, 33.76 -6.5, 40.16 -10.31" stroke="#1e1e1e" stroke-width="2" fill="none"></path></g><g transform="translate(2897.117718314038 850.6462841666043) rotate(0 20.489071909137692 -4.807006778304867)"><path d="M19.23 -12.49 C24.39 -12.32, 31.7 -10.35, 40.16 -10.31 M19.23 -12.49 C26.52 -11.69, 32.58 -11.31, 40.16 -10.31" stroke="#1e1e1e" stroke-width="2" fill="none"></path></g></g><mask></mask><g stroke-linecap="round"><g transform="translate(2915.5660673155307 1005.6593812150913) rotate(0 17.585884098465158 -80.14316130237273)"><path d="M0.37 -0.23 C6.18 -27.08, 28.69 -133.63, 34.65 -160.48 M-0.9 -1.39 C4.73 -28.11, 27.3 -132.52, 33.43 -159.04" stroke="#1e1e1e" stroke-width="2" fill="none"></path></g><g transform="translate(2915.5660673155307 1005.6593812150913) rotate(0 17.585884098465158 -80.14316130237273)"><path d="M-3.1 -24.98 C-2.37 -18.93, -1.35 -9.51, 0.37 -0.23 M-3.1 -24.98 C-3.37 -19.06, -1.85 -15.14, 0.37 -0.23" stroke="#1e1e1e" stroke-width="2" fill="none"></path></g><g transform="translate(2915.5660673155307 1005.6593812150913) rotate(0 17.585884098465158 -80.14316130237273)"><path d="M13.63 -21.42 C9.65 -16.32, 5.99 -7.89, 0.37 -0.23 M13.63 -21.42 C9.78 -16.4, 7.72 -13.24, 0.37 -0.23" stroke="#1e1e1e" stroke-width="2" fill="none"></path></g><g transform="translate(2915.5660673155307 1005.6593812150913) rotate(0 17.585884098465158 -80.14316130237273)"><path d="M36.67 -134.26 C35.26 -142.06, 34.4 -146.51, 33.43 -159.04 M36.67 -134.26 C35.11 -139.01, 35.2 -145.71, 33.43 -159.04" stroke="#1e1e1e" stroke-width="2" fill="none"></path></g><g transform="translate(2915.5660673155307 1005.6593812150913) rotate(0 17.585884098465158 -80.14316130237273)"><path d="M19.98 -137.97 C23.26 -144.78, 27.08 -148.2, 33.43 -159.04 M19.98 -137.97 C21.99 -141.8, 25.66 -147.7, 33.43 -159.04" stroke="#1e1e1e" stroke-width="2" fill="none"></path></g></g><mask></mask><g transform="translate(2243.8291242611895 1671.2079756771527) rotate(0 433.7749938964844 137.5)"><text x="0" y="0" font-family="Virgil, Segoe UI Emoji" font-size="20px" fill="#1e1e1e" text-anchor="start" style="white-space: pre;" direction="ltr" dominant-baseline="text-before-edge">Deep Dive 4 - How does the worker handle errors if the 3rd party provider</text><text x="0" y="25" font-family="Virgil, Segoe UI Emoji" font-size="20px" fill="#1e1e1e" text-anchor="start" style="white-space: pre;" direction="ltr" dominant-baseline="text-before-edge">is not responding for any reason?</text><text x="0" y="50" font-family="Virgil, Segoe UI Emoji" font-size="20px" fill="#1e1e1e" text-anchor="start" style="white-space: pre;" direction="ltr" dominant-baseline="text-before-edge"></text><text x="0" y="75" font-family="Virgil, Segoe UI Emoji" font-size="20px" fill="#1e1e1e" text-anchor="start" style="white-space: pre;" direction="ltr" dominant-baseline="text-before-edge">If there is a visible error, we update the number of attempts for that notification</text><text x="0" y="100" font-family="Virgil, Segoe UI Emoji" font-size="20px" fill="#1e1e1e" text-anchor="start" style="white-space: pre;" direction="ltr" dominant-baseline="text-before-edge">and put the message back onto the queue. For invisible failures, SQS has a visibility </text><text x="0" y="125" font-family="Virgil, Segoe UI Emoji" font-size="20px" fill="#1e1e1e" text-anchor="start" style="white-space: pre;" direction="ltr" dominant-baseline="text-before-edge">timeout. If the worker doesn't process the message without the visibility timeout,</text><text x="0" y="150" font-family="Virgil, Segoe UI Emoji" font-size="20px" fill="#1e1e1e" text-anchor="start" style="white-space: pre;" direction="ltr" dominant-baseline="text-before-edge">then the message will get processed by another worker.</text><text x="0" y="175" font-family="Virgil, Segoe UI Emoji" font-size="20px" fill="#1e1e1e" text-anchor="start" style="white-space: pre;" direction="ltr" dominant-baseline="text-before-edge"></text><text x="0" y="200" font-family="Virgil, Segoe UI Emoji" font-size="20px" fill="#1e1e1e" text-anchor="start" style="white-space: pre;" direction="ltr" dominant-baseline="text-before-edge">We could also employ circuit breakers before the worker communicates with the APN,</text><text x="0" y="225" font-family="Virgil, Segoe UI Emoji" font-size="20px" fill="#1e1e1e" text-anchor="start" style="white-space: pre;" direction="ltr" dominant-baseline="text-before-edge">TCM, Twilio or Email Service. If there are more than a certain number of failures over</text><text x="0" y="250" font-family="Virgil, Segoe UI Emoji" font-size="20px" fill="#1e1e1e" text-anchor="start" style="white-space: pre;" direction="ltr" dominant-baseline="text-before-edge">a threshold, then we can fail quickly and alert on the failures.</text></g></svg>