<svg version="1.1" xmlns="http://www.w3.org/2000/svg" viewBox="0 0 4820 2220" width="4820" height="2220">
  <!-- svg-source:excalidraw -->
  
  <defs>
    <style class="style-fonts">
      @font-face {
        font-family: "Virgil";
        src: url("https://excalidraw.com/Virgil.woff2");
      }
      @font-face {
        font-family: "Cascadia";
        src: url("https://excalidraw.com/Cascadia.woff2");
      }
      @font-face {
        font-family: "Assistant";
        src: url("https://excalidraw.com/Assistant-Regular.woff2");
      }
    </style>
    
  </defs>
  <rect x="0" y="0" width="4820" height="2220" fill="#FFF"></rect><g stroke-linecap="round" transform="translate(10 10) rotate(0 625 215)"><path d="M32 0 C466.97 4.5, 902.53 5.16, 1218 0 M32 0 C424.88 0.62, 818.19 0.48, 1218 0 M1218 0 C1237.72 0.62, 1248.31 11.12, 1250 32 M1218 0 C1238.14 -0.52, 1250.86 11.37, 1250 32 M1250 32 C1251.45 119.26, 1249.51 207.45, 1250 398 M1250 32 C1250.94 139.81, 1251.16 247.49, 1250 398 M1250 398 C1248.61 419.98, 1237.99 430.5, 1218 430 M1250 398 C1250.57 419.91, 1238.88 432.12, 1218 430 M1218 430 C859.33 430.84, 500.36 430.37, 32 430 M1218 430 C963.1 428.05, 707.72 428.22, 32 430 M32 430 C10.3 428.53, 1.57 417.35, 0 398 M32 430 C9.79 431, -0.24 419.51, 0 398 M0 398 C0.84 273.22, 0.34 146.06, 0 32 M0 398 C0.46 269.84, 0.43 140.95, 0 32 M0 32 C-0.82 11.9, 11.25 1.27, 32 0 M0 32 C-0.73 12.2, 9.53 -0.3, 32 0" stroke="#000000" stroke-width="1" fill="none"></path></g><g transform="translate(60 50) rotate(0 500 20)"><text x="0" y="0" font-family="Cascadia, Segoe UI Emoji" font-size="30px" fill="#000000" text-anchor="start" style="white-space: pre;" direction="ltr" dominant-baseline="text-before-edge">Functional Requirements</text></g><g stroke-linecap="round" transform="translate(10 490) rotate(0 625 160)"><path d="M32 0 C277.01 -0.52, 521.92 0.24, 1218 0 M32 0 C431.82 -3.26, 831.78 -3.25, 1218 0 M1218 0 C1239.66 -0.75, 1249.18 10.63, 1250 32 M1218 0 C1240.07 0.87, 1248.09 9.06, 1250 32 M1250 32 C1248.56 120.79, 1249.75 209.95, 1250 288 M1250 32 C1251.66 93.55, 1252.45 155.13, 1250 288 M1250 288 C1250.95 309.38, 1239.53 319.42, 1218 320 M1250 288 C1250.04 307.32, 1240.25 318.77, 1218 320 M1218 320 C882.4 319.72, 547.55 319.43, 32 320 M1218 320 C746.24 320.48, 274.86 320.65, 32 320 M32 320 C12.37 318.23, 0.25 308.63, 0 288 M32 320 C9.85 318.47, 1.26 310.4, 0 288 M0 288 C-0.34 230.14, -1.89 170.63, 0 32 M0 288 C2.05 224.74, 1.93 161.39, 0 32 M0 32 C-0.59 8.79, 10.5 -0.6, 32 0 M0 32 C-1.98 12.47, 8.63 0.15, 32 0" stroke="#000000" stroke-width="1" fill="none"></path></g><g transform="translate(60 530) rotate(0 500 20)"><text x="0" y="0" font-family="Cascadia, Segoe UI Emoji" font-size="30px" fill="#000000" text-anchor="start" style="white-space: pre;" direction="ltr" dominant-baseline="text-before-edge">Non-Functional Requirements</text></g><g stroke-linecap="round" transform="translate(10 860) rotate(0 625 200)"><path d="M32 0 C410.49 -2.39, 789.43 -2.47, 1218 0 M32 0 C291.93 -2.77, 551.38 -2.32, 1218 0 M1218 0 C1238.35 1.53, 1251.37 10.17, 1250 32 M1218 0 C1237.66 1.33, 1248.85 9.02, 1250 32 M1250 32 C1250.32 110.79, 1251.01 191.98, 1250 368 M1250 32 C1249.92 116.78, 1250.47 202.38, 1250 368 M1250 368 C1251.29 388.73, 1239.16 400.02, 1218 400 M1250 368 C1250.87 388.69, 1238.6 401.74, 1218 400 M1218 400 C907.89 396.55, 596.56 395.76, 32 400 M1218 400 C934.79 404.31, 651.45 404.42, 32 400 M32 400 C9.7 400.97, 1.42 387.64, 0 368 M32 400 C8.78 402.11, 0.28 388.06, 0 368 M0 368 C-0.34 292.53, 1.56 216.8, 0 32 M0 368 C1.32 245.38, 1.15 121.93, 0 32 M0 32 C-0.39 12.61, 8.7 -0.83, 32 0 M0 32 C-1.67 10.03, 9.4 1.64, 32 0" stroke="#000000" stroke-width="1" fill="none"></path></g><g transform="translate(60 910) rotate(0 500 25)"><text x="0" y="0" font-family="Cascadia, Segoe UI Emoji" font-size="30px" fill="#000000" text-anchor="start" style="white-space: pre;" direction="ltr" dominant-baseline="text-before-edge">Core Entities</text></g><g stroke-linecap="round" transform="translate(10 1310) rotate(0 625 450)"><path d="M32 0 C319.6 2.89, 608.19 3.52, 1218 0 M32 0 C289.78 -1.18, 547.68 -1.08, 1218 0 M1218 0 C1241.24 0.84, 1249.82 11.42, 1250 32 M1218 0 C1241 -1.92, 1251.92 12.7, 1250 32 M1250 32 C1251.22 340.87, 1252.33 650.06, 1250 868 M1250 32 C1248.95 206.09, 1248.4 381, 1250 868 M1250 868 C1251.58 887.78, 1238.25 899.49, 1218 900 M1250 868 C1248.02 890.32, 1237.76 901.52, 1218 900 M1218 900 C971.88 899.03, 725.07 899.64, 32 900 M1218 900 C922.42 895.51, 626.82 895.62, 32 900 M32 900 C11.15 900.99, -0.54 890.13, 0 868 M32 900 C9.57 901.78, 1.59 887.61, 0 868 M0 868 C3.07 661.08, 2.29 453.56, 0 32 M0 868 C1.7 667.21, 1.4 467.34, 0 32 M0 32 C-0.28 11.59, 10.74 -0.95, 32 0 M0 32 C-0.47 10.64, 11.38 -0.68, 32 0" stroke="#000000" stroke-width="1" fill="none"></path></g><g transform="translate(60 1360) rotate(0 500 25)"><text x="0" y="0" font-family="Cascadia, Segoe UI Emoji" font-size="30px" fill="#000000" text-anchor="start" style="white-space: pre;" direction="ltr" dominant-baseline="text-before-edge">API Routes</text></g><g stroke-linecap="round" transform="translate(1310 10) rotate(0 1750 1100)"><path d="M32 0 C1338.77 -2.28, 2643.81 -2.55, 3468 0 M32 0 C769.4 8.75, 1506.7 9.2, 3468 0 M3468 0 C3488.11 1.74, 3501.97 11.78, 3500 32 M3468 0 C3490.97 1.03, 3501.56 10.29, 3500 32 M3500 32 C3499.32 761.49, 3498.85 1490.62, 3500 2168 M3500 32 C3506.69 487.36, 3506.46 942.12, 3500 2168 M3500 2168 C3501.85 2188.09, 3490.06 2198.39, 3468 2200 M3500 2168 C3499.74 2189.58, 3489.33 2200.23, 3468 2200 M3468 2200 C2457.98 2194.94, 1447.8 2194.55, 32 2200 M3468 2200 C2202.67 2209.93, 938.06 2210.65, 32 2200 M32 2200 C12.02 2200.23, -0.39 2190.58, 0 2168 M32 2200 C9.57 2199.07, -1.93 2189.98, 0 2168 M0 2168 C7.97 1503.23, 7.05 839.64, 0 32 M0 2168 C2.67 1485.84, 2.61 803.68, 0 32 M0 32 C-1.35 11.82, 10.85 1.16, 32 0 M0 32 C-1.59 8.56, 9.7 -1.91, 32 0" stroke="#000000" stroke-width="1" fill="none"></path></g><g transform="translate(1360 60) rotate(0 500 25)"><text x="0" y="0" font-family="Cascadia, Segoe UI Emoji" font-size="30px" fill="#000000" text-anchor="start" style="white-space: pre;" direction="ltr" dominant-baseline="text-before-edge">High-Level Design</text></g><g transform="translate(71.70310782997271 114.15459997988756) rotate(0 362.8497314453125 50)"><text x="0" y="0" font-family="Virgil, Segoe UI Emoji" font-size="20px" fill="#1e1e1e" text-anchor="start" style="white-space: pre;" direction="ltr" dominant-baseline="text-before-edge">// High level is to design a webhook callback system</text><text x="0" y="25" font-family="Virgil, Segoe UI Emoji" font-size="20px" fill="#1e1e1e" text-anchor="start" style="white-space: pre;" direction="ltr" dominant-baseline="text-before-edge"></text><text x="0" y="50" font-family="Virgil, Segoe UI Emoji" font-size="20px" fill="#1e1e1e" text-anchor="start" style="white-space: pre;" direction="ltr" dominant-baseline="text-before-edge">- Users can register a webhook URL to notify of them on certain events</text><text x="0" y="75" font-family="Virgil, Segoe UI Emoji" font-size="20px" fill="#1e1e1e" text-anchor="start" style="white-space: pre;" direction="ltr" dominant-baseline="text-before-edge">- Internal services can queue these messages to trigger webhook calls</text></g><g transform="translate(52.90104934794121 574.2844532518953) rotate(0 508.07958984374994 62.5)"><text x="0" y="0" font-family="Virgil, Segoe UI Emoji" font-size="20px" fill="#1e1e1e" text-anchor="start" style="white-space: pre;" direction="ltr" dominant-baseline="text-before-edge">- guarantee at-least once delivery of all notifications</text><text x="0" y="25" font-family="Virgil, Segoe UI Emoji" font-size="20px" fill="#1e1e1e" text-anchor="start" style="white-space: pre;" direction="ltr" dominant-baseline="text-before-edge">- notifications should be relatively low latency &lt;1s after event trigger</text><text x="0" y="50" font-family="Virgil, Segoe UI Emoji" font-size="20px" fill="#1e1e1e" text-anchor="start" style="white-space: pre;" direction="ltr" dominant-baseline="text-before-edge">- scalable to 1B events / day and 10k events / second and 1M organizations registered</text><text x="0" y="75" font-family="Virgil, Segoe UI Emoji" font-size="20px" fill="#1e1e1e" text-anchor="start" style="white-space: pre;" direction="ltr" dominant-baseline="text-before-edge">- prioritize security for clients that can see the messages</text><text x="0" y="100" font-family="Virgil, Segoe UI Emoji" font-size="20px" fill="#1e1e1e" text-anchor="start" style="white-space: pre;" direction="ltr" dominant-baseline="text-before-edge">- availability &gt;&gt; consistency (even if a server is offline, we can register and deliver webhook callbacks)</text></g><g transform="translate(59.14818226210289 958.1527486264886) rotate(0 116.39990997314452 50)"><text x="0" y="0" font-family="Virgil, Segoe UI Emoji" font-size="20px" fill="#1e1e1e" text-anchor="start" style="white-space: pre;" direction="ltr" dominant-baseline="text-before-edge">- Event</text><text x="0" y="25" font-family="Virgil, Segoe UI Emoji" font-size="20px" fill="#1e1e1e" text-anchor="start" style="white-space: pre;" direction="ltr" dominant-baseline="text-before-edge">- WebhookSubscription</text><text x="0" y="50" font-family="Virgil, Segoe UI Emoji" font-size="20px" fill="#1e1e1e" text-anchor="start" style="white-space: pre;" direction="ltr" dominant-baseline="text-before-edge">- External Organization</text><text x="0" y="75" font-family="Virgil, Segoe UI Emoji" font-size="20px" fill="#1e1e1e" text-anchor="start" style="white-space: pre;" direction="ltr" dominant-baseline="text-before-edge">- Internval Service</text></g><g transform="translate(57.834854822699356 1414.1858582631958) rotate(0 346.92974853515625 187.5)"><text x="0" y="0" font-family="Virgil, Segoe UI Emoji" font-size="20px" fill="#1e1e1e" text-anchor="start" style="white-space: pre;" direction="ltr" dominant-baseline="text-before-edge">// External: Register a new webhook to be notified of certain events.</text><text x="0" y="25" font-family="Virgil, Segoe UI Emoji" font-size="20px" fill="#1e1e1e" text-anchor="start" style="white-space: pre;" direction="ltr" dominant-baseline="text-before-edge">POST /webhoooks</text><text x="0" y="50" font-family="Virgil, Segoe UI Emoji" font-size="20px" fill="#1e1e1e" text-anchor="start" style="white-space: pre;" direction="ltr" dominant-baseline="text-before-edge">header: auth_token</text><text x="0" y="75" font-family="Virgil, Segoe UI Emoji" font-size="20px" fill="#1e1e1e" text-anchor="start" style="white-space: pre;" direction="ltr" dominant-baseline="text-before-edge">body: {</text><text x="0" y="100" font-family="Virgil, Segoe UI Emoji" font-size="20px" fill="#1e1e1e" text-anchor="start" style="white-space: pre;" direction="ltr" dominant-baseline="text-before-edge">    event_type,</text><text x="0" y="125" font-family="Virgil, Segoe UI Emoji" font-size="20px" fill="#1e1e1e" text-anchor="start" style="white-space: pre;" direction="ltr" dominant-baseline="text-before-edge">    webhook_url,</text><text x="0" y="150" font-family="Virgil, Segoe UI Emoji" font-size="20px" fill="#1e1e1e" text-anchor="start" style="white-space: pre;" direction="ltr" dominant-baseline="text-before-edge">}</text><text x="0" y="175" font-family="Virgil, Segoe UI Emoji" font-size="20px" fill="#1e1e1e" text-anchor="start" style="white-space: pre;" direction="ltr" dominant-baseline="text-before-edge"></text><text x="0" y="200" font-family="Virgil, Segoe UI Emoji" font-size="20px" fill="#1e1e1e" text-anchor="start" style="white-space: pre;" direction="ltr" dominant-baseline="text-before-edge">// Internal: services can send triggers for events</text><text x="0" y="225" font-family="Virgil, Segoe UI Emoji" font-size="20px" fill="#1e1e1e" text-anchor="start" style="white-space: pre;" direction="ltr" dominant-baseline="text-before-edge">POST /events</text><text x="0" y="250" font-family="Virgil, Segoe UI Emoji" font-size="20px" fill="#1e1e1e" text-anchor="start" style="white-space: pre;" direction="ltr" dominant-baseline="text-before-edge">body: {</text><text x="0" y="275" font-family="Virgil, Segoe UI Emoji" font-size="20px" fill="#1e1e1e" text-anchor="start" style="white-space: pre;" direction="ltr" dominant-baseline="text-before-edge">    organization_id,</text><text x="0" y="300" font-family="Virgil, Segoe UI Emoji" font-size="20px" fill="#1e1e1e" text-anchor="start" style="white-space: pre;" direction="ltr" dominant-baseline="text-before-edge">    event_type,</text><text x="0" y="325" font-family="Virgil, Segoe UI Emoji" font-size="20px" fill="#1e1e1e" text-anchor="start" style="white-space: pre;" direction="ltr" dominant-baseline="text-before-edge">    payload,</text><text x="0" y="350" font-family="Virgil, Segoe UI Emoji" font-size="20px" fill="#1e1e1e" text-anchor="start" style="white-space: pre;" direction="ltr" dominant-baseline="text-before-edge">}</text></g><g stroke-linecap="round" transform="translate(1594.6684440482657 713.4474533150253) rotate(0 99.06373557137397 52.21580801640255)"><path d="M26.11 0 C79.51 -0.76, 130.91 2.66, 172.02 0 M26.11 0 C78.82 1.12, 130.35 0.89, 172.02 0 M172.02 0 C188.38 0.81, 198.59 7.02, 198.13 26.11 M172.02 0 C190.29 -2.07, 196.24 7.08, 198.13 26.11 M198.13 26.11 C198.83 44.06, 196.52 65.36, 198.13 78.32 M198.13 26.11 C198.7 40.85, 198.15 55.92, 198.13 78.32 M198.13 78.32 C197.98 95.85, 187.76 105.04, 172.02 104.43 M198.13 78.32 C196.61 95.56, 188.08 106.05, 172.02 104.43 M172.02 104.43 C113.86 107.61, 60.23 107.28, 26.11 104.43 M172.02 104.43 C116.67 103.35, 61.73 102.09, 26.11 104.43 M26.11 104.43 C7.9 106.04, 0.2 96.15, 0 78.32 M26.11 104.43 C10.01 102.54, 0.5 97.17, 0 78.32 M0 78.32 C-1 60.37, -0.67 39.93, 0 26.11 M0 78.32 C0.87 64.78, -0.82 52.57, 0 26.11 M0 26.11 C-1.22 9.72, 7.06 1.34, 26.11 0 M0 26.11 C-0.85 7.25, 10.5 -2.05, 26.11 0" stroke="#1e1e1e" stroke-width="2" fill="none"></path></g><g transform="translate(1633.1922321098739 753.1632613314277) rotate(0 60.539947509765625 12.5)"><text x="60.539947509765625" y="0" font-family="Virgil, Segoe UI Emoji" font-size="20px" fill="#1e1e1e" text-anchor="middle" style="white-space: pre;" direction="ltr" dominant-baseline="text-before-edge">Organization</text></g><g stroke-linecap="round" transform="translate(1980.6692449418238 475.85450057493017) rotate(0 94.24759348628345 213.35189072732464)"><path d="M32 0 C79.89 -2.18, 129.16 0.87, 156.5 0 M32 0 C78.16 2, 125.36 1.5, 156.5 0 M156.5 0 C177.95 1.59, 187.69 10.92, 188.5 32 M156.5 0 C175.86 -2.02, 190.15 8.86, 188.5 32 M188.5 32 C188.93 173.99, 188.89 319.23, 188.5 394.7 M188.5 32 C190.89 138.34, 190.94 243.66, 188.5 394.7 M188.5 394.7 C187.68 415.92, 179.49 425.53, 156.5 426.7 M188.5 394.7 C188.98 417.24, 179.43 427.1, 156.5 426.7 M156.5 426.7 C125.42 424.09, 93.19 424.42, 32 426.7 M156.5 426.7 C111.52 426.92, 64.94 426.47, 32 426.7 M32 426.7 C11.07 425.59, -1.77 415.35, 0 394.7 M32 426.7 C9.59 426.08, -0.16 417.08, 0 394.7 M0 394.7 C-0.68 258.07, 1.39 122.32, 0 32 M0 394.7 C1.1 277.77, 0.37 159.58, 0 32 M0 32 C0.37 8.97, 9.15 -1.26, 32 0 M0 32 C1.34 12.33, 12.41 0.75, 32 0" stroke="#1e1e1e" stroke-width="2" fill="none"></path></g><g transform="translate(2031.786864062873 664.2063913022548) rotate(0 43.129974365234375 25)"><text x="43.129974365234375" y="0" font-family="Virgil, Segoe UI Emoji" font-size="20px" fill="#1e1e1e" text-anchor="middle" style="white-space: pre;" direction="ltr" dominant-baseline="text-before-edge">Gateway</text><text x="43.129974365234375" y="25" font-family="Virgil, Segoe UI Emoji" font-size="20px" fill="#1e1e1e" text-anchor="middle" style="white-space: pre;" direction="ltr" dominant-baseline="text-before-edge">- auth</text></g><g stroke-linecap="round"><g transform="translate(1810.971245188407 738.2730943845543) rotate(0 76.14577194023673 -23.78953947393819)"><path d="M-0.06 0 C25.3 -7.82, 126.37 -39.08, 151.91 -46.96 M-1.55 -1.04 C23.64 -9.21, 125.03 -41.3, 150.76 -48.75" stroke="#1e1e1e" stroke-width="2" fill="none"></path></g><g transform="translate(1810.971245188407 738.2730943845543) rotate(0 76.14577194023673 -23.78953947393819)"><path d="M19.86 -15.1 C14.28 -11.52, 9.73 -5.25, -0.06 0 M19.86 -15.1 C12.71 -10.42, 6.58 -5.52, -0.06 0" stroke="#1e1e1e" stroke-width="2" fill="none"></path></g><g transform="translate(1810.971245188407 738.2730943845543) rotate(0 76.14577194023673 -23.78953947393819)"><path d="M24.91 1.23 C17.92 0.23, 11.95 1.93, -0.06 0 M24.91 1.23 C16.22 0.6, 8.43 0.14, -0.06 0" stroke="#1e1e1e" stroke-width="2" fill="none"></path></g><g transform="translate(1810.971245188407 738.2730943845543) rotate(0 76.14577194023673 -23.78953947393819)"><path d="M130.78 -33.72 C136.39 -38.57, 143.02 -40.74, 150.76 -48.75 M130.78 -33.72 C136.92 -39.18, 143.86 -44.16, 150.76 -48.75" stroke="#1e1e1e" stroke-width="2" fill="none"></path></g><g transform="translate(1810.971245188407 738.2730943845543) rotate(0 76.14577194023673 -23.78953947393819)"><path d="M125.79 -50.08 C132.79 -50.33, 140.82 -47.92, 150.76 -48.75 M125.79 -50.08 C133.45 -50.21, 142.03 -49.83, 150.76 -48.75" stroke="#1e1e1e" stroke-width="2" fill="none"></path></g></g><mask></mask><g stroke-linecap="round" transform="translate(2468.786007663419 377.81497384211946) rotate(0 137.8764236415402 77.9432075990826)"><path d="M32 0 C107.63 0.02, 185.16 0.6, 243.75 0 M32 0 C104.63 -2.11, 177.94 -2.42, 243.75 0 M243.75 0 C266.46 1.06, 275.5 12.47, 275.75 32 M243.75 0 C266.86 -0.18, 274.31 10.97, 275.75 32 M275.75 32 C275.48 68.61, 273.96 104.06, 275.75 123.89 M275.75 32 C276.33 51.89, 276.37 71.01, 275.75 123.89 M275.75 123.89 C277.48 146.28, 264.27 154.89, 243.75 155.89 M275.75 123.89 C277.95 143.91, 266.41 156.55, 243.75 155.89 M243.75 155.89 C169.05 155.84, 90.78 155.92, 32 155.89 M243.75 155.89 C192.18 156.84, 139.74 157.2, 32 155.89 M32 155.89 C8.87 154.82, 1.1 146.03, 0 123.89 M32 155.89 C10.3 154.35, 1.57 145.77, 0 123.89 M0 123.89 C0.23 91.74, -2.14 57.64, 0 32 M0 123.89 C-0.64 102.72, -0.42 81.5, 0 32 M0 32 C1.73 9.54, 9.75 1.4, 32 0 M0 32 C0.89 10.45, 9.82 -0.87, 32 0" stroke="#1e1e1e" stroke-width="2" fill="none"></path></g><g transform="translate(2508.3525252991 443.25818144120205) rotate(0 98.30990600585938 12.5)"><text x="98.30990600585938" y="0" font-family="Virgil, Segoe UI Emoji" font-size="20px" fill="#1e1e1e" text-anchor="middle" style="white-space: pre;" direction="ltr" dominant-baseline="text-before-edge">Registration Service</text></g><g mask="url(#mask-KybQtnvWl8O1aK7W47zWv)" stroke-linecap="round"><g transform="translate(2191.2695629923014 589.1762395530423) rotate(0 132.24059028988154 -66.13848436544924)"><path d="M0 -0.18 C43.86 -22.36, 219.47 -111.21, 263.47 -133.23 M-1.46 -1.32 C42.73 -23.37, 221.58 -110.58, 265.65 -132.19" stroke="#1e1e1e" stroke-width="2" fill="none"></path></g><g transform="translate(2191.2695629923014 589.1762395530423) rotate(0 132.24059028988154 -66.13848436544924)"><path d="M17.11 -18.41 C11.22 -14.15, 4.36 -7.35, 0 -0.18 M17.11 -18.41 C11.96 -13.25, 6.24 -7.44, 0 -0.18" stroke="#1e1e1e" stroke-width="2" fill="none"></path></g><g transform="translate(2191.2695629923014 589.1762395530423) rotate(0 132.24059028988154 -66.13848436544924)"><path d="M24.82 -3.14 C16.43 -3.86, 7.06 -2.03, 0 -0.18 M24.82 -3.14 C17.45 -2.56, 9.41 -1.34, 0 -0.18" stroke="#1e1e1e" stroke-width="2" fill="none"></path></g><g transform="translate(2191.2695629923014 589.1762395530423) rotate(0 132.24059028988154 -66.13848436544924)"><path d="M248.3 -114.19 C253.68 -121.74, 258.05 -126.74, 265.65 -132.19 M248.3 -114.19 C253.73 -119.99, 258.38 -125.08, 265.65 -132.19" stroke="#1e1e1e" stroke-width="2" fill="none"></path></g><g transform="translate(2191.2695629923014 589.1762395530423) rotate(0 132.24059028988154 -66.13848436544924)"><path d="M240.79 -129.55 C248.6 -132.09, 255.42 -132.09, 265.65 -132.19 M240.79 -129.55 C248.39 -130.75, 255.29 -131.22, 265.65 -132.19" stroke="#1e1e1e" stroke-width="2" fill="none"></path></g></g><mask id="mask-KybQtnvWl8O1aK7W47zWv"><rect x="0" y="0" fill="#fff" width="2555.7507435720645" height="821.4532082839407"></rect><rect x="2239.2602448349176" y="510.5377551875931" fill="#000" width="168.49981689453125" height="25" opacity="1"></rect></mask><g transform="translate(2239.260244834917 510.5377551875931) rotate(0 84.1029907956256 11.93746034130453)"><text x="84.24990844726562" y="0" font-family="Virgil, Segoe UI Emoji" font-size="20px" fill="#1e1e1e" text-anchor="middle" style="white-space: pre;" direction="ltr" dominant-baseline="text-before-edge">registerWebhook()</text></g><g stroke-linecap="round" transform="translate(3294.76304048279 491.7625333037412) rotate(0 155.0669605711737 155.06696057117375)"><path d="M110.31 7.2 C124.03 0.45, 142.03 0.48, 157.97 0.65 C173.9 0.81, 190.7 2.94, 205.93 8.17 C221.16 13.41, 236.55 22.33, 249.34 32.07 C262.14 41.81, 273.55 53.73, 282.69 66.61 C291.83 79.5, 299.64 94.04, 304.19 109.37 C308.74 124.7, 310.3 142.37, 310.02 158.59 C309.73 174.81, 307.82 191.49, 302.47 206.69 C297.13 221.88, 287.89 237.02, 277.95 249.75 C268.02 262.49, 255.97 274.27, 242.84 283.1 C229.72 291.92, 214.28 298.11, 199.19 302.69 C184.11 307.27, 168.14 310.67, 152.36 310.58 C136.57 310.49, 119.54 307.37, 104.48 302.14 C89.42 296.9, 74.89 289.04, 62 279.18 C49.11 269.32, 36.23 256.33, 27.12 242.97 C18.01 229.61, 11.67 214.2, 7.32 199.02 C2.97 183.84, 0.69 167.76, 1.01 151.87 C1.32 135.99, 4.13 118.86, 9.21 103.71 C14.29 88.55, 22.04 73.75, 31.49 60.94 C40.95 48.13, 51.45 36.38, 65.94 26.85 C80.43 17.33, 108.06 7.36, 118.44 3.78 C128.83 0.21, 127.62 2.82, 128.24 5.4 M221.65 17.04 C236.17 21.68, 250.38 32.63, 262.1 43.57 C273.82 54.5, 284.23 68.42, 291.96 82.65 C299.7 96.88, 305.73 113.5, 308.51 128.96 C311.29 144.43, 311.11 159.83, 308.64 175.45 C306.18 191.08, 300.48 208.4, 293.72 222.69 C286.96 236.99, 278.94 249.52, 268.08 261.24 C257.21 272.96, 243.1 285.29, 228.54 292.99 C213.99 300.7, 196.45 304.81, 180.75 307.48 C165.05 310.16, 150.11 310.98, 134.35 309.05 C118.58 307.12, 100.49 303.07, 86.16 295.91 C71.82 288.74, 59.44 277.2, 48.32 266.06 C37.19 254.92, 26.85 243.13, 19.42 229.06 C11.98 215, 6.88 197.45, 3.72 181.67 C0.56 165.89, -1.3 150.18, 0.46 134.38 C2.23 118.59, 7.4 101.2, 14.32 86.88 C21.24 72.57, 30.55 59.7, 41.96 48.49 C53.37 37.29, 68.32 27.17, 82.8 19.65 C97.29 12.14, 113.38 6.35, 128.87 3.42 C144.35 0.5, 160.28 -0.16, 175.73 2.11 C191.18 4.38, 213.84 14.49, 221.56 17.05 C229.29 19.6, 222.95 15.13, 222.09 17.44" stroke="#1e1e1e" stroke-width="2" fill="none"></path></g><g transform="translate(3385.021166698541 621.680594517051) rotate(0 64.6599349975586 25)"><text x="64.6599349975586" y="0" font-family="Virgil, Segoe UI Emoji" font-size="20px" fill="#1e1e1e" text-anchor="middle" style="white-space: pre;" direction="ltr" dominant-baseline="text-before-edge">Webhooks DB</text><text x="64.6599349975586" y="25" font-family="Virgil, Segoe UI Emoji" font-size="20px" fill="#1e1e1e" text-anchor="middle" style="white-space: pre;" direction="ltr" dominant-baseline="text-before-edge">(PostgreSQL)</text></g><g stroke-linecap="round"><g transform="translate(2760.9415029347447 424.3110293084926) rotate(0 264.8212562491849 72.82443586441855)"><path d="M-0.2 0.2 C88.19 24.64, 441.26 122.08, 529.51 146.49 M-1.76 -0.75 C86.53 23.38, 440.13 120.55, 528.5 144.81" stroke="#1e1e1e" stroke-width="2" fill="none"></path></g><g transform="translate(2760.9415029347447 424.3110293084926) rotate(0 264.8212562491849 72.82443586441855)"><path d="M24.72 -1.79 C19.24 -1.59, 14.52 -1.41, -0.2 0.2 M24.72 -1.79 C15.55 -1.91, 5.52 -1, -0.2 0.2" stroke="#1e1e1e" stroke-width="2" fill="none"></path></g><g transform="translate(2760.9415029347447 424.3110293084926) rotate(0 264.8212562491849 72.82443586441855)"><path d="M20.17 14.69 C15.78 11.07, 12.11 7.41, -0.2 0.2 M20.17 14.69 C12.71 8.3, 4.42 2.91, -0.2 0.2" stroke="#1e1e1e" stroke-width="2" fill="none"></path></g><g transform="translate(2760.9415029347447 424.3110293084926) rotate(0 264.8212562491849 72.82443586441855)"><path d="M503.58 146.83 C509.71 146.18, 516.58 145.43, 528.5 144.81 M503.58 146.83 C513.43 145.35, 522.44 144.73, 528.5 144.81" stroke="#1e1e1e" stroke-width="2" fill="none"></path></g><g transform="translate(2760.9415029347447 424.3110293084926) rotate(0 264.8212562491849 72.82443586441855)"><path d="M508.11 130.34 C513.16 133.53, 518.98 136.61, 528.5 144.81 M508.11 130.34 C516.25 135.14, 523.53 140.81, 528.5 144.81" stroke="#1e1e1e" stroke-width="2" fill="none"></path></g></g><mask></mask><g transform="translate(3625.486731744287 485.5803759971293) rotate(0 84.0699234008789 150)"><text x="0" y="0" font-family="Virgil, Segoe UI Emoji" font-size="20px" fill="#1e1e1e" text-anchor="start" style="white-space: pre;" direction="ltr" dominant-baseline="text-before-edge">Organizations</text><text x="0" y="25" font-family="Virgil, Segoe UI Emoji" font-size="20px" fill="#1e1e1e" text-anchor="start" style="white-space: pre;" direction="ltr" dominant-baseline="text-before-edge">- organization_id</text><text x="0" y="50" font-family="Virgil, Segoe UI Emoji" font-size="20px" fill="#1e1e1e" text-anchor="start" style="white-space: pre;" direction="ltr" dominant-baseline="text-before-edge">- name</text><text x="0" y="75" font-family="Virgil, Segoe UI Emoji" font-size="20px" fill="#1e1e1e" text-anchor="start" style="white-space: pre;" direction="ltr" dominant-baseline="text-before-edge">- description</text><text x="0" y="100" font-family="Virgil, Segoe UI Emoji" font-size="20px" fill="#1e1e1e" text-anchor="start" style="white-space: pre;" direction="ltr" dominant-baseline="text-before-edge">- preferences?</text><text x="0" y="125" font-family="Virgil, Segoe UI Emoji" font-size="20px" fill="#1e1e1e" text-anchor="start" style="white-space: pre;" direction="ltr" dominant-baseline="text-before-edge"></text><text x="0" y="150" font-family="Virgil, Segoe UI Emoji" font-size="20px" fill="#1e1e1e" text-anchor="start" style="white-space: pre;" direction="ltr" dominant-baseline="text-before-edge">Subscriptions</text><text x="0" y="175" font-family="Virgil, Segoe UI Emoji" font-size="20px" fill="#1e1e1e" text-anchor="start" style="white-space: pre;" direction="ltr" dominant-baseline="text-before-edge">- id</text><text x="0" y="200" font-family="Virgil, Segoe UI Emoji" font-size="20px" fill="#1e1e1e" text-anchor="start" style="white-space: pre;" direction="ltr" dominant-baseline="text-before-edge">- organization_id</text><text x="0" y="225" font-family="Virgil, Segoe UI Emoji" font-size="20px" fill="#1e1e1e" text-anchor="start" style="white-space: pre;" direction="ltr" dominant-baseline="text-before-edge">- event_type</text><text x="0" y="250" font-family="Virgil, Segoe UI Emoji" font-size="20px" fill="#1e1e1e" text-anchor="start" style="white-space: pre;" direction="ltr" dominant-baseline="text-before-edge">- webhook_url</text><text x="0" y="275" font-family="Virgil, Segoe UI Emoji" font-size="20px" fill="#1e1e1e" text-anchor="start" style="white-space: pre;" direction="ltr" dominant-baseline="text-before-edge">- secret_key</text></g><g stroke-linecap="round" transform="translate(2652.4030692044134 856.3201810918549) rotate(0 126.69641895222776 72.95948182705592)"><path d="M32 0 C95.27 0.06, 157.71 3.46, 221.39 0 M32 0 C93.92 -1.96, 156.27 -1.66, 221.39 0 M221.39 0 C240.92 1.63, 252.27 11.71, 253.39 32 M221.39 0 C242.82 -0.67, 253.53 11.58, 253.39 32 M253.39 32 C253.92 51.32, 255.4 70.45, 253.39 113.92 M253.39 32 C254.48 58.48, 253.36 87.39, 253.39 113.92 M253.39 113.92 C252.54 134.26, 243.79 147.42, 221.39 145.92 M253.39 113.92 C252.65 134.25, 242.25 145.36, 221.39 145.92 M221.39 145.92 C164.13 146.06, 106.46 147.23, 32 145.92 M221.39 145.92 C169.19 146.07, 118.78 146.2, 32 145.92 M32 145.92 C8.98 145.59, 0.44 134.61, 0 113.92 M32 145.92 C11.09 147.9, 0.08 133.86, 0 113.92 M0 113.92 C-0.64 81.96, -0.11 50.4, 0 32 M0 113.92 C-0.38 83.6, 0.42 53.91, 0 32 M0 32 C1.45 10.12, 8.79 -0.6, 32 0 M0 32 C0.01 8.99, 9.02 -2.07, 32 0" stroke="#1e1e1e" stroke-width="2" fill="none"></path></g><g transform="translate(2683.729584592188 916.7796629189108) rotate(0 95.36990356445312 12.5)"><text x="95.36990356445312" y="0" font-family="Virgil, Segoe UI Emoji" font-size="20px" fill="#1e1e1e" text-anchor="middle" style="white-space: pre;" direction="ltr" dominant-baseline="text-before-edge">Notification Service</text></g><g stroke-linecap="round" transform="translate(3197.345323505059 1045.7413282298726) rotate(0 204.74012455912953 35.062861769401366)"><path d="M17.53 0 C156.28 -1.03, 296.44 -1.28, 391.95 0 M17.53 0 C157.33 2.04, 298.18 1.54, 391.95 0 M391.95 0 C403.31 -0.3, 410.9 4.53, 409.48 17.53 M391.95 0 C403.01 -0.05, 411.33 4.18, 409.48 17.53 M409.48 17.53 C410.16 28.55, 411.61 38.06, 409.48 52.59 M409.48 17.53 C408.62 29.66, 410.53 41.55, 409.48 52.59 M409.48 52.59 C407.48 64.35, 405.25 69.31, 391.95 70.13 M409.48 52.59 C408.56 64.81, 402.34 71.78, 391.95 70.13 M391.95 70.13 C271.34 71.26, 151.96 72.78, 17.53 70.13 M391.95 70.13 C282.14 69.49, 171.2 69.12, 17.53 70.13 M17.53 70.13 C5.71 69.73, -0.4 62.5, 0 52.59 M17.53 70.13 C5.37 69.16, 1.52 63.65, 0 52.59 M0 52.59 C0.52 38.26, -2.05 26.04, 0 17.53 M0 52.59 C0.28 43.45, 0.47 33.63, 0 17.53 M0 17.53 C0.15 4.42, 4.46 -0.04, 17.53 0 M0 17.53 C0.67 7.97, 3.62 1.77, 17.53 0" stroke="#1e1e1e" stroke-width="2" fill="none"></path></g><g transform="translate(3245.1055591481727 1068.304189999274) rotate(0 156.97988891601562 12.5)"><text x="156.97988891601562" y="0" font-family="Virgil, Segoe UI Emoji" font-size="20px" fill="#1e1e1e" text-anchor="middle" style="white-space: pre;" direction="ltr" dominant-baseline="text-before-edge">Webhook callback queue (Kafka)</text></g><g stroke-linecap="round"><g transform="translate(2927.4647992116725 927.8562543778066) rotate(0 128.1391068571063 70.04943975271397)"><path d="M-0.78 0.98 C41.92 24.33, 255.72 134.36, 256.23 141.25 C256.74 148.15, 44.38 58.91, 2.31 42.36 M1.01 0.45 C43.55 24.01, 255.22 133.07, 255.26 139.74 C255.29 146.4, 43.01 56.53, 1.21 40.45" stroke="#1e1e1e" stroke-width="2" fill="none"></path></g><g transform="translate(2927.4647992116725 927.8562543778066) rotate(0 128.1391068571063 70.04943975271397)"><path d="M26.2 41.38 C20.28 40.85, 13.02 39.62, 1.21 40.45 M26.2 41.38 C17.62 40.43, 7.33 40.66, 1.21 40.45" stroke="#1e1e1e" stroke-width="2" fill="none"></path></g><g transform="translate(2927.4647992116725 927.8562543778066) rotate(0 128.1391068571063 70.04943975271397)"><path d="M19.76 57.22 C15.63 51.95, 10.32 45.94, 1.21 40.45 M19.76 57.22 C13.44 50.41, 5.52 44.81, 1.21 40.45" stroke="#1e1e1e" stroke-width="2" fill="none"></path></g></g><mask></mask><g mask="url(#mask-cLka8s8bIclHiRGKj5_w2)" stroke-linecap="round"><g transform="translate(2633.6332293596397 934.5249451575362) rotate(0 -445.1829917914599 27.466996618860776)"><path d="M-1.14 -0.89 C-113.8 26, -527.75 180.07, -675.77 162.28 C-823.79 144.49, -853.52 -62.89, -889.24 -107.62 M0.46 1.25 C-112.28 27.71, -527.82 178.49, -676.14 160.48 C-824.45 142.48, -853.82 -61.96, -889.42 -106.77" stroke="#1e1e1e" stroke-width="2" fill="none"></path></g><g transform="translate(2633.6332293596397 934.5249451575362) rotate(0 -445.1829917914599 27.466996618860776)"><path d="M-871.9 -88.93 C-879.06 -92.89, -882.09 -98.5, -889.42 -106.77 M-871.9 -88.93 C-876.02 -92.3, -878.99 -96.66, -889.42 -106.77" stroke="#1e1e1e" stroke-width="2" fill="none"></path></g><g transform="translate(2633.6332293596397 934.5249451575362) rotate(0 -445.1829917914599 27.466996618860776)"><path d="M-887.47 -81.85 C-889.76 -87.89, -887.87 -95.75, -889.42 -106.77 M-887.47 -81.85 C-888.08 -86.89, -887.54 -92.86, -889.42 -106.77" stroke="#1e1e1e" stroke-width="2" fill="none"></path></g></g><mask id="mask-cLka8s8bIclHiRGKj5_w2"><rect x="0" y="0" fill="#fff" width="3623.9992129425596" height="1302.9266902477018"></rect><rect x="1898.3524688637144" y="1083.6928143214798" fill="#000" width="116.79988098144531" height="25" opacity="1"></rect></mask><g transform="translate(1898.3524688637149 1083.6928143214798) rotate(0 290.80076426678545 -121.12475866855505)"><text x="58.399940490722656" y="0" font-family="Virgil, Segoe UI Emoji" font-size="20px" fill="#1e1e1e" text-anchor="middle" style="white-space: pre;" direction="ltr" dominant-baseline="text-before-edge">webhook_url</text></g><g stroke-linecap="round"><g transform="translate(2929.1624424258325 868.7434470744586) rotate(0 175.20548556404765 -81.73499136487249)"><path d="M-1.07 0.98 C57.27 -26.41, 291.83 -136.14, 350.39 -163.49 M0.57 0.45 C58.71 -26.81, 291.29 -134.35, 349.43 -161.97" stroke="#1e1e1e" stroke-width="2" fill="none"></path></g><g transform="translate(2929.1624424258325 868.7434470744586) rotate(0 175.20548556404765 -81.73499136487249)"><path d="M331.77 -144.26 C339.11 -149.99, 343.27 -156.04, 349.43 -161.97 M331.77 -144.26 C337.6 -150.65, 342.46 -155.26, 349.43 -161.97" stroke="#1e1e1e" stroke-width="2" fill="none"></path></g><g transform="translate(2929.1624424258325 868.7434470744586) rotate(0 175.20548556404765 -81.73499136487249)"><path d="M324.53 -159.75 C334.37 -160.3, 340.92 -161.24, 349.43 -161.97 M324.53 -159.75 C332.85 -160.97, 340.09 -160.47, 349.43 -161.97" stroke="#1e1e1e" stroke-width="2" fill="none"></path></g></g><mask></mask><g stroke-linecap="round" transform="translate(3794.359777125987 1467.3759737007954) rotate(0 153.56706398047277 89.74873792197593)"><path d="M32 0 C104.13 -0.76, 177.36 0.75, 275.13 0 M32 0 C129.42 1.02, 226.38 2.19, 275.13 0 M275.13 0 C298.45 -1.58, 308.73 9.49, 307.13 32 M275.13 0 C297.11 -1.71, 306.72 8.4, 307.13 32 M307.13 32 C306.8 53.64, 308.42 76.55, 307.13 147.5 M307.13 32 C308.22 57.57, 306.88 84.98, 307.13 147.5 M307.13 147.5 C307.47 168.74, 297.89 180.96, 275.13 179.5 M307.13 147.5 C305.62 168.62, 297.08 180.28, 275.13 179.5 M275.13 179.5 C189.28 179.54, 98.88 179.79, 32 179.5 M275.13 179.5 C192.62 179.52, 111.22 179.23, 32 179.5 M32 179.5 C10.3 179.97, 0.64 170.07, 0 147.5 M32 179.5 C11.11 181.27, 0.04 170.14, 0 147.5 M0 147.5 C-1.25 102.28, -1.36 54.96, 0 32 M0 147.5 C-0.6 108.86, 0.9 70.79, 0 32 M0 32 C-1.04 9.1, 9.78 -1.96, 32 0 M0 32 C-1.57 9.26, 11.35 -0.79, 32 0" stroke="#1e1e1e" stroke-width="2" fill="none"></path></g><g transform="translate(3869.6569054985493 1544.6247116227712) rotate(0 78.26993560791016 12.5)"><text x="78.26993560791016" y="0" font-family="Virgil, Segoe UI Emoji" font-size="20px" fill="#1e1e1e" text-anchor="middle" style="white-space: pre;" direction="ltr" dominant-baseline="text-before-edge">Internal Service</text></g><g mask="url(#mask-v3QFNbcHeEleBRw7QLyt4)" stroke-linecap="round"><g transform="translate(3787.649793855493 1448.224033322495) rotate(0 -91.20267767442238 -161.8647358404137)"><path d="M0.63 0.54 C-29.56 -53.18, -150.94 -268.77, -181.38 -322.65 M-0.5 -0.22 C-30.74 -54.22, -151.45 -270.16, -181.79 -324.2" stroke="#1e1e1e" stroke-width="2" fill="none"></path></g><g transform="translate(3787.649793855493 1448.224033322495) rotate(0 -91.20267767442238 -161.8647358404137)"><path d="M-162.85 -307.89 C-167.25 -310.69, -171.7 -316.36, -181.79 -324.2 M-162.85 -307.89 C-170.93 -313.88, -177.28 -320.12, -181.79 -324.2" stroke="#1e1e1e" stroke-width="2" fill="none"></path></g><g transform="translate(3787.649793855493 1448.224033322495) rotate(0 -91.20267767442238 -161.8647358404137)"><path d="M-177.77 -299.53 C-177.94 -304.77, -178.17 -312.8, -181.79 -324.2 M-177.77 -299.53 C-180.15 -308.78, -180.75 -318.24, -181.79 -324.2" stroke="#1e1e1e" stroke-width="2" fill="none"></path></g></g><mask id="mask-v3QFNbcHeEleBRw7QLyt4"><rect x="0" y="0" fill="#fff" width="4070.055149204338" height="1871.9535050033223"></rect><rect x="3629.7671845404457" y="1273.8592974820813" fill="#000" width="133.35986328125" height="25" opacity="1"></rect></mask><g transform="translate(3629.7671845404457 1273.8592974820813) rotate(0 67.30143405239573 12.532918580290811)"><text x="66.679931640625" y="0" font-family="Virgil, Segoe UI Emoji" font-size="20px" fill="#1e1e1e" text-anchor="middle" style="white-space: pre;" direction="ltr" dominant-baseline="text-before-edge">event_trigger</text></g><g stroke-linecap="round" transform="translate(3988.478749268314 1160.5987861079552) rotate(0 153.56706398047277 89.74873792197593)"><path d="M32 0 C110.26 -0.44, 187.27 -1.67, 275.13 0 M32 0 C124.16 0.6, 214.71 0.65, 275.13 0 M275.13 0 C296.38 0.65, 306.16 9.99, 307.13 32 M275.13 0 C295.68 1.97, 306.5 11.41, 307.13 32 M307.13 32 C309.66 58.49, 306.47 82.99, 307.13 147.5 M307.13 32 C306.7 73.85, 306.55 115.27, 307.13 147.5 M307.13 147.5 C307.98 170.02, 297.01 181.04, 275.13 179.5 M307.13 147.5 C309.04 169.56, 298.18 180.44, 275.13 179.5 M275.13 179.5 C197.22 178.15, 117.12 178.64, 32 179.5 M275.13 179.5 C198.26 179.86, 120.12 178.99, 32 179.5 M32 179.5 C9.6 178.48, 1.53 167.55, 0 147.5 M32 179.5 C10.06 177.84, 1.87 168.26, 0 147.5 M0 147.5 C0.07 120.42, 1.02 94.63, 0 32 M0 147.5 C-0.64 106.97, -1.01 63.68, 0 32 M0 32 C-1.42 9.72, 12.1 -0.51, 32 0 M0 32 C1.07 10.79, 8.77 1.92, 32 0" stroke="#1e1e1e" stroke-width="2" fill="none"></path></g><g transform="translate(4063.7758776408764 1237.8475240299313) rotate(0 78.26993560791016 12.5)"><text x="78.26993560791016" y="0" font-family="Virgil, Segoe UI Emoji" font-size="20px" fill="#1e1e1e" text-anchor="middle" style="white-space: pre;" direction="ltr" dominant-baseline="text-before-edge">Internal Service</text></g><g mask="url(#mask-nfK-5QcHsWfh2gLZA-kFo)" stroke-linecap="round"><g transform="translate(3969.293789283685 1159.8195141811868) rotate(0 -174.58718220704577 -29.618375357755667)"><path d="M0.02 1.19 C-58.2 -8.61, -291.18 -48.29, -349.41 -58.41 M-1.43 0.76 C-59.82 -9.41, -292.34 -50.25, -350.47 -60.1" stroke="#1e1e1e" stroke-width="2" fill="none"></path></g><g transform="translate(3969.293789283685 1159.8195141811868) rotate(0 -174.58718220704577 -29.618375357755667)"><path d="M-325.87 -64.52 C-331.12 -63.6, -338.95 -62.22, -350.47 -60.1 M-325.87 -64.52 C-333.34 -62.23, -340.01 -62.76, -350.47 -60.1" stroke="#1e1e1e" stroke-width="2" fill="none"></path></g><g transform="translate(3969.293789283685 1159.8195141811868) rotate(0 -174.58718220704577 -29.618375357755667)"><path d="M-328.78 -47.67 C-333.23 -51.71, -340.21 -55.29, -350.47 -60.1 M-328.78 -47.67 C-335.61 -50.03, -341.48 -55.2, -350.47 -60.1" stroke="#1e1e1e" stroke-width="2" fill="none"></path></g></g><mask id="mask-nfK-5QcHsWfh2gLZA-kFo"><rect x="0" y="0" fill="#fff" width="4418.468153697777" height="1319.0562648966982"></rect><rect x="3728.026675436014" y="1117.7011388234312" fill="#000" width="133.35986328125" height="25" opacity="1"></rect></mask><g transform="translate(3728.026675436014 1117.7011388234312) rotate(0 66.04028132674762 12.659698819168852)"><text x="66.679931640625" y="0" font-family="Virgil, Segoe UI Emoji" font-size="20px" fill="#1e1e1e" text-anchor="middle" style="white-space: pre;" direction="ltr" dominant-baseline="text-before-edge">event_trigger</text></g><g transform="translate(3130.542649623843 887.9941119234709) rotate(0 349.33966064453125 62.5)"><text x="0" y="0" font-family="Virgil, Segoe UI Emoji" font-size="20px" fill="#1e1e1e" text-anchor="start" style="white-space: pre;" direction="ltr" dominant-baseline="text-before-edge">- topics are separated by organization_id</text><text x="0" y="25" font-family="Virgil, Segoe UI Emoji" font-size="20px" fill="#1e1e1e" text-anchor="start" style="white-space: pre;" direction="ltr" dominant-baseline="text-before-edge">- guaranteed durability for at-least once delivery</text><text x="0" y="50" font-family="Virgil, Segoe UI Emoji" font-size="20px" fill="#1e1e1e" text-anchor="start" style="white-space: pre;" direction="ltr" dominant-baseline="text-before-edge">- scale topics with more partitions if that organization </text><text x="0" y="75" font-family="Virgil, Segoe UI Emoji" font-size="20px" fill="#1e1e1e" text-anchor="start" style="white-space: pre;" direction="ltr" dominant-baseline="text-before-edge">    has an uneven amount of event triggers (bigger customer)</text><text x="0" y="100" font-family="Virgil, Segoe UI Emoji" font-size="20px" fill="#1e1e1e" text-anchor="start" style="white-space: pre;" direction="ltr" dominant-baseline="text-before-edge">- ensure idempotency by hashing (organization_id, payload, event_type)</text></g><g transform="translate(2444.305849452826 1013.8483513370741) rotate(0 341.01971435546875 75)"><text x="0" y="0" font-family="Virgil, Segoe UI Emoji" font-size="20px" fill="#1e1e1e" text-anchor="start" style="white-space: pre;" direction="ltr" dominant-baseline="text-before-edge">- use horizontal scaling by organization_id to</text><text x="0" y="25" font-family="Virgil, Segoe UI Emoji" font-size="20px" fill="#1e1e1e" text-anchor="start" style="white-space: pre;" direction="ltr" dominant-baseline="text-before-edge">    pull events from organization's topic</text><text x="0" y="50" font-family="Virgil, Segoe UI Emoji" font-size="20px" fill="#1e1e1e" text-anchor="start" style="white-space: pre;" direction="ltr" dominant-baseline="text-before-edge">- ensure encryption via HMAC and registered security key</text><text x="0" y="75" font-family="Virgil, Segoe UI Emoji" font-size="20px" fill="#1e1e1e" text-anchor="start" style="white-space: pre;" direction="ltr" dominant-baseline="text-before-edge">- maybe use Redis caching for faster reads per</text><text x="0" y="100" font-family="Virgil, Segoe UI Emoji" font-size="20px" fill="#1e1e1e" text-anchor="start" style="white-space: pre;" direction="ltr" dominant-baseline="text-before-edge">    organization:event_type for all callbacks (least-frequently used)</text><text x="0" y="125" font-family="Virgil, Segoe UI Emoji" font-size="20px" fill="#1e1e1e" text-anchor="start" style="white-space: pre;" direction="ltr" dominant-baseline="text-before-edge">- vertical scaling as needed based on queue depth</text></g><g transform="translate(3696.1701406458124 1174.851451777338) rotate(0 105.19992065429688 25)"><text x="0" y="0" font-family="Virgil, Segoe UI Emoji" font-size="20px" fill="#1e1e1e" text-anchor="start" style="white-space: pre;" direction="ltr" dominant-baseline="text-before-edge">- use gRPC here</text><text x="0" y="25" font-family="Virgil, Segoe UI Emoji" font-size="20px" fill="#1e1e1e" text-anchor="start" style="white-space: pre;" direction="ltr" dominant-baseline="text-before-edge">    for communication</text></g><g stroke-linecap="round" transform="translate(2680.171146275381 1332.9219677872468) rotate(0 153.37055266721427 153.37055266721427)"><path d="M109.85 7.23 C123.28 0.36, 140.49 -0.9, 156.18 -0.76 C171.88 -0.62, 188.96 2.66, 204.02 8.07 C219.08 13.48, 233.83 21.87, 246.55 31.71 C259.28 41.56, 271.49 54.17, 280.38 67.14 C289.27 80.1, 295.37 94.43, 299.88 109.52 C304.39 124.62, 307.83 142.02, 307.46 157.7 C307.09 173.38, 303.04 188.92, 297.67 203.6 C292.3 218.27, 284.71 233.22, 275.25 245.77 C265.78 258.33, 253.93 269.99, 240.91 278.93 C227.89 287.86, 212.32 294.79, 197.12 299.37 C181.92 303.95, 165.34 306.7, 149.7 306.39 C134.06 306.09, 118.09 302.66, 103.29 297.55 C88.5 292.44, 73.57 285.3, 60.92 275.76 C48.27 266.21, 36.4 253.31, 27.4 240.29 C18.4 227.26, 11.38 212.64, 6.93 197.61 C2.48 182.58, 0.42 165.92, 0.69 150.12 C0.96 134.32, 3.51 117.86, 8.56 102.8 C13.62 87.75, 21.6 72.42, 31.04 59.8 C40.49 47.18, 49.66 36.49, 65.23 27.06 C80.8 17.63, 111.81 7.29, 124.48 3.23 C137.14 -0.83, 140.65 0.19, 141.22 2.71 M143.33 0.71 C158.25 -2.55, 176.98 1.72, 192.48 5.49 C207.98 9.27, 223.24 14.89, 236.33 23.35 C249.41 31.81, 261.02 43.81, 271 56.24 C280.97 68.67, 290.49 83.43, 296.16 97.93 C301.82 112.44, 304.19 127.68, 304.98 143.25 C305.78 158.81, 304.35 176.2, 300.95 191.32 C297.54 206.45, 292.73 220.69, 284.54 233.99 C276.35 247.29, 264.1 260.79, 251.81 271.13 C239.52 281.46, 225.3 289.94, 210.79 296 C196.28 302.06, 180.48 306.62, 164.76 307.51 C149.04 308.39, 131.89 305.58, 116.48 301.31 C101.08 297.04, 86 290.37, 72.32 281.87 C58.64 273.36, 44.65 262.25, 34.38 250.27 C24.11 238.29, 16.18 224.46, 10.69 209.99 C5.19 195.52, 2.66 179.36, 1.43 163.47 C0.2 147.58, -0.29 129.99, 3.32 114.63 C6.93 99.28, 14.46 84.48, 23.09 71.36 C31.72 58.24, 43.09 46.06, 55.11 35.9 C67.13 25.74, 80.63 16.48, 95.19 10.4 C109.74 4.32, 134.19 0.77, 142.45 -0.57 C150.71 -1.91, 144.36 -0.19, 144.75 2.35" stroke="#1e1e1e" stroke-width="2" fill="none"></path></g><g transform="translate(2767.7223994058536 1461.3431626291454) rotate(0 65.86994171142578 25)"><text x="65.86994171142578" y="0" font-family="Virgil, Segoe UI Emoji" font-size="20px" fill="#1e1e1e" text-anchor="middle" style="white-space: pre;" direction="ltr" dominant-baseline="text-before-edge">Webhook Logs</text><text x="65.86994171142578" y="25" font-family="Virgil, Segoe UI Emoji" font-size="20px" fill="#1e1e1e" text-anchor="middle" style="white-space: pre;" direction="ltr" dominant-baseline="text-before-edge">(Cassandra)</text></g><g stroke-linecap="round"><g transform="translate(3186.7976881215395 1111.6172236394314) rotate(0 -128.96747586225592 119.16409300266992)"><path d="M-0.29 -0.52 C-43.21 39.3, -215.74 198.98, -258.73 238.64 M1.76 1.83 C-40.67 41.29, -212.95 197.27, -256.43 236.68" stroke="#1e1e1e" stroke-width="2" fill="none"></path></g><g transform="translate(3186.7976881215395 1111.6172236394314) rotate(0 -128.96747586225592 119.16409300266992)"><path d="M-244.76 214.56 C-248.02 217.67, -249 223.02, -256.43 236.68 M-244.76 214.56 C-248.25 219.4, -250.72 224.89, -256.43 236.68" stroke="#1e1e1e" stroke-width="2" fill="none"></path></g><g transform="translate(3186.7976881215395 1111.6172236394314) rotate(0 -128.96747586225592 119.16409300266992)"><path d="M-233.28 227.24 C-238.83 227.76, -242.11 230.56, -256.43 236.68 M-233.28 227.24 C-239.24 229.24, -244.28 231.89, -256.43 236.68" stroke="#1e1e1e" stroke-width="2" fill="none"></path></g></g><mask></mask><g transform="translate(2999.9553273308557 1402.659668583847) rotate(0 84.0699234008789 75)"><text x="0" y="0" font-family="Virgil, Segoe UI Emoji" font-size="20px" fill="#1e1e1e" text-anchor="start" style="white-space: pre;" direction="ltr" dominant-baseline="text-before-edge">WebhookLogs</text><text x="0" y="25" font-family="Virgil, Segoe UI Emoji" font-size="20px" fill="#1e1e1e" text-anchor="start" style="white-space: pre;" direction="ltr" dominant-baseline="text-before-edge">- event_id</text><text x="0" y="50" font-family="Virgil, Segoe UI Emoji" font-size="20px" fill="#1e1e1e" text-anchor="start" style="white-space: pre;" direction="ltr" dominant-baseline="text-before-edge">- webhook_id</text><text x="0" y="75" font-family="Virgil, Segoe UI Emoji" font-size="20px" fill="#1e1e1e" text-anchor="start" style="white-space: pre;" direction="ltr" dominant-baseline="text-before-edge">- organization_id</text><text x="0" y="100" font-family="Virgil, Segoe UI Emoji" font-size="20px" fill="#1e1e1e" text-anchor="start" style="white-space: pre;" direction="ltr" dominant-baseline="text-before-edge">- payload</text><text x="0" y="125" font-family="Virgil, Segoe UI Emoji" font-size="20px" fill="#1e1e1e" text-anchor="start" style="white-space: pre;" direction="ltr" dominant-baseline="text-before-edge">- webhook_url</text></g><g transform="translate(2433.7015759787882 1658.6315350428645) rotate(0 400.58966064453125 12.5)"><text x="0" y="0" font-family="Virgil, Segoe UI Emoji" font-size="20px" fill="#1e1e1e" text-anchor="start" style="white-space: pre;" direction="ltr" dominant-baseline="text-before-edge">- persist this for transaction records to keep track which events were triggered</text></g><g transform="translate(1348.1455328300547 615.3781728453539) rotate(0 313.6897277832031 25)"><text x="0" y="0" font-family="Virgil, Segoe UI Emoji" font-size="20px" fill="#1e1e1e" text-anchor="start" style="white-space: pre;" direction="ltr" dominant-baseline="text-before-edge">- organization should maintain secret_key to decrypt messages</text><text x="0" y="25" font-family="Virgil, Segoe UI Emoji" font-size="20px" fill="#1e1e1e" text-anchor="start" style="white-space: pre;" direction="ltr" dominant-baseline="text-before-edge">- also pass in auth_token to ensure that correct sender</text></g></svg>